<?xml version="1.0" encoding="UTF-8" standalone="no"?>
<!-- Created with Inkscape (http://www.inkscape.org/) -->

<svg
   version="1.1"
   id="svg1"
   width="1333"
   height="1333"
   viewBox="0 0 1333 1333"
   sodipodi:docname="banner.svg"
   inkscape:export-filename="banner.png"
   inkscape:export-xdpi="96"
   inkscape:export-ydpi="96"
   inkscape:version="1.3 (0e150ed6c4, 2023-07-21)"
   xmlns:inkscape="http://www.inkscape.org/namespaces/inkscape"
   xmlns:sodipodi="http://sodipodi.sourceforge.net/DTD/sodipodi-0.dtd"
   xmlns="http://www.w3.org/2000/svg"
   xmlns:svg="http://www.w3.org/2000/svg">
  <defs
     id="defs1" />
  <sodipodi:namedview
     id="namedview1"
     pagecolor="#ffffff"
     bordercolor="#000000"
     borderopacity="0.25"
     inkscape:showpageshadow="2"
     inkscape:pageopacity="0.0"
     inkscape:pagecheckerboard="0"
     inkscape:deskcolor="#d1d1d1"
     inkscape:zoom="0.1380411"
     inkscape:cx="1217.0288"
     inkscape:cy="557.80489"
     inkscape:window-width="1362"
     inkscape:window-height="736"
     inkscape:window-x="0"
     inkscape:window-y="0"
     inkscape:window-maximized="1"
     inkscape:current-layer="g1" />
  <g
     inkscape:groupmode="layer"
     inkscape:label="Image"
     id="g1">
    <path
       style="fill:#000000"
       d="m 649.48236,1067.2527 c -53.1759,-3.1854 -98.2922,-13.6997 -143.8093,-33.5146 -84.5899,-36.82447 -155.9236,-104.52919 -197.55138,-187.50125 -28.5833,-56.97209 -42.4231,-115.65756 -42.4231,-179.88878 0,-65.04377 13.8212,-123.01666 43.2941,-181.59638 48.37038,-96.14006 136.68338,-170.34104 240.18068,-201.80088 20.3292,-6.17944 25.304,-7.38795 45.6125,-11.08053 26.1658,-4.75755 43.7408,-6.30513 71.6965,-6.31325 28.1205,-0.008 45.6293,1.53537 72.2222,6.36695 20.1632,3.6634 24.0672,4.61746 45.0868,11.01805 86.7825,26.42583 163.3415,82.78837 213.80973,157.40605 38.44471,56.84072 60.51721,117.10509 68.00601,185.67566 2.2591,20.68523 2.2591,59.96343 0,80.64866 -7.515,68.8109 -30.6374,131.55879 -68.97374,187.17567 -55.6907,80.79423 -138.863,138.22433 -235.151,162.37113 -11.291,2.8315 -39.47,7.5863 -53.7393,9.0677 -14.5213,1.5076 -47.3942,2.6168 -58.2607,1.9658 z m 47.3126,-3.4618 c 37.6082,-2.7071 81.9831,-12.861 116.0808,-26.5619 4.7336,-1.902 9.9566,-4.0014 11.6066,-4.6655 10.17,-4.0925 43.3051,-21.7733 55.5379,-29.6349 27.4807,-17.66085 44.6667,-31.58045 68.5085,-55.48746 31.7762,-31.86324 53.64934,-61.97215 73.44064,-101.09307 24.4535,-48.33628 38.3777,-98.60336 42.1048,-152 1.2651,-18.12478 0.7218,-53.89918 -1.0707,-70.5 -3.5707,-33.0685 -13.9945,-75.22771 -25.7138,-104 -1.9041,-4.675 -3.9879,-9.85 -4.6306,-11.5 -0.6426,-1.65 -5.4742,-11.55 -10.7367,-22 -37.74584,-74.9527 -98.27914,-135.86923 -173.48994,-174.58801 -46.9383,-24.16397 -99.8954,-39.13037 -151.6375,-42.85479 -108.1528,-7.78487 -212.1701,26.9173 -292.8643,97.70514 -39.0107,34.22166 -69.6816,73.76362 -92.87478,119.73766 -5.2719,10.45 -10.1103,20.35 -10.752,22 -0.6417,1.65 -2.7145,6.825 -4.6061,11.5 -13.9586,34.49673 -23.8805,77.80384 -26.6906,116.5 -5.33,73.39424 8.9826,144.98765 41.9821,210 38.50398,75.85689 99.78278,137.31762 174.43268,174.95063 9.9332,5.0076 19.8604,9.8424 22.0604,10.7441 2.2,0.9018 7.825,3.2016 12.5,5.1108 31.7689,12.9737 79.5366,24.105 114.1046,26.5898 16.9867,1.221 46.0986,1.243 62.708,0.048 z m -44.8126,-13.4948 c 0,-0.8536 1.3636,-2.0274 3.0303,-2.6084 1.6668,-0.5811 3.6935,-2.3387 4.5039,-3.9058 1.4385,-2.7818 8.5598,-22.4064 14.6724,-40.4339 3.3745,-9.95187 3.4077,-10.00843 6.4053,-10.91112 1.9387,-0.58378 2.7995,1.06084 10.4883,20.03902 11.1518,27.5258 12.6993,30.5367 16.6378,32.3722 1.8047,0.8411 3.2282,2.2688 3.2403,3.25 0.019,1.5201 -1.0111,1.75 -7.8388,1.75 -4.3232,0 -9.9482,0.2862 -12.5,0.6359 -4.2291,0.5797 -4.6395,0.4529 -4.6395,-1.4326 0,-1.1903 0.8491,-2.338 2,-2.7033 2.525,-0.8014 2.5064,-1.9987 -0.1388,-8.911 -2.3799,-6.2192 -2.5262,-6.2728 -13.5205,-4.9519 l -5.1594,0.62 -1.4194,5.6351 c -1.626,6.4548 -1.3638,8.1078 1.2862,8.1078 1.0348,0 2.3366,0.8503 2.8928,1.8896 1.3351,2.4948 -0.8698,3.0788 -11.6909,3.0967 -6.7955,0.011 -8.25,-0.2599 -8.25,-1.5383 z m 31.0172,-24.1981 c 0.031,-1.3588 -5.4671,-15.25 -6.0361,-15.25 -0.3062,0 -1.7369,3.6 -3.1794,8 l -2.6226,8 h 5.9104 c 3.2508,0 5.9182,-0.3375 5.9277,-0.75 z m -57.0172,23.6592 c -19.897,-3.4151 -31.2727,-20.6732 -25.3652,-38.4811 1.6083,-4.848 5.2976,-10.6989 8.3245,-13.20212 0.8474,-0.70075 3.7907,-2.47317 6.5407,-3.9387 4.1565,-2.2151 6.6216,-2.73581 14.6129,-3.08671 9.5093,-0.41755 19.3734,1.33261 22.6371,4.01647 0.7814,0.64257 1.25,3.63223 1.25,7.97496 0,6.4915 -0.1377,6.9261 -2.0994,6.6276 -1.4128,-0.2151 -2.5296,-1.577 -3.4148,-4.1644 -2.6596,-7.77388 -9.3487,-11.50261 -18.2426,-10.1689 -5.6841,0.85238 -11.2222,5.7822 -14.3483,12.7721 -5.381,12.0318 -1.8942,29.6059 6.8322,34.436 8.7243,4.8289 16.0034,3.6909 22.3244,-3.4902 2.6361,-2.9947 4.4208,-4.2368 5.4952,-3.8245 1.8554,0.712 1.4161,2.6894 -2.1931,9.8704 -2.205,4.3872 -2.6724,4.7508 -6.1205,4.761 -2.0532,0.01 -5.3081,0.198 -7.2331,0.4266 -1.925,0.2285 -5.975,-0.01 -9,-0.5285 z m 88,-1.6857 c 0,-1.0964 1.125,-2.7305 2.5,-3.6314 1.6833,-1.103 2.5,-2.5546 2.5,-4.4436 0,-5.7339 -5.1264,-39.378 -6.2821,-41.22848 -0.7704,-1.23368 -2.3258,-1.91995 -4.3515,-1.91995 -2.0017,0 -3.3826,-0.59978 -3.783,-1.64313 -0.3468,-0.90372 -0.5074,-1.74793 -0.357,-1.87601 0.1505,-0.12809 4.2346,-1.13305 9.0758,-2.23325 7.1154,-1.61701 9.0455,-1.75699 10.0721,-0.73043 0.6984,0.69846 6.1513,7.87539 12.1175,15.94865 7.1844,9.7218 11.0871,14.2323 11.5566,13.3565 0.3899,-0.7273 2.1465,-8.7474 3.9036,-17.8223 1.7571,-9.07503 3.5718,-17.44613 4.0327,-18.60248 0.6324,-1.5867 2.3251,-2.39503 6.9003,-3.29515 3.3343,-0.65599 6.6888,-1.81906 7.4543,-2.58459 1.7667,-1.76668 23.8999,-11.04566 30.0281,-12.58874 2.5426,-0.64024 5.709,-0.95645 7.0364,-0.70269 1.4804,0.28298 2.2634,0.0384 2.0253,-0.6325 -0.3389,-0.95477 4.7767,-4.37886 18.8155,-12.5939 3.3494,-1.95991 3.8109,-2.01886 4.3713,-0.55837 0.3458,0.90114 -0.1,2.4357 -0.9947,3.42438 -0.8917,0.98532 -1.6212,2.57873 -1.6212,3.5409 0,2.5369 13.9061,25.42225 17.8437,29.36541 5.5968,5.60481 11.2334,6.69755 16.8577,3.26818 9.3605,-5.70744 8.1697,-16.03342 -3.9832,-34.54048 -7.8508,-11.95547 -7.7522,-11.87196 -13.0744,-11.07383 -3.7638,0.56441 -4.6438,0.41323 -4.6438,-0.79778 0,-1.56413 15.7415,-11.62839 18.188,-11.62839 0.7756,0 1.9962,-1.62063 2.7125,-3.60139 1.6974,-4.69406 7.538,-10.4643 13.526,-13.36306 l 4.7724,-2.31028 4.5435,4.54352 c 3.0657,3.06568 4.3408,5.07183 3.9203,6.16775 -0.5618,1.46391 -1.0161,1.42382 -4.6032,-0.40615 -5.4429,-2.77677 -10.1209,-2.62964 -13.4135,0.42186 -3.5972,3.33373 -3.6012,8.31985 -0.01,11.91139 3.0529,3.05291 3.8278,3.1068 15.8636,1.10323 11.3112,-1.88295 17.1862,-0.81694 21.0943,3.82752 2.2733,2.7017 2.7253,2.88601 3.5339,1.44112 2.6316,-4.7024 13.3411,-3.71647 17.2763,1.59048 3.9294,5.29906 1.4249,20.44507 -3.2123,19.42681 -0.9307,-0.20437 -1.5375,-1.01985 -1.3484,-1.81219 2.2285,-9.33845 0.5225,-12.18344 -7.0338,-11.72953 -4.7108,0.28299 -4.8096,0.35635 -4.8098,3.57216 -2e-4,4.49675 -4.2818,12.57594 -8.2356,15.54053 -4.3634,3.27197 -11.2535,6.67623 -13.512,6.67623 -2.6737,0 -11.6764,-9.45231 -10.9085,-11.45336 0.5533,-1.44187 1.0214,-1.40103 4.5448,0.39648 13.8578,7.06973 26.775,-1.48809 18.2135,-12.06667 -1.6728,-2.06696 -2.7489,-2.36733 -8.2627,-2.30645 -3.4866,0.0385 -9.5074,0.43334 -13.3794,0.87743 -6.1905,0.71 -7.5463,0.54916 -11.2354,-1.33286 -4.8496,-2.47408 -7.313,-5.77101 -8.1822,-10.95065 l -0.6149,-3.66392 -1.8771,2.82384 c -1.8521,2.78621 -1.847,2.88614 0.3831,7.5 1.2431,2.57189 4.4722,8.34788 7.1757,12.83555 2.7036,4.48766 5.5851,10.05674 6.4033,12.37572 1.8644,5.28436 1.9124,13.03898 0.1068,17.24701 -3.2046,7.46836 -14.0046,14.01361 -23.0864,13.99121 -9.2385,-0.023 -13.4075,-3.93302 -24.9128,-23.36667 -7.7417,-13.07665 -9.3442,-14.71723 -13.0036,-13.31296 -1.2432,0.47705 -0.988,1.0642 1.2987,2.98838 3.8843,3.26837 6.0849,8.30181 6.0849,13.91792 0,8.88416 -5.0815,15.15454 -14.9173,18.40732 l -4.8159,1.59271 3.6166,7.4999 c 3.5343,7.3294 3.7007,7.5 7.3148,7.5 4.2773,0 6.6099,1.6208 4.5941,3.1923 -1.3514,1.0535 -18.6414,8.5243 -22.5473,9.7424 -3.5574,1.1094 -3.9677,-1.909 -0.6476,-4.7648 l 2.7859,-2.3964 -2.0838,-5.3868 c -10.5651,-27.31105 -17.5667,-40.98338 -19.0069,-37.11559 -0.2604,0.69907 -1.7827,1.94813 -3.383,2.77568 -1.9313,0.99875 -2.9096,2.27674 -2.9096,3.80105 0,3.62957 9.6189,40.48806 11.0005,42.15286 0.6844,0.8246 2.5393,1.4993 4.1219,1.4993 2.169,0 2.8776,0.4719 2.8776,1.9162 0,1.6161 -1.7262,2.3211 -11.0188,4.5001 -6.0603,1.4211 -11.9103,2.5838 -13,2.5838 -2.815,0 -2.4648,-2.8225 0.5188,-4.182 1.8755,-0.8545 2.5034,-1.9109 2.5137,-4.2286 0.015,-3.4732 -7.133,-34.80348 -7.7908,-34.14571 -0.2324,0.23246 -2.3033,10.46151 -4.6018,22.73131 -3.2359,17.2733 -4.5342,22.3772 -5.7521,22.6117 -1.0609,0.2043 -5.7526,-5.7248 -14.4139,-18.2158 -7.0625,-10.1852 -12.9942,-18.3653 -13.1815,-18.178 -0.6249,0.6249 5.5877,30.5452 6.9241,33.347 1.0362,2.1724 2.1134,2.8262 5.0594,3.0705 2.7966,0.2319 3.7429,0.7576 3.7429,2.0797 0,1.4085 -1.6822,2.1248 -8.25,3.5129 -4.5375,0.9591 -9.2625,1.9845 -10.5,2.2788 -1.7598,0.4184 -2.25,0.1007 -2.25,-1.4584 z m 91.75,-54.81684 c 4.4033,-4.9281 1.816,-15.70356 -4.981,-20.74359 -2.2815,-1.69176 -3.3495,-1.87181 -6.4894,-1.09402 -2.3308,0.57739 -3.8872,1.60581 -4.0975,2.70755 -0.1864,0.97709 1.6088,6.50321 3.9894,12.28026 4.0868,9.91717 4.4681,10.47202 6.8285,9.93582 1.375,-0.31235 3.5125,-1.70106 4.75,-3.08602 z m -226.25,48.09444 c -0.55,-0.1876 -8.65,-2.4258 -18,-4.9739 -9.35,-2.548 -17.675,-4.9021 -18.5,-5.2311 -0.825,-0.329 -2.1237,-0.7244 -2.886,-0.8786 -0.7622,-0.1542 -6.2627,-2.3884 -12.2232,-4.9647 -9.514,-4.1122 -10.7201,-4.9033 -9.8772,-6.4783 0.5788,-1.0815 1.6883,-1.6037 2.7931,-1.3148 2.998,0.784 4.3259,-1.9609 3.9957,-8.259 l -0.3024,-5.7681 -6.7879,-2.9757 -6.7878,-2.97586 -3.5442,3.40956 c -5.4145,5.2085 -5.807,6.432 -2.9231,9.1105 1.7288,1.6057 2.2076,2.7307 1.5876,3.7308 -0.7379,1.1905 -2.3619,0.8079 -9.631,-2.2692 -11.502,-4.8689 -31.5972,-17.51149 -31.1635,-19.60602 0.1976,-0.95417 1.0824,-1.40168 2.2861,-1.1563 5.2542,1.07108 5.8867,0.64669 11.6913,-7.84538 3.1748,-4.64479 5.7725,-8.76335 5.7725,-9.15236 0,-1.15837 -19.3883,-13.23578 -19.7145,-12.28059 -0.1649,0.48291 -2.3366,4.02802 -4.826,7.87802 -5.558,8.59593 -6.2526,10.9662 -3.9568,13.50305 1.6533,1.82685 1.4167,5.54487 -0.3074,4.83011 -0.442,-0.18324 -5.3874,-3.25816 -10.9899,-6.83316 -6.46,-4.12222 -10.085,-7.04872 -9.9096,-8 0.1673,-0.90717 1.0528,-1.34179 2.2404,-1.09969 6.0106,1.22528 5.0977,2.22685 22.3182,-24.48374 6.7181,-10.42045 8.5619,-15.42322 6.218,-16.87183 -0.5102,-0.31531 -2.3981,1.47421 -4.1952,3.97672 -3.3333,4.64146 -6.6542,5.702 -6.0755,1.94023 1.3523,-8.79003 1.3185,-11.32847 -0.1894,-14.24439 -4.4806,-8.66452 -15.2592,-11.58179 -25.0654,-6.78404 -9.1335,4.46857 -16.8094,14.90669 -18.149,24.67985 -0.5016,3.65983 -0.1355,5.47133 1.9295,9.54628 4.1875,8.26369 10.8876,11.21789 20.0232,8.82862 8.6771,-2.26938 9.1619,1.69835 0.7296,5.97133 -6.2597,3.17201 -7.1626,3.16272 -12.7838,-0.13149 -20.8814,-12.23734 -26.5028,-35.28915 -12.2964,-50.42482 13.7065,-14.60321 36.5914,-11.75775 51.0052,6.34187 3.0316,3.80686 12.8871,11.7551 14.5758,11.7551 0.2091,0 2.8639,1.58883 5.8995,3.53073 6.7289,4.30436 7.4417,6.96982 1.6001,5.98289 l -3.9194,-0.66218 -5.2201,7.73574 c -4.491,6.65548 -5.0045,7.88776 -3.6768,8.82428 2.621,1.84872 5.0043,3.4165 11.4003,7.49941 6.9384,4.4291 6.3736,4.608 11.6763,-3.69838 4.5104,-7.0653 4.9347,-8.93683 2.5638,-11.30774 -2.1487,-2.14876 -1.8564,-5.4839 0.4047,-4.61625 0.7109,0.2728 5.8997,3.51466 11.5307,7.20412 8.2691,5.41799 10.0181,6.97327 9.094,8.08674 -0.8191,0.98694 -1.6639,1.10047 -2.9734,0.39963 -3.7125,-1.98686 -5.0668,-0.90612 -11.6183,9.27101 -3.6291,5.6375 -8.6445,13.39244 -11.1453,17.23321 -6.2955,9.66876 -7.0499,11.91701 -4.8239,14.37682 2.4897,2.7509 6.3884,3.5261 9.0298,1.7954 1.2052,-0.7897 10.495,-9.58 20.6441,-19.53415 14.8455,-14.56041 18.9905,-18.10068 21.2029,-18.10987 1.9608,-0.008 2.7469,0.49081 2.7392,1.73859 -0.01,0.9625 -0.6806,13.08413 -1.4992,26.93695 -1.4765,24.98448 -1.2843,28.58418 1.6558,31.01458 2.1281,1.7592 8.6931,2.677 10.2003,1.4261 1.4336,-1.1898 1.6311,-1.784 7.52,-22.6277 6.2239,-22.02966 6.1997,-21.07463 0.6339,-24.96672 -1.511,-1.0566 -1.719,-1.68385 -0.8506,-2.56528 0.8743,-0.88754 4.1047,-0.34813 13.5,2.2542 10.3486,2.86641 12.3506,3.73352 12.3506,5.3494 0,1.49209 -0.5937,1.85945 -2.6236,1.62347 -1.443,-0.16775 -3.2948,0.36624 -4.1152,1.18664 -0.8204,0.8204 -3.3385,8.15765 -5.5957,16.30489 -8.0927,29.2101 -8.0559,28.4166 -1.4038,30.2642 6.7774,1.8822 9.1632,1.3597 13.4736,-2.9508 4.9427,-4.9427 7.2727,-5.2903 6.4058,-0.9556 -0.3349,1.6745 -1.7839,5.0496 -3.22,7.5001 -2.3888,4.0762 -3.9515,4.9695 -6.9211,3.9566 z m -52.5876,-57.30803 0.088,-4.307 -5.75,6.18332 c -3.1625,3.40082 -5.8621,6.46397 -5.999,6.807 -0.1369,0.34302 2.1131,1.58817 5,2.76698 l 5.249,2.14331 0.6623,-4.64331 c 0.3644,-2.55381 0.7019,-6.58145 0.75,-8.9503 z m 119.0311,-6.25081 c -25.0711,-1.30054 -56.0632,-7.43495 -81.4435,-16.1205 -104.5774,-35.78802 -182.3414,-123.34192 -205.9005,-231.82169 -7.2184,-33.23769 -8.6253,-76.61894 -3.6159,-111.5 4.1513,-28.90669 13.9093,-61.28264 26.6157,-88.30782 37.8509,-80.50518 109.8409,-142.35743 194.6346,-167.22582 32.4081,-9.5047 53.0647,-12.38104 89.2661,-12.4299 16.911,-0.0228 30.5498,0.45165 36.5,1.26981 16.8189,2.31262 32.2283,5.21753 43.5,8.20043 119.8847,31.72596 209.1263,128.93643 230.4181,250.9933 5.8356,33.45348 5.4173,80.4797 -1.0007,112.5 -16.8946,84.28894 -63.5149,154.32197 -134.9253,202.68467 -29.0085,19.646 -67.9945,36.40052 -103.0397,44.28207 -20.3193,4.56974 -32.5351,6.33076 -52.2213,7.52815 -17.5232,1.06581 -17.2173,1.06623 -38.7876,-0.0527 z m 44.6612,-2.95079 c 15.7479,-1.23173 24.9732,-2.48685 37.3953,-5.08771 88.6716,-18.56557 164.1303,-73.1633 208.8795,-151.13374 20.3577,-35.47102 33.5916,-75.48107 38.6002,-116.70066 7.4081,-60.96613 -3.2246,-122.66935 -30.5283,-177.16106 -37.3884,-74.61814 -103.8535,-131.88374 -182.4514,-157.1981 -53.6224,-17.27039 -106.9552,-19.80615 -164.5,-7.82131 -35.2562,7.34279 -79.9261,26.92389 -109.3423,47.9303 -19.7091,14.07448 -26.7963,20.11424 -44.1577,37.63155 -54.3785,54.86664 -84.1513,121.6867 -89.6557,201.21729 -1.8775,27.12624 1.3012,63.82947 7.7798,89.83204 18.6477,74.84413 60.9409,137.51506 122.5884,181.65384 59.2015,42.38753 132.1271,62.56802 205.3922,56.83756 z m -8.1047,-19.50645 c -3.85,-7.50253 -7.2287,-13.79014 -7.5081,-13.97247 -0.2795,-0.18233 -6.1405,-0.65238 -13.0244,-1.04456 l -12.5163,-0.71306 -2.9756,5.2827 c -1.6366,2.90548 -3.6558,6.44814 -4.4872,7.87257 -0.8314,1.42443 -3.0252,5.2182 -4.8753,8.4306 -3.3564,5.82807 -3.3727,5.83976 -7.4884,5.39314 -4.8017,-0.52104 -19.7844,-3.34197 -24.0788,-4.53355 -2.7302,-0.75753 -3.0484,-1.34573 -4.1971,-7.75999 -0.6836,-3.81718 -1.5181,-8.96533 -1.8543,-11.44033 -1.3284,-9.77877 -2.6002,-12.99387 -5.3786,-13.59775 -1.4388,-0.31271 -6.6262,-2.0876 -11.5277,-3.9442 l -8.9118,-3.37565 -6.0778,5.2088 c -10.097,8.65323 -12.864,11.12791 -14.4894,12.9588 -1.8478,2.0812 -5.8903,2.27454 -8.6367,0.41307 -1.0849,-0.73532 -5.5173,-3.24226 -9.8498,-5.57099 -12.8688,-6.91706 -11.8055,-5.63288 -11.2546,-13.59208 0.2665,-3.85 1.115,-10.6 1.8857,-15 0.7707,-4.4 1.2151,-8.53824 0.9874,-9.1961 -0.2276,-0.65785 -4.1168,-3.88645 -8.6426,-7.17467 -4.5258,-3.28821 -8.8003,-6.66731 -9.4989,-7.50912 -0.8792,-1.05925 -1.7829,-1.25133 -2.935,-0.62377 -0.9156,0.49873 -3.4647,1.66323 -5.6647,2.58779 -2.2,0.92455 -5.8,2.48268 -8,3.4625 -2.2,0.97982 -6.2265,2.77195 -8.9478,3.98251 l -4.9477,2.20101 -10.3023,-10.72239 c -5.6662,-5.89732 -10.3022,-11.57323 -10.3022,-12.61314 0,-1.03991 2.9365,-7.69824 6.5255,-14.79629 l 6.5256,-12.90555 -5.647,-7.84639 c -3.1058,-4.31551 -6.1033,-8.83413 -6.661,-10.04138 -1.4837,-3.21162 -2.9828,-3.45087 -13.0957,-2.09009 -12.8861,1.73392 -20.704,1.65675 -21.7735,-0.21492 -2.3513,-4.1151 -11.8739,-24.82587 -11.8739,-25.82479 0,-0.63146 4.725,-5.8332 10.5,-11.55942 5.775,-5.72622 10.5,-11.16923 10.5,-12.09558 0,-0.92635 -1.0824,-4.90985 -2.4054,-8.85224 -1.3229,-3.94238 -2.6926,-8.85184 -3.0438,-10.90991 -0.4757,-2.78812 -1.2008,-3.85569 -2.8446,-4.18819 -7.9026,-1.59846 -23.7662,-5.14167 -27.9562,-6.24418 -1.192,-0.31365 -1.75,-1.45039 -1.75,-3.56515 0,-1.70757 -0.7012,-6.8465 -1.5582,-11.41984 -0.8569,-4.57334 -1.4194,-10.21871 -1.25,-12.54526 0.3395,-4.65987 -1.2876,-3.49991 21.3082,-15.19102 l 6,-3.10442 0.3028,-6.5 c 0.1665,-3.575 0.6165,-6.81479 1,-7.19954 0.3834,-0.38474 10.0896,-0.77235 21.5693,-0.86135 15.7847,-0.12238 21.0609,0.14346 21.6462,1.09063 0.4258,0.68884 1.2956,6.47645 1.9329,12.86135 0.6374,6.3849 1.342,12.95891 1.5658,14.60891 1.337,9.85557 2.3192,15.42598 2.8799,16.33322 0.3512,0.56823 1.0516,2.97571 1.5565,5.34996 1.6045,7.5454 6.7461,23.37193 8.9601,27.58045 0.5024,0.955 3.2335,6.53203 6.0691,12.39339 4.8962,10.12078 14.9334,26.03098 22.6121,35.84298 5.3433,6.82775 26.2509,27.63991 31.9053,31.75961 2.75,2.0036 6.0738,4.67735 7.3863,5.94165 1.3125,1.26431 2.7429,2.29874 3.1786,2.29874 0.4357,0 1.4089,0.61665 2.1625,1.37033 0.7537,0.75367 2.6984,2.11736 4.3215,3.03041 1.6231,0.91304 4.3011,2.51795 5.9511,3.56645 4.3887,2.78881 18.9756,10.03281 20.2026,10.03281 0.5788,0 1.6127,0.675 2.2974,1.5 0.6847,0.825 2.3148,1.5 3.6224,1.5 1.3077,0 2.3776,0.45 2.3776,1 0,0.55 1.035,1 2.3,1 1.265,0 2.7849,0.48498 3.3777,1.07774 0.5928,0.59275 2.8203,1.51831 4.95,2.05679 2.1297,0.53848 5.6545,1.42706 7.8329,1.97462 2.1783,0.54757 4.4283,1.3714 5,1.83073 0.5716,0.45934 2.8394,1.08956 5.0394,1.40048 7.9856,1.12862 16.086,2.58907 20,3.60588 5.1306,1.33288 51.21,1.39217 55.0841,0.0709 1.6037,-0.54696 5.8409,-1.4517 9.4159,-2.01052 11.9771,-1.8722 15.4865,-2.63074 17.6842,-3.82231 1.2014,-0.65137 3.3123,-1.1843 4.691,-1.1843 1.3787,0 2.7848,-0.45 3.1248,-1 0.3399,-0.55 1.8863,-1 3.4365,-1 1.5502,0 3.3788,-0.675 4.0635,-1.5 0.6847,-0.825 2.0959,-1.5 3.136,-1.5 1.0401,0 2.6725,-0.4073 3.6275,-0.90512 0.9551,-0.49781 6.9115,-3.44686 13.2365,-6.55343 6.325,-3.10658 12.85,-6.51759 14.5,-7.58004 1.65,-1.06244 3.9,-2.35593 5,-2.87442 1.1,-0.51849 4.2974,-2.66267 7.1054,-4.76485 2.8079,-2.10218 7.7579,-5.81439 11,-8.24936 8.5368,-6.41167 24.7129,-22.46909 30.7167,-30.49131 2.8478,-3.80519 6.7275,-8.98019 8.6214,-11.5 5.7517,-7.65231 15.2627,-24.36321 19.3974,-34.08147 0.819,-1.925 2.6523,-6.14349 4.0741,-9.37443 1.4217,-3.23094 2.585,-6.64344 2.585,-7.58333 0,-0.9399 0.3218,-2.03071 0.7151,-2.42402 1.3893,-1.38927 4.7292,-14.70814 6.211,-24.76826 0.4578,-3.10753 1.1945,-6.23611 1.6372,-6.9524 0.4427,-0.7163 1.1084,-7.50096 1.4793,-15.07702 0.4312,-8.80738 1.136,-14.33087 1.9545,-15.31708 1.0931,-1.31712 4.364,-1.50306 22.3915,-1.27294 l 21.1114,0.26947 0.2781,13.12046 c 0.3117,14.70298 0.035,14.10569 8.7219,18.85269 2.75,1.50281 8.2971,4.77932 12.327,7.28112 6.1751,3.83364 7.2308,4.87864 6.7149,6.64723 -0.3366,1.15418 -1.0416,4.5735 -1.5666,7.5985 -0.525,3.025 -1.4092,7.07203 -1.965,8.9934 -0.5557,1.92137 -1.0103,4.94303 -1.0103,6.71481 0,4.62916 -0.3615,4.76308 -22.5,8.33633 -9.722,1.56916 -10.5,1.85451 -10.5,3.85067 0,0.96824 -1.575,5.77232 -3.5,10.67573 -1.925,4.90342 -3.4857,9.5934 -3.4682,10.42218 0.04,1.90744 0.7415,2.80773 10.4682,13.43848 4.4,4.80899 8.3801,9.54562 8.8447,10.52583 0.5905,1.24592 0.1095,2.94979 -1.5986,5.66239 -1.3438,2.1341 -4.3926,7.62026 -6.775,12.19146 -2.3824,4.5712 -5.0406,8.69069 -5.907,9.15442 -0.8665,0.46373 -3.8229,0.47325 -6.5698,0.0212 -25.8025,-4.24664 -23.7645,-4.61478 -31.4943,5.68924 -3.575,4.76553 -6.9293,9.23365 -7.4539,9.92915 -0.6161,0.81687 -0.5469,2.08414 0.1954,3.57965 0.6321,1.2733 2.0261,4.3401 3.0977,6.8151 1.0717,2.475 3.3463,7.59974 5.0546,11.38832 1.7084,3.78857 3.1062,7.3912 3.1062,8.00585 0,1.84929 -20.8812,20.60579 -22.94,20.60579 -1.05,0 -7.6551,-2.92589 -14.6779,-6.50199 l -12.7689,-6.50198 -4.0566,2.75198 c -2.2312,1.5136 -4.5066,3.09973 -5.0566,3.52476 -0.55,0.42502 -3.6178,2.60899 -6.8174,4.85327 -4.1387,2.90302 -5.6426,4.53595 -5.2117,5.65883 0.3331,0.86809 0.8528,5.65911 1.1548,10.64673 0.302,4.98762 0.9413,10.59513 1.4205,12.46112 0.5243,2.04143 0.4912,4.10308 -0.083,5.17623 -0.9248,1.72791 -24.6057,13.93105 -27.0341,13.93105 -1.0952,0 -13.5672,-11.53385 -19.7344,-18.25 -2.6587,-2.89538 -4.6154,-3.32788 -8.3976,-1.85622 -1.2634,0.49158 -4.997,1.68 -8.297,2.64094 -11.508,3.35106 -11.0879,3.03863 -12.4751,9.27653 -0.6957,3.12881 -1.8633,8.16375 -2.5944,11.18875 -0.7312,3.025 -1.5969,7.18387 -1.9238,9.24194 -0.4824,3.03745 -1.1038,3.85509 -3.3005,4.34295 -1.4884,0.33055 -3.4946,0.81476 -4.4581,1.07603 -0.9635,0.26127 -5.2385,0.89897 -9.5,1.41712 -4.2615,0.51815 -9.3231,1.19089 -11.2481,1.49498 l -3.5,0.55289 z m -21.7113,-93.83907 c -1.2556,-1.25558 -1.5461,-20.38386 -2.1007,-138.30149 l -0.6437,-136.84439 -2.7231,-2 c -4.3578,-3.20063 -8.3212,-7.8035 -8.3212,-9.66384 0,-0.94497 -0.45,-1.99624 -1,-2.33616 -2.0853,-1.28879 -1.0942,-10.55626 1.6726,-15.63978 2.8165,-5.17496 6.2879,-7.87654 13.2994,-10.35037 11.2236,-3.9599 25.028,7.0618 25.028,19.98284 0,2.34468 -0.6475,5.81273 -1.4389,7.70676 -1.5895,3.80421 -6.9051,9.45754 -9.7378,10.35663 -1.0003,0.31747 -2.0538,1.55973 -2.3411,2.76057 -0.2873,1.20084 -0.8508,63.60835 -1.2523,138.68335 l -0.7299,136.5 -4.1271,0.30149 c -2.6291,0.19206 -4.656,-0.2274 -5.5842,-1.15561 z m 8.3825,-291.30087 c 3.8181,-3.45529 1.2453,-9.34501 -4.0821,-9.34501 -1.9959,0 -3.0919,0.71059 -3.9286,2.54705 -1.5466,3.39443 -1.4674,4.45644 0.4945,6.62421 2.0581,2.27423 5.1171,2.34495 7.5162,0.17375 z m -32.7029,288.30637 c -1.2652,-1.80632 -1.4683,-14.76201 -1.4683,-93.63402 V 673.3278 l -18.3082,-18.28807 c -17.6944,-17.67507 -18.4005,-18.25293 -21.0651,-17.23986 -9.6203,3.65766 -21.4555,-2.89878 -25.1137,-13.91248 -1.4938,-4.49749 -1.5553,-5.83318 -0.4546,-9.87034 4.3744,-16.04443 22.2954,-21.43148 34.2808,-10.30482 5.4137,5.02577 7.7653,13.25908 5.6327,19.72093 l -1.1969,3.62656 20.1125,20.19983 20.1125,20.19983 v 95.63533 c 0,75.41568 -0.2643,95.80417 -1.25,96.43391 -0.6875,0.43922 -3.1768,0.85903 -5.5317,0.93291 -3.309,0.10381 -4.6151,-0.34187 -5.75,-1.96208 z m -41.8009,-237.26661 c 1.5355,-2.34341 1.5604,-2.88909 0.2397,-5.25 -2.734,-4.8872 -9.9071,-3.56294 -9.9071,1.82899 0,5.94772 6.5038,8.24924 9.6674,3.42101 z m 88.8863,238.70224 c -0.2375,-0.38442 -0.5178,-44.14915 -0.6227,-97.25495 l -0.1908,-96.55601 19.0666,-18.95456 19.0666,-18.95456 -0.1167,-8.5233 c -0.1084,-7.91427 0.093,-8.81759 2.8133,-12.64187 3.9988,-5.62099 10.7562,-9.20176 17.365,-9.20176 17.9011,0 26.9022,22.42602 14.0191,34.92862 -5.6391,5.47254 -14.6548,7.49559 -20.9718,4.70591 -1.0783,-0.47615 -6.7887,4.62876 -19.72,17.62885 l -18.2023,18.29909 -0.044,92.4332 c -0.026,53.67706 -0.4235,92.81223 -0.9484,93.33718 -1.0954,1.09536 -10.9054,1.73794 -11.5134,0.75416 z m 60.6175,-237.742 c 3.8486,-3.48294 1.4795,-9.34501 -3.7768,-9.34501 -2.4335,0 -5.3944,2.92353 -5.3944,5.32625 0,4.79296 5.6029,7.24809 9.1712,4.01876 z m -123.6712,234.38678 c -1.65,-0.51092 -4.125,-1.46425 -5.5,-2.11852 l -2.5,-1.18958 -0.2597,-46.97708 -0.2596,-46.97709 -33.4518,-33.44061 -33.4518,-33.44062 -7.955,0.27118 c -7.0493,0.24031 -8.4108,-0.0166 -11.9588,-2.25638 -2.2022,-1.39016 -5.2773,-4.19702 -6.8336,-6.23748 -2.5427,-3.33356 -2.8297,-4.49464 -2.8297,-11.44495 0,-7.14563 0.2342,-8.02444 3.0742,-11.53337 4.7015,-5.80886 8.7974,-7.71792 16.6524,-7.76163 5.8907,-0.0328 7.2577,0.33544 11,2.96286 5.5986,3.93071 8.8762,9.90429 8.9255,16.26701 0.021,2.70626 -0.3939,5.75837 -0.9219,6.78247 -0.528,1.0241 -0.7832,2.34984 -0.5671,2.94608 0.2161,0.59624 16.5803,17.24598 36.3649,36.99941 l 35.972,35.91534 v 50.12814 c 0,38.92768 -0.2793,50.34103 -1.25,51.08095 -0.7807,0.59504 -2.3765,0.604 -4.25,0.0239 z m -80.8326,-180.34702 c 1.5373,-2.34619 1.5615,-2.88628 0.2347,-5.25 -1.1479,-2.04526 -2.2448,-2.63477 -4.9021,-2.63477 -2.6574,0 -3.7542,0.58951 -4.9022,2.63477 -1.3267,2.36372 -1.3026,2.90381 0.2347,5.25 1.2078,1.84334 2.5854,2.61523 4.6675,2.61523 2.082,0 3.4596,-0.77189 4.6674,-2.61523 z m 166.9992,180.94856 c -0.3666,-0.36666 -0.6666,-23.65185 -0.6666,-51.74486 v -51.07819 l 35.7004,-35.71076 35.7004,-35.71076 -1.2535,-4.89084 c -1.6018,-6.2501 -0.1698,-12.50175 4.031,-17.59809 4.365,-5.29554 8.1936,-6.96291 16.0483,-6.98914 5.8772,-0.0196 7.2652,0.35605 10.9915,2.97502 6.0722,4.26768 8.7451,9.46437 8.7654,17.04185 0.011,4.24282 -0.4449,6.51046 -1.4835,7.37244 -0.825,0.68469 -1.5,1.81817 -1.5,2.51885 0,1.08684 -2.3216,3.35605 -8.8136,8.61471 -0.7799,0.63174 -4.7379,0.9223 -9.7426,0.71522 l -8.429,-0.34878 -33.5074,33.4944 -33.5074,33.49441 v 46.25559 c 0,45.19842 -0.046,46.30214 -2.0365,48.29207 -1.1201,1.12007 -2.4899,1.75628 -3.044,1.41381 -0.5541,-0.34247 -2.0969,0.0911 -3.4283,0.96352 -2.7448,1.79843 -2.9067,1.83737 -3.8246,0.91953 z m 93.5046,-179.98832 c 2.3518,-2.12829 2.3188,-4.47393 -0.1019,-7.26511 -2.6062,-3.00489 -6.9984,-2.48884 -8.9783,1.05487 -1.3185,2.35984 -1.2933,2.90765 0.2415,5.25 2.0019,3.05532 6.039,3.49391 8.8387,0.96024 z m -271.4365,111.05637 c -0.4034,-0.40336 -7.4837,-0.63433 -15.7341,-0.51326 -10.2008,0.14969 -15.0006,-0.12509 -15.0006,-0.85875 0,-0.59338 1.125,-1.5066 2.5,-2.02937 2.4748,-0.94092 2.5,-1.07133 2.5,-12.94007 0,-10.96611 -0.1708,-12.08093 -2,-13.05993 -4.3445,-2.3251 -1.8924,-3.0628 9.25,-2.78275 l 11.25,0.28275 0.3103,3.75 c 0.3611,4.36255 -0.8807,4.8177 -3.2556,1.19323 -1.3675,-2.08711 -2.3344,-2.50042 -5.2634,-2.25 l -3.5881,0.30677 -3e-4,5 c -3e-4,4.74399 0.1447,5.0171 2.8307,5.33402 2.0395,0.24062 3.333,-0.31859 4.6265,-2 l 1.7954,-2.33402 0.1647,2.5 c 0.1691,2.5665 0.1593,6.77192 -0.02,8.43856 -0.055,0.51621 -1.0424,-0.0722 -2.1933,-1.30749 -2.8089,-3.01503 -7.4132,-2.62174 -7.2459,0.61893 0.064,1.2375 0.1662,3.825 0.2274,5.75 0.1076,3.39223 0.233,3.5 4.0721,3.5 4.0358,0 8.039,-2.83273 8.039,-5.68856 0,-2.36474 1.7642,-1.37627 3.8484,2.15626 2.2625,3.83471 6.3067,5.47837 8.6646,3.52152 2.4461,-2.03011 1.7636,-5.62525 -1.5498,-8.16316 -9.2347,-7.07344 -9.9632,-7.92952 -9.9632,-11.70715 0,-2.02064 0.6912,-4.66084 1.5361,-5.8671 2.1774,-3.10866 8.1399,-4.7114 12.7706,-3.43279 2.0313,0.56087 3.6929,0.71854 3.6925,0.35037 -8e-4,-0.76268 33.2641,-0.58716 42.7888,0.22578 10.8147,0.92303 15.212,5.21894 15.212,14.86124 0,11.11481 -6.2394,15.77052 -22.1625,16.53727 -9.9405,0.47867 -12.339,-0.38457 -7.8072,-2.80993 1.8945,-1.0139 2.0116,-1.89755 1.75,-13.20348 -0.1989,-8.59789 -0.6434,-12.2374 -1.5303,-12.5319 -0.8195,-0.27209 -1.25,0.64695 -1.25,2.6683 0,3.92792 -1.4947,3.97162 -2.8502,0.0833 -0.8539,-2.44959 -1.6058,-3 -4.0978,-3 h -3.052 v 13 c 0,12.33333 0.1025,13 2,13 1.1111,0 2,0.66667 2,1.5 0,1.19894 -1.4935,1.5 -7.441,1.5 -7.7774,0 -10.485,-1.31727 -6.1192,-2.97712 2.5598,-0.97319 2.5602,-0.97537 2.5602,-13.56146 v -12.58811 l -3.2431,0.31336 c -2.3881,0.23075 -3.5888,1.03835 -4.5545,3.06336 -1.7002,3.56495 -2.4161,3.46966 -5.6346,-0.75 -2.7515,-3.60732 -5.2733,-4.39455 -7.3678,-2.3 -2.2852,2.2852 -1.386,5.79238 1.9477,7.59651 5.0491,2.73247 9.5914,7.02798 10.2635,9.70585 0.7657,3.05083 -1.5877,8.98651 -4.095,10.32839 -2.6848,1.43687 -8.7251,2.42702 -9.5815,1.57063 z m 59.2686,-6.25092 c 7.6053,-7.60522 3.29,-23.15046 -6.4264,-23.15046 h -3.5769 v 12.33333 c 0,6.78334 0.3,12.63334 0.6666,13 1.6799,1.67986 6.6317,0.52215 9.3367,-2.18287 z m 178.4967,6.13371 c -1.1,-0.26611 -2.9539,-1.3623 -4.1198,-2.43598 -2.1047,-1.93826 -2.1236,-1.93755 -2.6564,0.0998 -0.4941,1.88945 -1.2966,2.05201 -10.1302,2.05201 -6.2642,0 -9.5936,-0.37873 -9.5936,-1.09131 0,-0.60022 2.2446,-3.38356 4.988,-6.18521 2.7434,-2.80164 5.7261,-7.02651 6.6282,-9.38859 1.5219,-3.98518 1.5211,-4.4763 -0.011,-6.81479 -2.0149,-3.07513 -4.4717,-3.19949 -8.023,-0.4061 -3.4513,2.71481 -4.5389,1.64858 -1.918,-1.88037 4.6986,-6.32673 12.7348,-6.91461 16.2183,-1.18644 l 1.7871,2.93866 1.2989,-2.42698 c 2.7694,-5.17462 11.1798,-5.72847 14.9133,-0.98209 2.4164,3.072 3.1183,3.05472 3.1183,-0.0768 v -2.5 h 10 c 6.0647,0 10,0.39739 10,1.0098 0,0.55539 -2.8877,7.19289 -6.4171,14.75 -6.0412,12.9354 -6.5962,13.75845 -9.4753,14.05171 l -3.0582,0.31152 3.796,-6.31152 c 2.0879,-3.47133 5.2598,-8.89901 7.0487,-12.06151 l 3.2526,-5.75 h -5.9184 c -7.6908,0 -9.2283,1.55964 -9.2283,9.36086 0,7.81928 -2.054,12.3459 -6.4319,14.17513 -1.9272,0.80521 -3.6309,1.41181 -3.786,1.34801 -0.1552,-0.0638 -1.1821,-0.33373 -2.2821,-0.59983 z m 4.6666,-4.53417 c 1.743,-3.17054 1.696,-20.00567 -0.062,-22.12369 -3.8211,-4.60414 -6.5756,1.6809 -5.8944,13.44939 0.5753,9.93672 3.1781,13.72743 5.9561,8.6743 z m -13.3939,-3 c 0.5696,-0.69961 0.7336,-2.92033 0.3725,-5.0435 l -0.6452,-3.79351 -4.9624,5.04351 -4.9625,5.0435 h 4.59 c 2.5245,0 5.0479,-0.5625 5.6076,-1.25 z m 43.5499,7.52822 c -3.5029,-0.64075 -4.9773,-3.05211 -3.0467,-4.98272 1.4722,-1.47216 1.8118,-1.46803 4.1289,0.0502 3.7051,2.42768 6.4766,2.09642 7.6199,-0.91079 0.5364,-1.4108 0.9753,-3.19327 0.9753,-3.96104 0,-2.199 -4.1219,-5.47055 -6.9386,-5.50713 l -2.5614,-0.0333 2.5,-1.96638 c 4.7128,-3.70691 5,-4.04983 5,-5.97132 0,-1.05897 -0.954,-2.43595 -2.12,-3.05995 -1.7344,-0.92826 -2.634,-0.75453 -4.9468,0.95541 -3.6692,2.7128 -4.656,1.06054 -1.5341,-2.56885 1.9843,-2.30693 3.2373,-2.82237 6.8606,-2.82237 2.4381,0 5.177,0.6176 6.0866,1.37244 2.2308,1.85142 2.1777,7.73494 -0.081,8.99912 -1.5669,0.87688 -1.47,1.17935 1,3.12227 2.923,2.29929 3.7187,7.29946 1.7476,10.98253 -2.0265,3.78652 -9.9227,7.17391 -14.69,6.30186 z M 453.48236,673.61983 c -1.65,-0.55851 -4.8151,-1.63564 -7.0335,-2.39362 -2.2184,-0.75798 -5.0097,-1.37814 -6.2029,-1.37814 -1.1932,0 -3.2032,-0.39841 -4.4666,-0.88536 -1.2634,-0.48695 -4.8845,-1.63495 -8.047,-2.5511 -6.5254,-1.89035 -6.8173,-2.7023 -4.337,-12.06354 1.3113,-4.94942 1.364,-4.99875 5.2059,-4.876 2.1346,0.0682 5.4561,0.57794 7.3811,1.13275 10.5774,3.04857 19.1404,5.24325 20.4576,5.24325 0.8219,0 5.5395,-4.07216 10.4835,-9.04925 9.9562,-10.02272 9.7656,-9.42011 6.3868,-20.20075 -1.0508,-3.35283 -2.0174,-4.75 -3.2862,-4.75 -2.7079,0 -9.0333,-2.87027 -13.6823,-6.20859 -4.7426,-3.4056 -9.3594,-11.12123 -9.3594,-15.64155 0,-3.39215 -1.9655,-4.93508 -8,-6.28019 -1.925,-0.42908 -4.625,-1.04875 -6,-1.37703 -2.1514,-0.51365 -3.8131,0.72617 -11.9159,8.89063 l -9.416,9.48751 1.7581,6.81461 c 1.951,7.56224 4.0817,15.1023 5.6837,20.11305 1.3664,4.27385 0.168,5.7285 -5.927,7.19471 -2.5756,0.61957 -5.6823,1.37453 -6.9038,1.67768 -2.9049,0.72095 -2.7598,1.07269 -8.7331,-21.17083 -0.8862,-3.3 -2.0104,-7.35 -2.4983,-9 -0.4878,-1.65 -1.1801,-4.86762 -1.5384,-7.15027 l -0.6514,-4.15027 16.0914,-16.21023 c 17.8372,-17.96883 15.7299,-16.90867 27.0507,-13.60854 3.025,0.88182 7.6414,2.09505 10.2588,2.69606 l 4.7588,1.09275 4.8308,-4.33475 c 6.0294,-5.41025 12.0497,-7.32024 20.5666,-6.52492 l 6.2388,0.5826 7.8989,-7.94543 7.8988,-7.94542 -7.1835,-7.25079 c -9.7998,-9.89156 -12.0096,-15.64686 -8.882,-23.13234 1.3888,-3.3237 104.9288,-107.90586 111.2683,-112.38816 2.1738,-1.53693 4.6035,-2.23028 7.8158,-2.23028 5.5131,0 7.7581,1.0209 12.7615,5.80326 3.939,3.76494 5.7904,3.73525 4.0588,-0.0651 -1.5883,-3.48598 0.9214,-18.05171 4.4379,-25.75688 1.6268,-3.56471 4.6525,-8.50629 6.7236,-10.98129 4.1517,-4.96137 13.7574,-12.09451 18.8065,-13.96558 1.7828,-0.66069 4.023,-1.61371 4.978,-2.11783 0.955,-0.50413 7.6204,-0.91659 14.8119,-0.91659 12.087,0 13.5055,0.20206 18.7636,2.67267 8.0168,3.76687 12.8839,7.131 17.8349,12.32733 5.3735,5.63991 11.4081,17.30764 12.0927,23.38109 0.548,4.86201 1.5153,5.49713 4.7016,3.08711 2.7816,-2.10393 9.9044,-1.81026 15.3637,0.63344 7.125,3.18929 158.7689,154.74514 163.253,163.15822 1.7224,3.23159 3.8765,6.11454 4.7869,6.40655 0.9104,0.29202 4.456,1.85896 7.8792,3.48209 11.3401,5.37706 20.5416,15.89849 25.3078,28.93837 2.4886,6.80835 2.7435,23.41065 0.4613,30.03739 -6.2406,18.12021 -18.707,29.65483 -37.2785,34.4921 -17.6866,4.60678 -39.7736,-3.64785 -50.5506,-18.89245 -4.6067,-6.51637 -7.0616,-11.36233 -8.0861,-15.96176 -0.4308,-1.93426 -1.8526,-3.35677 -4.8438,-4.84658 -2.8697,-1.42923 -28.8261,-26.64812 -80.5508,-78.26216 -41.9742,-41.88438 -77.7014,-77.87485 -79.3938,-79.97884 -1.6923,-2.10398 -3.6431,-5.47898 -4.335,-7.5 -1.2502,-3.65156 -1.2994,-3.6777 -7.8572,-4.17457 -7.1558,-0.54218 -7.3267,-0.39088 -5.4944,4.86514 2.396,6.8732 1.6138,7.78816 -56.4123,65.98408 -30.9524,31.04306 -55.5704,54.94992 -57.4084,55.75 -4.3348,1.88695 -11.2819,1.76962 -14.3096,-0.24168 -1.3599,-0.90335 -5.739,-4.83351 -9.7313,-8.73367 l -7.2587,-7.09122 -8.1349,8.13485 -8.1348,8.13484 1.158,4.59883 c 1.9166,7.6117 -1.0881,16.96379 -7.6519,23.81599 -3.9494,4.12293 -3.9716,2.90987 0.307,16.78283 0.7634,2.475 1.6914,6.23568 2.0624,8.35706 l 0.6744,3.85706 -15.8696,15.89294 c -14.6888,14.71031 -16.131,15.88502 -19.3814,15.78656 -1.9315,-0.0585 -4.8617,-0.56335 -6.5117,-1.12186 z m 447.5543,-37.8066 c 12.4919,-8.01603 11.3457,-26.76949 -2.0543,-33.61122 -8.51,-4.345 -14.893,-2.80109 -22.5,5.4423 -4.9681,5.38365 -5,5.46119 -4.9974,12.14235 0,5.83526 0.376,7.21356 2.827,10.42687 4.5993,6.03004 9.2458,8.50767 16.0828,8.57571 4.9375,0.0491 6.6923,-0.44161 10.6419,-2.97601 z m -423.8672,-32.3989 c 8.1487,-3.40474 7.3152,-15.13706 -1.2579,-17.70562 -4.645,-1.39165 -8.7769,0.58439 -11.3976,5.45075 -1.6458,3.05601 -1.7083,3.84789 -0.5288,6.69553 1.2581,3.0373 6.1248,6.98106 8.625,6.98934 0.6204,0.002 2.6721,-0.64144 4.5593,-1.43 z m 201.6571,-178.31625 c 4.6879,-3.03722 9.1558,-10.89631 9.1558,-16.10517 0,-3.75321 -3.0846,-10.91472 -6.0321,-14.00503 -4.4974,-4.71517 -13.0145,-6.42081 -20.8463,-4.17467 -4.6967,1.34698 -10.7112,7.79709 -12.1082,12.98501 -2.2189,8.24029 0.8691,15.95218 8.5,21.22747 3.339,2.30825 5.0506,2.76134 10.5364,2.78917 5.4831,0.0278 7.2411,-0.41465 10.7944,-2.71678 z m 257.5125,511.23726 c -0.3193,-0.83201 -0.046,-2.15724 0.6082,-2.94496 2.7478,-3.311 0.6258,-5.95342 -15.8893,-19.78587 -9.0335,-7.56604 -17.1458,-13.75644 -18.0275,-13.75644 -0.8817,0 -2.555,0.66673 -3.7184,1.48162 -1.7519,1.22708 -2.305,1.25314 -3.2191,0.15167 -0.8495,-1.0236 -0.01,-2.58875 3.6428,-6.79478 2.6106,-3.00565 7.4466,-8.7326 10.7466,-12.72656 6.5607,-7.94042 15.6267,-14.6699 21.1625,-15.70841 5.1049,-0.95769 13.7051,0.15205 16.9983,2.19341 5.1634,3.20054 10.4753,8.83254 13.1129,13.90305 2.072,3.98304 2.6081,6.44572 2.6358,12.10807 0.031,6.24949 -0.4144,8.00093 -3.6845,14.5 -3.5747,7.1044 -20.7888,28.89193 -22.8272,28.89193 -0.5283,0 -1.2218,-0.68073 -1.5411,-1.51273 z m 15.6391,-21.32925 c 5.7467,-5.74675 6.1824,-15.33176 1.0637,-23.40312 -7.4057,-11.67752 -21.9846,-17.7315 -31.6523,-13.14385 -3.7281,1.76908 -9.4072,7.68288 -9.4072,9.79588 0,2.3657 32.8252,29.59307 35.6773,29.59307 0.8121,0 2.7554,-1.27889 4.3185,-2.84198 z m -569.9601,11.38501 c -0.8222,-0.99069 -1.0446,-2.71715 -0.6176,-4.79551 1.2088,-5.88486 9.5819,-50.65868 9.5819,-51.23808 0,-0.68145 -14.2419,11.03102 -21.6857,17.83425 -5.6753,5.18694 -6.26,6.8612 -3.6814,10.54263 1.3686,1.95397 1.4091,2.47311 0.25,3.2072 -0.7606,0.48172 -1.6079,0.88179 -1.8829,0.88904 -0.8636,0.0228 -13,-15.74808 -13,-16.89305 0,-1.522 3.1342,-1.303 5.3472,0.37361 2.1775,1.64979 3.6264,1.2259 9.6528,-2.82394 4.5511,-3.05846 7.6301,-5.52278 20.75,-16.60746 7.5711,-6.39663 8.6736,-8.77926 6.025,-13.02033 -0.9768,-1.56411 -0.9594,-2.21976 0.086,-3.23643 1.0695,-1.04028 2.0448,-0.44665 5.2989,3.22504 6.7116,7.57287 6.8191,7.83909 5.6498,14 -3.1531,16.61312 -7.2627,43 -6.697,43 0.8409,0 18.7771,-15.05158 21.295,-17.8702 1.7038,-1.90728 1.7756,-2.57523 0.673,-6.25554 -2.1908,-7.3122 0.1552,-6.77209 7.0723,1.62823 3.491,4.23948 6.4846,8.2938 6.6526,9.00959 0.4997,2.12997 -1.7978,2.80478 -3.6971,1.08588 -3.6511,-3.30415 -5.8831,-1.98761 -29.8999,17.63628 -7.3103,5.97323 -13.8757,11.0846 -14.5897,11.3586 -0.7141,0.274 -1.8764,-0.19842 -2.583,-1.04981 z m 596.7345,-40.10608 c -0.3096,-0.30968 -0.3565,-2.22218 -0.104,-4.25 0.4186,-3.36244 0.136,-3.89198 -3.2108,-6.01641 -9.9038,-6.28657 -34.3443,-20.17054 -35.5071,-20.17054 -0.7257,0 -2.3669,0.98404 -3.6471,2.18676 -1.7164,1.6124 -2.6215,1.89295 -3.4463,1.06815 -0.8248,-0.82479 0.5576,-4.02358 5.2632,-12.17884 3.51,-6.08314 6.6069,-11.05692 6.8819,-11.05285 0.275,0.004 1.1089,0.39329 1.8532,0.86492 1.0373,0.6573 1.0965,1.33726 0.2536,2.91224 -0.6048,1.13011 -0.8304,2.7565 -0.5012,3.61422 0.5426,1.4142 15.319,11.09196 15.8562,10.38496 0.1251,-0.16476 2.7639,-4.56705 5.8638,-9.78287 6.4703,-10.88656 6.6353,-10.19558 -3.6971,-15.48685 -5.3497,-2.73967 -7.236,-3.27512 -8.7267,-2.47729 -1.046,0.5598 -1.9018,1.45198 -1.9018,1.98263 0,0.53065 -0.9,0.96482 -2,0.96482 -1.1,0 -2,-0.47513 -2,-1.05584 0,-1.99361 12.4999,-22.9397 13.6909,-22.94193 1.8827,-0.004 2.4028,1.62094 1.3803,4.31038 -0.6476,1.70334 -0.5695,2.99136 0.2494,4.11127 1.5451,2.11298 36.68054,22.56657 38.77444,22.57199 2.2529,0.006 4.7721,-3.08159 5.5052,-6.74695 0.7163,-3.5816 -0.8874,-5.35997 -26.35024,-29.21908 -10.8322,-10.14998 -14.25,-13.94091 -14.25,-15.80571 v -2.45319 l 28.4118,0.36453 28.41184,0.36453 2.4829,-2.32542 c 2.1007,-1.96741 2.4027,-2.96809 1.9619,-6.5 -0.2866,-2.29602 -0.8243,-4.51215 -1.1949,-4.92474 -1.1649,-1.29683 -39.30324,-9.86295 -42.51424,-9.54898 -2.0373,0.1992 -3.3891,1.05083 -4.0465,2.54914 -1.123,2.55968 -4.5128,3.06362 -4.5128,0.67088 0,-2.85273 7.0229,-30.56502 8.4323,-33.27334 2.6534,-5.09923 6.1845,-7.45413 11.81003,-7.87616 7.21931,-0.5416 11.47701,1.89601 14.78291,8.46333 l 2.5253,5.0165 8.6921,-2.83307 c 9.1855,-2.99383 14.2191,-5.25153 16.8639,-7.56387 1.8213,-1.59235 1.4467,-5.91523 -0.7301,-8.42533 -0.7494,-0.86408 -8.2017,-4.91408 -16.5607,-9 -33.74424,-16.49431 -33.29444,-16.24095 -33.59894,-18.92894 -0.2771,-2.44609 0.2487,-2.65094 24.38474,-9.5 13.5673,-3.85 25.9684,-7.78771 27.5581,-8.75046 1.5896,-0.96275 3.3146,-2.86666 3.8333,-4.2309 0.6386,-1.67964 1.4498,-2.286 2.5125,-1.87819 1.3394,0.51396 1.4818,2.08708 0.9719,10.7309 -0.7811,13.23956 -1.1427,14.83892 -3.263,14.43488 -0.9429,-0.17966 -1.8581,-1.33456 -2.0339,-2.56645 -0.3693,-2.58887 -1.6636,-2.72387 -8.6804,-0.9054 -5.6313,1.45939 -6.1644,2.52167 -6.3817,12.71622 l -0.1183,5.5506 5.9316,2.13424 c 6.1699,2.21994 6.9484,2.03553 8.3818,-1.98544 0.3431,-0.9625 1.3707,-1.75 2.2835,-1.75 1.499,0 1.5894,1.27312 0.9326,13.1476 -1.1293,20.41968 -3.724,24.35182 -19.0295,28.83781 -16.9512,4.96835 -16.7029,8.77015 0.6966,10.66724 5.5346,0.60344 5.7154,0.54614 6.3584,-2.01578 0.4861,-1.93691 1.3017,-2.63687 3.0725,-2.63687 2.0002,0 2.3147,0.38306 1.8471,2.25 -0.31,1.2375 -1.6143,6.91492 -2.8985,12.61649 -1.2843,5.70157 -2.9518,10.76407 -3.7056,11.25 -1.1504,0.74164 -1.1374,1.03341 0.081,1.81701 1.2176,0.78312 0.7272,2.75661 -3.044,12.25 -4.5379,11.42327 -7.0699,14.24373 -7.7206,8.59996 -0.2506,-2.17383 -0.9586,-2.83763 -3.544,-3.32265 -1.7769,-0.33336 -4.9579,-0.46091 -7.0688,-0.28346 -3.765,0.31652 -3.8902,0.45895 -6.5878,7.49876 l -2.7499,7.17611 2.6319,2.42053 c 1.4475,1.33129 3.7349,3.15787 5.0831,4.05906 2.3144,1.54698 2.577,1.52054 4.6992,-0.47315 1.271,-1.19409 2.922,-1.85295 3.7994,-1.51624 2.3255,0.89237 -2.862,14.27092 -10.8747,28.04576 -8.44721,14.52176 -9.13051,15.41744 -10.63224,13.93758 -0.8717,-0.85908 -0.9126,-1.97438 -0.1522,-4.1555 1.27403,-3.65468 0.069,-4.92403 -10.629,-11.19889 -5.9853,-3.51054 -7.5078,-4.04294 -8.2582,-2.88772 -2.7203,4.1882 -9.8103,16.58664 -10.0847,17.63549 -0.3397,1.29849 15.6896,11.28086 18.1143,11.28086 0.7908,0 2.4853,-0.98404 3.7656,-2.18676 1.7115,-1.60787 2.6227,-1.89166 3.4424,-1.07202 0.8196,0.81963 -0.02,3.05301 -3.1708,8.43675 -2.357,4.02712 -5.2271,9.00582 -6.378,11.06378 -1.9582,3.5018 -3.4964,4.52097 -4.8222,3.1952 z m 22.75634,-91.24118 c -0.1659,-0.16733 -4.26144,-0.57297 -9.10114,-0.90143 l -8.7995,-0.5972 6.8546,6.21194 6.8547,6.21194 2.24643,-5.31051 c 1.23561,-2.92078 2.11081,-5.44741 1.94491,-5.61474 z m 9.2957,-48.14136 c 0.504,-5.14853 -1.5278,-8.73347 -6.2435,-11.01629 -5.01121,-2.42588 -8.63474,-2.57767 -12.59884,-0.52777 -4.4084,2.27969 -6.7225,8.29465 -3.8695,10.0579 1.5313,0.94642 20.15494,5.31604 21.38964,5.01861 0.55,-0.13248 1.145,-1.72209 1.3222,-3.53245 z m 13.1778,-52.05441 c 0,-3.3 -0.1971,-6 -0.4379,-6 -0.9689,0 -13.557,3.06083 -15.2327,3.70382 -1.3565,0.52057 0.158,1.61299 6.1872,4.46279 4.3909,2.07542 8.3209,3.78697 8.7334,3.80344 0.4125,0.0165 0.75,-2.67005 0.75,-5.97005 z M 347.63706,880.66016 c -3.8645,-6.06672 -10.6547,-18.07077 -10.6547,-18.8357 0,-1.78107 2.0294,-2.00324 4.3585,-0.47714 2.3579,1.54495 2.5229,1.45899 6.9785,-3.63441 2.5099,-2.86923 4.4309,-5.47509 4.2688,-5.79081 -0.1621,-0.31572 -2.0335,-3.43484 -4.1587,-6.93139 l -3.8639,-6.35736 -4.332,0.59376 c -6.6691,0.91411 -8.442,2.21638 -8.0691,5.92727 0.2309,2.29787 -0.1289,3.24976 -1.3153,3.47932 -1.8477,0.35754 -11.3861,-15.13635 -10.3502,-16.81253 0.9626,-1.55746 3.0301,-1.13141 4.9834,1.0269 0.9955,1.1 2.981,2 4.4123,2 2.5542,0 31.7859,-4.01451 43.5877,-5.98608 8.5346,-1.42576 10.8616,-1.26572 12.175,0.83734 0.9441,1.51169 0.758,2.29124 -1.0146,4.25 -2.4774,2.73754 -24.347,29.01771 -30.0443,36.10347 -3.1234,3.88455 -3.7248,5.3499 -3.4495,8.40554 0.3973,4.4109 -1.3907,5.53192 -3.5119,2.20182 z m 20.3288,-45.89161 c 0.01,-0.31874 -4.0297,0.0843 -8.9751,0.89561 l -8.9916,1.47513 2.1836,3.60439 c 1.2009,1.98241 2.6596,4.42418 3.2416,5.42614 0.9458,1.6286 1.6658,1.1515 6.7915,-4.5 3.1535,-3.47696 5.741,-6.58254 5.75,-6.90127 z m 3.0165,-14.42048 c -2.1733,-2.31337 -3.0317,-2.5 -11.4979,-2.5 -5.0321,0 -17.3925,0.48574 -27.4676,1.07942 -18.94098,1.11611 -19.97188,0.97185 -20.01918,-2.80135 -0.01,-0.67206 6.50968,-6.91048 14.48468,-13.86315 7.975,-6.95268 14.5,-12.88218 14.5,-13.17667 0,-0.2945 -8.7453,-0.2176 -19.434,0.17088 -18.75988,0.68183 -19.47078,0.63724 -20.49998,-1.28566 -0.5863,-1.09559 -1.066,-2.19034 -1.066,-2.43278 0,-0.24244 3.7125,-3.28136 8.25,-6.75317 23.53068,-18.00419 34.85238,-27.49739 35.40108,-29.68365 0.7825,-3.11776 -0.2291,-3.94575 -2.4098,-1.9723 -0.974,0.88146 -3.6998,2.03605 -6.0574,2.56577 -5.5495,1.24689 -10.6361,-0.14561 -14.4449,-3.95451 l -2.9187,-2.91862 -3.6602,2.93565 c -6.22778,4.99506 -14.99858,14.45298 -16.08028,17.34014 -0.6577,1.7553 -1.7627,2.75 -3.0551,2.75 -1.7346,0 -2.0393,-0.68067 -2.1261,-4.75 -0.1576,-7.39003 0.2173,-11.59809 1.1962,-13.42719 0.4943,-0.92357 4.3876,-4.69495 8.6519,-8.38085 7.2195,-6.24023 10.4649,-10.56361 9.0169,-12.01163 -1.0543,-1.0543 -16.0561,2.52436 -18.0155,4.29758 -1.0584,0.95784 -1.661,2.49727 -1.3873,3.54394 0.4685,1.7915 -1.8175,3.60483 -3.0238,2.39857 -0.517,-0.51705 -3.0097,-11.98388 -4.7652,-21.92042 -0.5817,-3.29268 -0.4212,-3.75 1.3155,-3.75 1.1,0 2.2598,0.88818 2.613,2.00106 1.2111,3.81589 3.3931,3.84954 22.4459,0.34622 24.83938,-4.56734 24.49438,-4.46335 24.85428,-7.49067 0.5725,-4.81514 -1.511,-5.35546 -20.7045,-5.36929 -16.72698,-0.012 -17.84258,-0.13551 -22.58938,-2.5 -7.3128,-3.6427 -10.8395,-9.18581 -11.3263,-17.80234 -0.4549,-8.05068 0.9884,-14.04366 4.3422,-18.02944 4.2151,-5.00936 9.1772,-6.28831 28.4775,-7.33991 17.97958,-0.97965 19.18298,-1.30542 20.45078,-5.53649 0.6429,-2.14546 0.5701,-2.17113 -2.1427,-0.75616 -4.4456,2.31876 -13.3702,1.90977 -17.3865,-0.79678 -6.99658,-4.71502 -10.36078,-13.88253 -8.14318,-22.19062 0.5899,-2.2099 0.8848,-4.20572 0.6553,-4.43516 -0.2294,-0.22943 -4.3584,-0.45838 -9.1754,-0.50878 l -8.7583,-0.0916 -0.9568,3.25 c -0.6469,2.19712 -1.5751,3.25 -2.8653,3.25 -1.7113,0 -1.8468,-0.54225 -1.3119,-5.25 0.3281,-2.8875 0.8562,-8.175 1.1736,-11.75 0.3174,-3.575 0.7844,-7.5125 1.0378,-8.75 0.6131,-2.9943 3.4226,-2.94597 3.4226,0.0589 0,5.52686 3.0765,6.35701 35.70778,9.63523 10.441,1.04893 13.2922,0.75722 13.2922,-1.35996 0,-2.10138 2.4357,-4.58746 3.7067,-3.78323 0.9379,0.59351 0.881,3.7634 -0.2554,14.23134 -1.834,16.89303 -2.1951,18.68623 -4.6061,22.87297 -1.5535,2.69762 -1.6909,3.57211 -0.6616,4.2083 1.3602,0.84061 2.6025,22.39552 1.4621,25.36736 -0.7565,1.97142 -3.6457,0.81007 -3.6457,-1.46542 0,-3.807 -2.2874,-4.2738 -18.7466,-3.82576 -17.43178,0.47452 -23.42738,2.09385 -26.79778,7.23771 -2.1185,3.23316 -2.3506,9.00262 -0.5382,13.3753 2.8155,6.79282 14.4539,9.34822 33.44568,7.34353 10.6898,-1.12836 13.3038,-2.45138 13.8305,-7.00019 0.1794,-1.5492 0.9281,-2.64605 1.8064,-2.64605 1.1694,0 1.6299,1.87319 2.0896,8.5 0.3243,4.675 1.8351,14.35 3.3573,21.5 2.0842,9.78962 2.6553,14.78171 2.3128,20.2148 -0.2502,3.96814 -0.1118,7.00276 0.3076,6.74361 0.4193,-0.25916 1.5525,1.66918 2.5183,4.2852 0.9658,2.61601 3.0367,8.04963 4.602,12.0747 1.5653,4.02508 2.5868,7.73758 2.2701,8.25 -0.998,1.61483 -3.1564,1.01576 -4.7498,-1.31831 -1.4976,-2.19374 -1.6138,-2.20706 -4.6457,-0.53286 -3.4119,1.88394 -24.246,17.93325 -23.8243,18.35274 0.1441,0.1434 8.9721,-0.17864 19.6177,-0.71564 10.6456,-0.53699 19.4772,-0.83638 19.6257,-0.6653 0.1486,0.17108 0.5325,1.21106 0.853,2.31106 0.4728,1.62255 -2.2453,4.45342 -14.4024,15 -17.3504,15.0519 -17.4696,14.54101 2.9265,12.54943 13.6541,-1.33327 15.1416,-1.96964 15.1416,-6.47765 0,-4.12518 2.5995,-5.61816 4.0083,-2.3021 3.5331,8.3162 6.7118,17.34777 6.3284,17.98029 -0.8696,1.43425 -3.0023,0.73491 -5.3367,-1.75 z m -37.6095,-83.8898 c 6.7118,-2.80438 9.4987,-8.64431 6.2471,-13.09105 -1.3258,-1.81312 -1.6519,-1.80507 -12.158,0.30026 -5.9377,1.18985 -11.0062,2.37384 -11.2635,2.6311 -0.2572,0.25726 0.6014,2.61707 1.9081,5.24402 3.0659,6.16368 8.2693,7.83917 15.2663,4.91567 z m 0.5852,-101.24322 c 2.604,-2.19113 3.0784,-3.23629 2.8267,-6.22771 -0.3441,-4.08987 -0.8891,-4.27571 -16.5082,-5.62876 l -8.20578,-0.71085 -0.6575,2.61958 c -1.6788,6.68889 4.87358,12.45653 14.24228,12.53656 4.1678,0.0356 5.7815,-0.46755 8.3025,-2.58882 z m 659.5886,30.73704 c -0.3405,-0.55085 -0.8621,-4.5121 -1.1592,-8.80278 l -0.5403,-7.80124 10.24754,-10.5 c 5.6361,-5.775 13.429,-13.80413 17.3176,-17.84251 l 7.0701,-7.34252 -8.5,0.66645 c -20.61204,1.61611 -25.00004,3.21851 -25.00004,9.12936 0,2.25006 -2.2931,3.37953 -3.328,1.63922 -0.2453,-0.4125 -0.7704,-5.3625 -1.1669,-11 -0.6266,-8.91017 -0.5178,-10.25 0.8324,-10.25 0.8543,0 2.1404,1.20841 2.8579,2.68536 2.3217,4.77903 3.5394,4.81787 42.19314,1.34584 5.9887,-0.53793 11.2762,-0.73845 11.75,-0.44561 2.4341,1.50435 -0.7782,5.54545 -18.8885,23.76182 l -19.75,19.8657 10,-0.66098 c 12.6766,-0.83791 23.6452,-2.47157 25.2235,-3.7568 0.673,-0.54796 1.5106,-2.52608 1.8613,-4.39581 0.6749,-3.59726 2.95,-4.59416 3.7645,-1.64952 0.2662,0.9625 0.7803,5.9125 1.1425,11 0.5755,8.08643 0.4571,9.25 -0.9415,9.25 -0.8799,0 -2.0296,-1.13053 -2.555,-2.51229 -1.784,-4.69237 -4.3255,-5.02141 -25.1624,-3.25764 -16.999,1.43891 -19.2859,1.84683 -21.37951,3.81366 -1.2894,1.21133 -2.48143,3.34983 -2.64893,4.75222 -0.3202,2.68059 -2.1878,4.01095 -3.2402,2.30807 z m -17.741,-107.88246 c -4.5712,-3.01482 -6.6242,-6.52454 -14.8658,-25.41424 -4.3931,-10.06903 -9.1058,-20.67979 -10.4725,-23.57947 -2.798,-5.93614 -2.8688,-6.22785 -1.5107,-6.22785 0.5359,0 1.6442,1.29547 2.463,2.87882 0.8188,1.58335 2.1461,3.1311 2.9496,3.43943 1.3836,0.53091 10.8086,-3.06684 24.1131,-9.20447 3.3,-1.52236 9.4921,-4.2791 13.7602,-6.12608 8.63374,-3.73608 12.16164,-6.4461 11.30334,-8.68272 -1.3387,-3.48874 -1.7149,-6.30498 -0.8423,-6.30498 0.516,0 3.5394,5.9625 6.7188,13.25 14.7673,33.84826 15.6928,36.78743 13.5902,43.15846 -1.5585,4.72232 -6.8534,8.70458 -12.406,9.33043 -3.9398,0.44407 -4.7549,0.13779 -8.4019,-3.15698 l -4.03871,-3.64877 0.4714,5.78343 c 0.3778,4.63523 0.07,6.42065 -1.55263,8.99309 -4.0674,6.4502 -15.4038,9.38667 -21.2791,5.5119 z m 2.3819,-18.77584 c 2.5089,-0.85485 6.4141,-3.13991 8.6782,-5.07792 4.5906,-3.9294 5.2773,-7.22254 2.5897,-12.41967 -1.4769,-2.85613 -1.632,-2.90853 -4.75,-1.60446 -9.6814,4.04927 -21.7231,10.06429 -21.7231,10.85102 0,1.07674 2.8326,6.78232 4.2474,8.55531 1.3465,1.68737 5.4468,1.57351 10.9578,-0.30428 z m 28.29484,-15.20049 c 4.2899,-2.10079 9.5,-7.31485 9.5,-9.50714 0,-1.55527 -1.4415,-5.25947 -2.5606,-6.57991 -0.3374,-0.39809 -21.52244,8.81991 -22.79924,9.9204 -1.1839,1.02029 2.2336,6.55064 4.78,7.73526 2.43053,1.13073 6.84354,0.50597 11.07984,-1.56861 z M 368.98236,537.382 c 0,-0.25634 0.7801,-2.10206 1.7336,-4.10159 1.7119,-3.58979 1.704,-3.65958 -0.6289,-5.54863 -4.5299,-3.66804 -42.6456,-24.88371 -44.7056,-24.88371 -0.6898,0 -2.388,1.44878 -3.7738,3.2195 -5.6134,7.17261 -3.1497,0.98584 7.0796,-17.77811 12.3041,-22.56989 17.2894,-28.81104 23.8764,-29.89101 5.2724,-0.86447 11.6994,1.63078 14.5647,5.65471 2.8893,4.05763 3.4703,10.38292 1.4077,15.32507 l -1.6568,3.96984 4.106,-4 4.106,-3.99999 h 10.6807 c 9.1978,0 10.7257,-0.23274 11.0047,-1.67634 0.186,-0.96267 -0.9784,-2.63922 -2.7352,-3.93806 -3.0222,-2.23443 -3.9299,-3.8856 -2.1359,-3.8856 1.7167,0 7.2422,5.30513 8.2401,7.91133 2.6698,6.97291 -0.3196,16.93829 -6.4388,21.46436 -3.991,2.95187 -11.5643,2.67702 -19.4444,-0.70568 -7.9846,-3.42757 -11.5124,-3.47314 -13.2793,-0.17153 -0.7355,1.37417 -1.149,2.67405 -0.919,2.88862 1.4398,1.34326 20.6456,11.61289 21.7178,11.61289 0.7222,0 2.6257,-1.43707 4.2299,-3.19349 1.6043,-1.75642 3.1305,-2.97982 3.3916,-2.71866 0.4115,0.41148 -13.4842,26.38796 -17.4721,32.66215 -1.2774,2.00972 -2.949,3.02093 -2.949,1.78393 z m -8.918,-50.81814 c -1.9553,-5.14297 -11.0469,-10.71578 -17.4818,-10.71578 -2.6822,0 -3.9308,0.65551 -5.5321,2.90436 -1.1375,1.5974 -2.0681,3.29361 -2.0681,3.76934 0,0.47574 5.0603,3.6539 11.2452,7.06259 l 11.2452,6.1976 1.7508,-3.41249 c 1.2708,-2.47713 1.5013,-4.06846 0.8408,-5.80562 z m 578.418,0.78073 c -5.0303,-2.71318 -9.232,-7.46172 -13.1856,-14.90162 -3.3388,-6.28285 -3.7729,-7.91588 -3.7924,-14.26796 -0.018,-5.72419 0.3976,-7.7358 2.0552,-9.95896 1.1425,-1.53224 9.0175,-7.86762 17.5,-14.07864 8.4825,-6.21101 15.8307,-12.19582 16.3294,-13.29958 0.5863,-1.29788 0.4848,-2.93263 -0.2875,-4.62751 -1.6379,-3.59491 -0.3909,-4.4054 2.096,-1.36224 5.5814,6.82984 20.9065,29.21171 20.3693,29.74886 -0.3379,0.33794 -2.2037,-0.92596 -4.1461,-2.80867 -4.2744,-4.14291 -2.9172,-4.73266 -23.3828,10.16042 -21.248,15.46246 -23.9908,19.414 -19.0379,27.42788 4.5116,7.29994 12.7697,8.95199 21.6353,4.32823 9.1404,-4.76703 30.6544,-21.49829 31.1847,-24.25213 0.1958,-1.01679 -0.433,-3.59838 -1.3973,-5.73685 -0.9643,-2.13847 -1.542,-4.09937 -1.2839,-4.35755 0.2582,-0.25818 3.7492,4.05081 7.7579,9.57552 4.0086,5.52472 7.03293,10.30043 6.72063,10.6127 -0.31233,0.31226 -2.17313,-0.84179 -4.13533,-2.56457 -3.4919,-3.06599 -3.6431,-3.10073 -7.1386,-1.64024 -1.9641,0.82065 -9.083,5.49976 -15.8199,10.39801 -6.7369,4.89825 -13.7153,9.66421 -15.5076,10.59101 -4.8128,2.48883 -12.8816,2.98363 -16.5335,1.01389 z m -540.7656,-26.61253 c -8.3797,-1.91201 -17.0529,-8.8362 -21.3185,-17.01962 -2.5395,-4.87195 -3.0876,-17.33117 -1.0335,-23.49099 6.4495,-19.34014 29.2933,-30.33155 46.27,-22.26297 5.0008,2.37676 12.85,10.51923 15.0967,15.66076 2.3931,5.4766 2.1669,18.30531 -0.4387,24.87728 -6.1057,15.40069 -23.8089,25.60494 -38.576,22.23554 z m 29.6767,-12.96071 c 3.4941,-4.15249 3.2703,-6.55891 -1.2621,-13.57134 -6.0705,-9.3923 -24.8668,-25.39103 -32.1281,-27.3463 -9.5765,-2.57867 -14.2926,5.5794 -8.3894,14.51224 5.4717,8.2799 19.9169,21.4826 29.495,26.95791 5.9373,3.3941 9.0828,3.25263 12.2846,-0.55251 z m 477.569,-3.07555 c -3.7611,-3.42111 -39.2284,-36.0122 -42.4246,-38.98412 -3.1715,-2.949 -1.0522,-3.22064 3.1956,-0.4096 2.2236,1.47152 4.6241,2.33924 5.5201,1.9954 2.2652,-0.86924 33.0407,-35.10918 34.1702,-38.01675 0.7455,-1.91903 0.4669,-3.06531 -1.3381,-5.50669 -1.2537,-1.69575 -2.0605,-3.30216 -1.7928,-3.56979 0.4752,-0.47525 26.9566,23.64897 28.241,25.72729 1.2238,1.98005 -0.2474,1.94364 -2.8066,-0.0695 -1.4082,-1.1077 -3.2146,-2.014 -4.0141,-2.014 -1.5352,0 -7.7788,6.24563 -24.8313,24.83953 -14.4581,15.76498 -13.7043,14.2007 -8.9246,18.51886 4.1662,3.76391 5.4808,4.06774 15.8189,3.65612 2.3616,-0.094 8.1877,-1.48717 12.9469,-3.09587 4.7591,-1.6087 8.979,-2.586 9.3775,-2.17178 0.5979,0.62145 -17.2291,21.18269 -19.0828,22.00977 -0.3164,0.14114 -2.1413,-1.16786 -4.0553,-2.90891 z m -449.6672,-26.65244 c 1.4779,-1.54259 2.6871,-3.74124 2.6871,-4.88588 0,-1.14463 -2.5875,-5.71819 -5.75,-10.16347 -3.1625,-4.44527 -9.5588,-13.49684 -14.2139,-20.11459 -4.6551,-6.61776 -9.2451,-12.28026 -10.2,-12.58334 -0.9549,-0.30308 -3.0863,0.14714 -4.7365,1.00047 -4.414,2.28256 -5.6643,1.88846 -2.4264,-0.76482 7.7637,-6.36191 35.7948,-25.99427 39.5449,-27.69633 5.1356,-2.33088 8.6749,-2.47667 13.2921,-0.5475 7.1666,2.99441 9.743,12.96076 5.1139,19.78217 l -2.3759,3.50109 4.733,-1.99964 c 5.6964,-2.40668 10.5675,-1.81548 14.8699,1.80473 6.2267,5.23943 7.8928,14.0833 3.8937,20.66835 -2.5056,4.1259 -7.3347,8.04815 -29.4321,23.90515 -14.9525,10.72978 -20.279,13.60387 -14.9998,8.09361 z m 28.1105,-21.2866 c 2.9134,-3.46242 2.8363,-4.38617 -1.0038,-12.02842 -3.9748,-7.91047 -11.1591,-12.45103 -15.7467,-9.95211 -6.5615,3.57419 -6.6605,2.90273 2.2851,15.51273 9.0303,12.7294 9.1511,12.78342 14.4654,6.4678 z M 463.73236,373.525 c 1.2375,-1.11405 2.25,-3.09003 2.25,-4.39107 0,-5.34943 -7.462,-15.02815 -12.9224,-16.7612 -2.6645,-0.84569 -8.3203,2.40054 -7.5734,4.34688 1.4269,3.7185 13.8905,20.00949 14.8833,19.45372 0.6119,-0.34253 2.125,-1.53428 3.3625,-2.64833 z m 376.7303,19.47369 c -8.093,-3.82869 -14.7759,-10.66473 -17.5106,-17.91195 -3.0682,-8.13112 -2.4556,-18.73799 1.5023,-26.00999 6.2063,-11.40299 14.538,-16.64697 26.528,-16.69669 12.4774,-0.0517 23.2546,6.24667 28.6061,16.71802 2.6831,5.25011 4.5618,5.8803 7.9739,2.67479 4.2341,-3.97771 3.1997,-0.33702 -2.7231,9.58474 -3.2801,5.49476 -6.356,10.66172 -6.8354,11.48214 -1.8103,3.09835 -2.2022,-0.16943 -0.9943,-8.28893 1.4754,-9.91659 0.8184,-14.5443 -2.6499,-18.6662 -7.4074,-8.80316 -18.2585,-3.78651 -28.6707,13.25498 -7.1868,11.76252 -8.6766,23.90199 -3.6003,29.33613 7.0177,7.51238 15.492,6.93195 25.3659,-1.73738 2.4544,-2.15501 3.5278,-2.63659 3.5278,-1.58276 0,1.9606 -5.4028,6.50154 -10.5,8.82515 -5.9913,2.73113 -12.8857,2.39293 -20.0197,-0.98205 z m -321.399,-23.73908 c -9.7705,-2.6269 -15.7351,-7.94112 -20.2951,-18.08203 -3.0562,-6.79664 -3.0369,-17.14681 0.044,-23.49185 3.5524,-7.31682 9.2925,-13.09327 16.7888,-16.89518 6.4029,-3.24735 7.3571,-3.44198 16.8345,-3.43374 8.5312,0.007 10.6942,0.35309 14.3383,2.29149 10.9301,5.81402 16.7447,16.26388 15.9693,28.69978 -0.9653,15.48295 -10.6854,26.9011 -26.3805,30.98915 -7.0401,1.83372 -10.2433,1.81935 -17.2989,-0.0776 z m 24.5952,-5.9972 c 2.3368,-2.33679 2.5352,-3.13086 2.0613,-8.25 -1.0205,-11.02387 -10.1099,-32.358 -16.9454,-39.77369 -4.8008,-5.20825 -8.4872,-5.78674 -12.3379,-1.93609 -3.5604,3.56042 -3.5552,9.07132 0.019,20.04573 4.2097,12.92521 10.8457,25.67625 16.0942,30.92475 2.5021,2.50207 8.1058,1.99223 11.1087,-1.0107 z m 223.5605,-5.02828 c -2.9465,-1.07918 -6.1892,-3.69314 -10.5,-8.46402 -3.4304,-3.79645 -6.8068,-6.907 -7.5032,-6.91233 -0.6964,-0.005 -2.0173,1.5653 -2.9352,3.4903 -2.0481,4.29477 -4.6248,4.87448 -3.3338,0.75 0.4735,-1.5125 2.513,-8.04065 4.5322,-14.50699 2.0192,-6.46635 4.0834,-11.50229 4.5871,-11.19099 0.5037,0.31131 0.9212,3.12696 0.9277,6.257 0.023,11.01026 4.016,20.82224 10.4802,25.75274 6.9189,5.27727 14.2037,5.00117 16.5348,-0.62666 1.7934,-4.32948 -0.073,-7.81156 -7.3506,-13.71719 -10.1206,-8.21209 -17.442,-16.45251 -18.198,-20.48204 -0.924,-4.9254 1.7648,-13.63667 5.2351,-16.9606 9.185,-8.79773 24.471,-7.48871 32.9173,2.81887 4.0719,4.96924 6.8713,5.59314 8.5513,1.90586 1.1125,-2.44153 2.8181,-3.40398 2.8181,-1.59018 0,1.17733 -5.8135,18.97933 -6.6287,20.2984 -1.005,1.62615 -2.0309,-0.88861 -2.2082,-5.41287 -0.1985,-5.06543 -3.9243,-13.36562 -7.6519,-17.04637 -3.987,-3.93689 -9.9547,-5.57173 -13.3606,-3.66006 -3.7221,2.08917 -4.9304,6.07212 -2.8194,9.29392 0.9146,1.3958 5.9615,6.21468 11.2154,10.7086 11.8265,10.11578 14.9896,15.42414 14.1335,23.71886 -0.6959,6.74234 -4.1837,12.24173 -9.3409,14.72808 -5.061,2.44 -14.6507,2.84438 -20.1022,0.84767 z m -180.737,-9.38605 c 0.3399,-0.55 1.3913,-1 2.3365,-1 3.3662,0 6.3186,-2.99133 5.7713,-5.84738 -9.602,-50.10551 -9.8388,-51.15262 -11.5685,-51.15262 -3.5335,0 -7.3255,6.84843 -11.4244,20.63305 -1.2239,4.11557 -2.6503,7.48088 -3.17,7.47847 -1.0505,-0.005 -6.0656,-24.82423 -5.1925,-25.69725 0.5733,-0.57332 50.7582,-10.73931 58.8937,-11.93013 l 4.6461,-0.68007 1.1515,5.34796 c 2.0863,9.68882 3.4234,19.81414 2.7109,20.52671 -0.3854,0.38533 -1.4231,-0.33085 -2.3061,-1.59151 -8.217,-11.73148 -17.8527,-20.13093 -21.2021,-18.48202 -1.7359,0.85459 -1.6905,1.56874 1.0102,15.89479 7.4398,39.4644 7.6677,40.10352 13.94,39.10053 2.1469,-0.34329 3.9034,-0.21373 3.9034,0.28791 0,1.02277 -3.7499,1.95823 -22.4269,5.59468 -13.9771,2.72137 -18.0407,3.0824 -17.0731,1.51688 z m 117.8075,-5.89363 c -13.9947,-5.16614 -21.1855,-16.59225 -20.0887,-31.92089 0.8837,-12.35044 6.6956,-20.96536 17.4778,-25.90706 10.8482,-4.97196 26.5568,-2.95977 33.3508,4.27206 3.0747,3.27293 5.5707,3.08856 7.4526,-0.55048 0.8532,-1.65 1.8294,-3 2.1692,-3 0.7465,0 -0.3005,12.1086 -1.7942,20.75 -0.5942,3.4375 -1.3998,6.25 -1.7902,6.25 -0.3904,0 -1.7728,-4.1625 -3.072,-9.25 -1.969,-7.71038 -2.9793,-9.87417 -6.0699,-13 -3.1878,-3.22425 -4.3361,-3.75 -8.1904,-3.75 -7.777,0 -12.2463,5.45002 -15.3584,18.72868 -2.0955,8.94092 -1.4935,21.0989 1.3614,27.49465 5.6582,12.6757 19.8359,11.42163 27.3126,-2.41589 2.823,-5.22462 3.4672,-5.90414 3.7525,-3.95819 0.4928,3.36048 -4.5946,11.04515 -9.6786,14.61982 -3.8876,2.73351 -5.1609,3.0566 -12.9763,3.29251 -6.5666,0.19822 -9.9235,-0.20274 -13.8582,-1.65521 z m -66.3075,-1.95134 c 0,-0.63527 1.3178,-1.15503 2.9285,-1.15503 6.5184,0 6.6385,-0.83907 5.2041,-36.36302 -0.7921,-19.61589 -1.1544,-20.63698 -7.3238,-20.63698 -1.5448,0 -2.8088,-0.45 -2.8088,-1 0,-0.55 2.3625,-1.00165 5.25,-1.00366 2.8875,-0.002 11.6625,-0.29701 19.5,-0.65555 10.4882,-0.47981 14.25,-0.34685 14.25,0.50366 0,0.63555 -0.9296,1.15555 -2.0658,1.15555 -1.1361,0 -2.9361,0.46583 -4,1.03518 -1.8032,0.96508 -1.9279,2.20113 -1.8403,18.25 0.052,9.46815 0.3892,21.39379 0.75,26.50143 0.7055,9.98637 1.3827,11.17011 6.4061,11.19808 1.5125,0.008 2.75,0.46531 2.75,1.01531 0,0.55255 -2.614,1 -5.8419,1 -3.2131,0 -11.9881,0.29476 -19.5,0.65503 -10.039,0.48146 -13.6581,0.34897 -13.6581,-0.5 z"
       id="path1" />
  </g>
</svg>
