<?xml version="1.0" encoding="UTF-8" standalone="no"?>
<!-- Created with Inkscape (http://www.inkscape.org/) -->

<svg
   version="1.1"
   id="svg1"
   width="413"
   height="90"
   viewBox="0 0 413 90"
   sodipodi:docname="logo.svg"
   inkscape:export-filename="logo-darkmode.png"
   inkscape:export-xdpi="96"
   inkscape:export-ydpi="96"
   inkscape:version="1.3 (0e150ed6c4, 2023-07-21)"
   xmlns:inkscape="http://www.inkscape.org/namespaces/inkscape"
   xmlns:sodipodi="http://sodipodi.sourceforge.net/DTD/sodipodi-0.dtd"
   xmlns="http://www.w3.org/2000/svg"
   xmlns:svg="http://www.w3.org/2000/svg">
  <defs
     id="defs1">
    <clipPath
       clipPathUnits="userSpaceOnUse"
       id="clipPath21">
      <path
         d="M 0,841.89 H 595.276 V 0 H 0 Z"
         transform="translate(-479.37791,-702.78432)"
         id="path21" />
    </clipPath>
    <clipPath
       clipPathUnits="userSpaceOnUse"
       id="clipPath23">
      <path
         d="M 0,841.89 H 595.276 V 0 H 0 Z"
         transform="translate(-466.66501,-687.72722)"
         id="path23" />
    </clipPath>
    <clipPath
       clipPathUnits="userSpaceOnUse"
       id="clipPath25">
      <path
         d="M 0,841.89 H 595.276 V 0 H 0 Z"
         id="path25" />
    </clipPath>
    <clipPath
       clipPathUnits="userSpaceOnUse"
       id="clipPath27">
      <path
         d="M 0,841.89 H 595.276 V 0 H 0 Z"
         id="path27" />
    </clipPath>
    <clipPath
       clipPathUnits="userSpaceOnUse"
       id="clipPath29">
      <path
         d="M 0,841.89 H 595.276 V 0 H 0 Z"
         transform="translate(-317.77931,-688.01182)"
         id="path29" />
    </clipPath>
    <clipPath
       clipPathUnits="userSpaceOnUse"
       id="clipPath31">
      <path
         d="M 0,841.89 H 595.276 V 0 H 0 Z"
         id="path31" />
    </clipPath>
    <clipPath
       clipPathUnits="userSpaceOnUse"
       id="clipPath33">
      <path
         d="M 0,841.89 H 595.276 V 0 H 0 Z"
         transform="translate(-378.15621,-719.09052)"
         id="path33" />
    </clipPath>
    <clipPath
       clipPathUnits="userSpaceOnUse"
       id="clipPath35">
      <path
         d="M 0,841.89 H 595.276 V 0 H 0 Z"
         id="path35" />
    </clipPath>
    <clipPath
       clipPathUnits="userSpaceOnUse"
       id="clipPath37">
      <path
         d="M 0,841.89 H 595.276 V 0 H 0 Z"
         transform="translate(-401.25981,-696.88001)"
         id="path37" />
    </clipPath>
    <clipPath
       clipPathUnits="userSpaceOnUse"
       id="clipPath39">
      <path
         d="M 0,841.89 H 595.276 V 0 H 0 Z"
         transform="translate(-348.90141,-695.82821)"
         id="path39" />
    </clipPath>
    <clipPath
       clipPathUnits="userSpaceOnUse"
       id="clipPath41">
      <path
         d="M 0,841.89 H 595.276 V 0 H 0 Z"
         transform="translate(-420.07421,-720.33412)"
         id="path41" />
    </clipPath>
    <clipPath
       clipPathUnits="userSpaceOnUse"
       id="clipPath43">
      <path
         d="M 0,841.89 H 595.276 V 0 H 0 Z"
         transform="translate(-195.064,-734.53142)"
         id="path43" />
    </clipPath>
    <clipPath
       clipPathUnits="userSpaceOnUse"
       id="clipPath45">
      <path
         d="M 0,841.89 H 595.276 V 0 H 0 Z"
         transform="translate(-198.312,-735.73062)"
         id="path45" />
    </clipPath>
    <clipPath
       clipPathUnits="userSpaceOnUse"
       id="clipPath47">
      <path
         d="M 0,841.89 H 595.276 V 0 H 0 Z"
         transform="translate(-198.1587,-737.74672)"
         id="path47" />
    </clipPath>
    <clipPath
       clipPathUnits="userSpaceOnUse"
       id="clipPath49">
      <path
         d="M 0,841.89 H 595.276 V 0 H 0 Z"
         transform="translate(-151.3159,-731.59002)"
         id="path49" />
    </clipPath>
    <clipPath
       clipPathUnits="userSpaceOnUse"
       id="clipPath51">
      <path
         d="M 0,841.89 H 595.276 V 0 H 0 Z"
         transform="translate(-154.0713,-730.35752)"
         id="path51" />
    </clipPath>
    <clipPath
       clipPathUnits="userSpaceOnUse"
       id="clipPath53">
      <path
         d="M 0,841.89 H 595.276 V 0 H 0 Z"
         transform="translate(-148.6104,-729.70572)"
         id="path53" />
    </clipPath>
    <clipPath
       clipPathUnits="userSpaceOnUse"
       id="clipPath55">
      <path
         d="M 0,841.89 H 595.276 V 0 H 0 Z"
         transform="translate(-153.6274,-730.80142)"
         id="path55" />
    </clipPath>
    <clipPath
       clipPathUnits="userSpaceOnUse"
       id="clipPath57">
      <path
         d="M 0,841.89 H 595.276 V 0 H 0 Z"
         transform="translate(-148.3198,-729.20722)"
         id="path57" />
    </clipPath>
    <clipPath
       clipPathUnits="userSpaceOnUse"
       id="clipPath59">
      <path
         d="M 0,841.89 H 595.276 V 0 H 0 Z"
         transform="translate(-149.01561,-728.80732)"
         id="path59" />
    </clipPath>
    <clipPath
       clipPathUnits="userSpaceOnUse"
       id="clipPath61">
      <path
         d="M 0,841.89 H 595.276 V 0 H 0 Z"
         transform="translate(-151.70511,-732.47722)"
         id="path61" />
    </clipPath>
    <clipPath
       clipPathUnits="userSpaceOnUse"
       id="clipPath63">
      <path
         d="M 0,841.89 H 595.276 V 0 H 0 Z"
         transform="translate(-149.82621,-732.60852)"
         id="path63" />
    </clipPath>
    <clipPath
       clipPathUnits="userSpaceOnUse"
       id="clipPath65">
      <path
         d="M 0,841.89 H 595.276 V 0 H 0 Z"
         transform="translate(-148.9771,-731.21742)"
         id="path65" />
    </clipPath>
    <clipPath
       clipPathUnits="userSpaceOnUse"
       id="clipPath67">
      <path
         d="M 0,841.89 H 595.276 V 0 H 0 Z"
         transform="translate(-153.9453,-728.87322)"
         id="path67" />
    </clipPath>
    <clipPath
       clipPathUnits="userSpaceOnUse"
       id="clipPath69">
      <path
         d="M 0,841.89 H 595.276 V 0 H 0 Z"
         transform="translate(-152.13231,-727.43812)"
         id="path69" />
    </clipPath>
    <clipPath
       clipPathUnits="userSpaceOnUse"
       id="clipPath71">
      <path
         d="M 0,841.89 H 595.276 V 0 H 0 Z"
         transform="translate(-150.5874,-732.80042)"
         id="path71" />
    </clipPath>
    <clipPath
       clipPathUnits="userSpaceOnUse"
       id="clipPath73">
      <path
         d="M 0,841.89 H 595.276 V 0 H 0 Z"
         transform="translate(-153.1182,-731.83072)"
         id="path73" />
    </clipPath>
    <clipPath
       clipPathUnits="userSpaceOnUse"
       id="clipPath75">
      <path
         d="M 0,841.89 H 595.276 V 0 H 0 Z"
         transform="translate(-149.4976,-731.81992)"
         id="path75" />
    </clipPath>
    <clipPath
       clipPathUnits="userSpaceOnUse"
       id="clipPath77">
      <path
         d="M 0,841.89 H 595.276 V 0 H 0 Z"
         transform="translate(-148.64841,-730.47282)"
         id="path77" />
    </clipPath>
    <clipPath
       clipPathUnits="userSpaceOnUse"
       id="clipPath79">
      <path
         d="M 0,841.89 H 595.276 V 0 H 0 Z"
         transform="translate(-149.4976,-728.20472)"
         id="path79" />
    </clipPath>
    <clipPath
       clipPathUnits="userSpaceOnUse"
       id="clipPath81">
      <path
         d="M 0,841.89 H 595.276 V 0 H 0 Z"
         transform="translate(-152.7949,-727.88202)"
         id="path81" />
    </clipPath>
    <clipPath
       clipPathUnits="userSpaceOnUse"
       id="clipPath83">
      <path
         d="M 0,841.89 H 595.276 V 0 H 0 Z"
         transform="translate(-149.8428,-727.41082)"
         id="path83" />
    </clipPath>
    <clipPath
       clipPathUnits="userSpaceOnUse"
       id="clipPath85">
      <path
         d="M 0,841.89 H 595.276 V 0 H 0 Z"
         transform="translate(-152.1211,-732.61442)"
         id="path85" />
    </clipPath>
    <clipPath
       clipPathUnits="userSpaceOnUse"
       id="clipPath87">
      <path
         d="M 0,841.89 H 595.276 V 0 H 0 Z"
         transform="translate(-153.28221,-731.57342)"
         id="path87" />
    </clipPath>
    <clipPath
       clipPathUnits="userSpaceOnUse"
       id="clipPath89">
      <path
         d="M 0,841.89 H 595.276 V 0 H 0 Z"
         transform="translate(-153.3042,-728.51182)"
         id="path89" />
    </clipPath>
    <clipPath
       clipPathUnits="userSpaceOnUse"
       id="clipPath91">
      <path
         d="M 0,841.89 H 595.276 V 0 H 0 Z"
         transform="translate(-151.7104,-726.84632)"
         id="path91" />
    </clipPath>
    <clipPath
       clipPathUnits="userSpaceOnUse"
       id="clipPath93">
      <path
         d="M 0,841.89 H 595.276 V 0 H 0 Z"
         transform="translate(-150.916,-726.86832)"
         id="path93" />
    </clipPath>
    <clipPath
       clipPathUnits="userSpaceOnUse"
       id="clipPath95">
      <path
         d="M 0,841.89 H 595.276 V 0 H 0 Z"
         transform="translate(-197.73141,-751.83412)"
         id="path95" />
    </clipPath>
    <clipPath
       clipPathUnits="userSpaceOnUse"
       id="clipPath97">
      <path
         d="M 0,841.89 H 595.276 V 0 H 0 Z"
         transform="translate(-195.0747,-751.54412)"
         id="path97" />
    </clipPath>
    <clipPath
       clipPathUnits="userSpaceOnUse"
       id="clipPath99">
      <path
         d="M 0,841.89 H 595.276 V 0 H 0 Z"
         transform="translate(-197.55621,-749.97182)"
         id="path99" />
    </clipPath>
    <clipPath
       clipPathUnits="userSpaceOnUse"
       id="clipPath101">
      <path
         d="M 0,841.89 H 595.276 V 0 H 0 Z"
         transform="translate(-196.6191,-749.76922)"
         id="path101" />
    </clipPath>
    <clipPath
       clipPathUnits="userSpaceOnUse"
       id="clipPath103">
      <path
         d="M 0,841.89 H 595.276 V 0 H 0 Z"
         transform="translate(-195.0859,-752.52992)"
         id="path103" />
    </clipPath>
    <clipPath
       clipPathUnits="userSpaceOnUse"
       id="clipPath105">
      <path
         d="M 0,841.89 H 595.276 V 0 H 0 Z"
         transform="translate(-194.8008,-751.06752)"
         id="path105" />
    </clipPath>
    <clipPath
       clipPathUnits="userSpaceOnUse"
       id="clipPath107">
      <path
         d="M 0,841.89 H 595.276 V 0 H 0 Z"
         transform="translate(-196.5645,-754.08022)"
         id="path107" />
    </clipPath>
    <clipPath
       clipPathUnits="userSpaceOnUse"
       id="clipPath109">
      <path
         d="M 0,841.89 H 595.276 V 0 H 0 Z"
         transform="translate(-198.5034,-750.34972)"
         id="path109" />
    </clipPath>
    <clipPath
       clipPathUnits="userSpaceOnUse"
       id="clipPath111">
      <path
         d="M 0,841.89 H 595.276 V 0 H 0 Z"
         transform="translate(-197.9395,-753.80632)"
         id="path111" />
    </clipPath>
    <clipPath
       clipPathUnits="userSpaceOnUse"
       id="clipPath113">
      <path
         d="M 0,841.89 H 595.276 V 0 H 0 Z"
         transform="translate(-198.6187,-753.12172)"
         id="path113" />
    </clipPath>
    <clipPath
       clipPathUnits="userSpaceOnUse"
       id="clipPath115">
      <path
         d="M 0,841.89 H 595.276 V 0 H 0 Z"
         transform="translate(-194.7187,-752.29462)"
         id="path115" />
    </clipPath>
    <clipPath
       clipPathUnits="userSpaceOnUse"
       id="clipPath117">
      <path
         d="M 0,841.89 H 595.276 V 0 H 0 Z"
         transform="translate(-195.3267,-750.25702)"
         id="path117" />
    </clipPath>
    <clipPath
       clipPathUnits="userSpaceOnUse"
       id="clipPath119">
      <path
         d="M 0,841.89 H 595.276 V 0 H 0 Z"
         transform="translate(-196.395,-750.04852)"
         id="path119" />
    </clipPath>
    <clipPath
       clipPathUnits="userSpaceOnUse"
       id="clipPath121">
      <path
         d="M 0,841.89 H 595.276 V 0 H 0 Z"
         transform="translate(-197.3262,-750.03232)"
         id="path121" />
    </clipPath>
    <clipPath
       clipPathUnits="userSpaceOnUse"
       id="clipPath123">
      <path
         d="M 0,841.89 H 595.276 V 0 H 0 Z"
         transform="translate(-198.5308,-750.99622)"
         id="path123" />
    </clipPath>
    <clipPath
       clipPathUnits="userSpaceOnUse"
       id="clipPath125">
      <path
         d="M 0,841.89 H 595.276 V 0 H 0 Z"
         transform="translate(-198.8599,-751.24822)"
         id="path125" />
    </clipPath>
    <clipPath
       clipPathUnits="userSpaceOnUse"
       id="clipPath127">
      <path
         d="M 0,841.89 H 595.276 V 0 H 0 Z"
         transform="translate(-195.48,-753.51572)"
         id="path127" />
    </clipPath>
    <clipPath
       clipPathUnits="userSpaceOnUse"
       id="clipPath129">
      <path
         d="M 0,841.89 H 595.276 V 0 H 0 Z"
         transform="translate(-196.1211,-753.95422)"
         id="path129" />
    </clipPath>
    <clipPath
       clipPathUnits="userSpaceOnUse"
       id="clipPath131">
      <path
         d="M 0,841.89 H 595.276 V 0 H 0 Z"
         transform="translate(-195.2334,-750.84832)"
         id="path131" />
    </clipPath>
    <clipPath
       clipPathUnits="userSpaceOnUse"
       id="clipPath133">
      <path
         d="M 0,841.89 H 595.276 V 0 H 0 Z"
         transform="translate(-197.2983,-753.77892)"
         id="path133" />
    </clipPath>
    <clipPath
       clipPathUnits="userSpaceOnUse"
       id="clipPath135">
      <path
         d="M 0,841.89 H 595.276 V 0 H 0 Z"
         transform="translate(-196.84371,-753.88832)"
         id="path135" />
    </clipPath>
    <clipPath
       clipPathUnits="userSpaceOnUse"
       id="clipPath137">
      <path
         d="M 0,841.89 H 595.276 V 0 H 0 Z"
         transform="translate(-198.7993,-752.63392)"
         id="path137" />
    </clipPath>
    <clipPath
       clipPathUnits="userSpaceOnUse"
       id="clipPath139">
      <path
         d="M 0,841.89 H 595.276 V 0 H 0 Z"
         transform="translate(-198.312,-753.49382)"
         id="path139" />
    </clipPath>
    <clipPath
       clipPathUnits="userSpaceOnUse"
       id="clipPath141">
      <path
         d="M 0,841.89 H 595.276 V 0 H 0 Z"
         transform="translate(-197.9668,-750.23502)"
         id="path141" />
    </clipPath>
    <clipPath
       clipPathUnits="userSpaceOnUse"
       id="clipPath143">
      <path
         d="M 0,841.89 H 595.276 V 0 H 0 Z"
         transform="translate(-195.1626,-753.15442)"
         id="path143" />
    </clipPath>
    <clipPath
       clipPathUnits="userSpaceOnUse"
       id="clipPath145">
      <path
         d="M 0,841.89 H 595.276 V 0 H 0 Z"
         transform="translate(-195.94581,-750.20762)"
         id="path145" />
    </clipPath>
    <clipPath
       clipPathUnits="userSpaceOnUse"
       id="clipPath147">
      <path
         d="M 0,841.89 H 595.276 V 0 H 0 Z"
         transform="translate(-198.8599,-752.16272)"
         id="path147" />
    </clipPath>
    <clipPath
       clipPathUnits="userSpaceOnUse"
       id="clipPath149">
      <path
         d="M 0,841.89 H 595.276 V 0 H 0 Z"
         transform="translate(-168.8218,-747.95082)"
         id="path149" />
    </clipPath>
    <clipPath
       clipPathUnits="userSpaceOnUse"
       id="clipPath151">
      <path
         d="M 0,841.89 H 595.276 V 0 H 0 Z"
         transform="translate(-168.34521,-746.33512)"
         id="path151" />
    </clipPath>
    <clipPath
       clipPathUnits="userSpaceOnUse"
       id="clipPath153">
      <path
         d="M 0,841.89 H 595.276 V 0 H 0 Z"
         transform="translate(-170.14161,-746.07782)"
         id="path153" />
    </clipPath>
    <clipPath
       clipPathUnits="userSpaceOnUse"
       id="clipPath155">
      <path
         d="M 0,841.89 H 595.276 V 0 H 0 Z"
         transform="translate(-168.23001,-749.05732)"
         id="path155" />
    </clipPath>
    <clipPath
       clipPathUnits="userSpaceOnUse"
       id="clipPath157">
      <path
         d="M 0,841.89 H 595.276 V 0 H 0 Z"
         transform="translate(-171.33591,-747.50162)"
         id="path157" />
    </clipPath>
    <clipPath
       clipPathUnits="userSpaceOnUse"
       id="clipPath159">
      <path
         d="M 0,841.89 H 595.276 V 0 H 0 Z"
         transform="translate(-167.748,-748.19202)"
         id="path159" />
    </clipPath>
    <clipPath
       clipPathUnits="userSpaceOnUse"
       id="clipPath161">
      <path
         d="M 0,841.89 H 595.276 V 0 H 0 Z"
         transform="translate(-171.3853,-747.96202)"
         id="path161" />
    </clipPath>
    <clipPath
       clipPathUnits="userSpaceOnUse"
       id="clipPath163">
      <path
         d="M 0,841.89 H 595.276 V 0 H 0 Z"
         transform="translate(-168.2139,-746.43912)"
         id="path163" />
    </clipPath>
    <clipPath
       clipPathUnits="userSpaceOnUse"
       id="clipPath165">
      <path
         d="M 0,841.89 H 595.276 V 0 H 0 Z"
         transform="translate(-168.9858,-746.31852)"
         id="path165" />
    </clipPath>
    <clipPath
       clipPathUnits="userSpaceOnUse"
       id="clipPath167">
      <path
         d="M 0,841.89 H 595.276 V 0 H 0 Z"
         transform="translate(-168.7725,-749.84052)"
         id="path167" />
    </clipPath>
    <clipPath
       clipPathUnits="userSpaceOnUse"
       id="clipPath169">
      <path
         d="M 0,841.89 H 595.276 V 0 H 0 Z"
         transform="translate(-171.3247,-748.43812)"
         id="path169" />
    </clipPath>
    <clipPath
       clipPathUnits="userSpaceOnUse"
       id="clipPath171">
      <path
         d="M 0,841.89 H 595.276 V 0 H 0 Z"
         transform="translate(-170.3442,-750.06512)"
         id="path171" />
    </clipPath>
    <clipPath
       clipPathUnits="userSpaceOnUse"
       id="clipPath173">
      <path
         d="M 0,841.89 H 595.276 V 0 H 0 Z"
         transform="translate(-171.1333,-749.51722)"
         id="path173" />
    </clipPath>
    <clipPath
       clipPathUnits="userSpaceOnUse"
       id="clipPath175">
      <path
         d="M 0,841.89 H 595.276 V 0 H 0 Z"
         transform="translate(-171.18801,-748.87662)"
         id="path175" />
    </clipPath>
    <clipPath
       clipPathUnits="userSpaceOnUse"
       id="clipPath177">
      <path
         d="M 0,841.89 H 595.276 V 0 H 0 Z"
         transform="translate(-168.35601,-749.60512)"
         id="path177" />
    </clipPath>
    <clipPath
       clipPathUnits="userSpaceOnUse"
       id="clipPath179">
      <path
         d="M 0,841.89 H 595.276 V 0 H 0 Z"
         transform="translate(-169.4517,-749.73112)"
         id="path179" />
    </clipPath>
    <clipPath
       clipPathUnits="userSpaceOnUse"
       id="clipPath181">
      <path
         d="M 0,841.89 H 595.276 V 0 H 0 Z"
         transform="translate(-169.6924,-749.93912)"
         id="path181" />
    </clipPath>
    <clipPath
       clipPathUnits="userSpaceOnUse"
       id="clipPath183">
      <path
         d="M 0,841.89 H 595.276 V 0 H 0 Z"
         transform="translate(-167.78661,-747.27702)"
         id="path183" />
    </clipPath>
    <clipPath
       clipPathUnits="userSpaceOnUse"
       id="clipPath185">
      <path
         d="M 0,841.89 H 595.276 V 0 H 0 Z"
         transform="translate(-170.9248,-746.65252)"
         id="path185" />
    </clipPath>
    <clipPath
       clipPathUnits="userSpaceOnUse"
       id="clipPath187">
      <path
         d="M 0,841.89 H 595.276 V 0 H 0 Z"
         transform="translate(-171.396,-747.23352)"
         id="path187" />
    </clipPath>
    <clipPath
       clipPathUnits="userSpaceOnUse"
       id="clipPath189">
      <path
         d="M 0,841.89 H 595.276 V 0 H 0 Z"
         transform="translate(-167.9673,-747.23352)"
         id="path189" />
    </clipPath>
    <clipPath
       clipPathUnits="userSpaceOnUse"
       id="clipPath191">
      <path
         d="M 0,841.89 H 595.276 V 0 H 0 Z"
         transform="translate(-167.748,-748.87662)"
         id="path191" />
    </clipPath>
    <clipPath
       clipPathUnits="userSpaceOnUse"
       id="clipPath193">
      <path
         d="M 0,841.89 H 595.276 V 0 H 0 Z"
         transform="translate(-170.78811,-749.39712)"
         id="path193" />
    </clipPath>
    <clipPath
       clipPathUnits="userSpaceOnUse"
       id="clipPath195">
      <path
         d="M 0,841.89 H 595.276 V 0 H 0 Z"
         transform="translate(-167.5728,-748.44402)"
         id="path195" />
    </clipPath>
    <clipPath
       clipPathUnits="userSpaceOnUse"
       id="clipPath197">
      <path
         d="M 0,841.89 H 595.276 V 0 H 0 Z"
         transform="translate(-170.98,-746.35172)"
         id="path197" />
    </clipPath>
    <clipPath
       clipPathUnits="userSpaceOnUse"
       id="clipPath199">
      <path
         d="M 0,841.89 H 595.276 V 0 H 0 Z"
         transform="translate(-169.2271,-745.98452)"
         id="path199" />
    </clipPath>
    <clipPath
       clipPathUnits="userSpaceOnUse"
       id="clipPath201">
      <path
         d="M 0,841.89 H 595.276 V 0 H 0 Z"
         transform="translate(-169.7476,-745.93522)"
         id="path201" />
    </clipPath>
    <clipPath
       clipPathUnits="userSpaceOnUse"
       id="clipPath203">
      <path
         d="M 0,841.89 H 595.276 V 0 H 0 Z"
         transform="translate(-531.97171,-712.92302)"
         id="path203" />
    </clipPath>
    <clipPath
       clipPathUnits="userSpaceOnUse"
       id="clipPath205">
      <path
         d="M 0,841.89 H 595.276 V 0 H 0 Z"
         transform="translate(-530.50882,-671.88641)"
         id="path205" />
    </clipPath>
    <clipPath
       clipPathUnits="userSpaceOnUse"
       id="clipPath207">
      <path
         d="M 0,841.89 H 595.276 V 0 H 0 Z"
         transform="translate(-534.71581,-700.73062)"
         id="path207" />
    </clipPath>
    <clipPath
       clipPathUnits="userSpaceOnUse"
       id="clipPath209">
      <path
         d="M 0,841.89 H 595.276 V 0 H 0 Z"
         transform="translate(-521.64161,-716.04502)"
         id="path209" />
    </clipPath>
  </defs>
  <sodipodi:namedview
     id="namedview1"
     pagecolor="#ffffff"
     bordercolor="#000000"
     borderopacity="0.25"
     inkscape:showpageshadow="2"
     inkscape:pageopacity="0.0"
     inkscape:pagecheckerboard="0"
     inkscape:deskcolor="#d1d1d1"
     inkscape:zoom="1.1307506"
     inkscape:cx="206.94218"
     inkscape:cy="45.102784"
     inkscape:window-width="1362"
     inkscape:window-height="736"
     inkscape:window-x="0"
     inkscape:window-y="0"
     inkscape:window-maximized="1"
     inkscape:current-layer="g1" />
  <g
     inkscape:groupmode="layer"
     inkscape:label="Image"
     id="g1">
    <g
       id="g209"
       transform="matrix(0.74429528,0,0,0.73189705,-144.86715,-79.543165)"
       style="fill:#000000">
      <path
         id="path20"
         d="m 0,0 0.395,-0.104 c 1.341,2.7 2.678,5.406 4.085,8.216 H 0 Z M 4.524,-1.32 H 0.027 v -4.354 h 4.497 z m 9.377,-13.759 H -9.355 V 17.495 H 13.956 C 13.475,13.463 15.003,9.213 12.439,5.34 11.625,4.317 11.613,2.871 12.412,1.835 c 1.298,-1.9 1.61,-4.031 1.523,-6.321 -0.132,-3.489 -0.034,-6.984 -0.034,-10.593"
         style="fill:#000000;fill-opacity:1;fill-rule:nonzero;stroke:none"
         transform="matrix(1.3333333,0,0,-1.3333333,639.17053,185.47427)"
         clip-path="url(#clipPath21)" />
      <path
         id="path22"
         d="m 0,0 h -23.202 v 32.58 h 9.169 V 9.383 h 4.76 V 32.596 H 0 Z"
         style="fill:#000000;fill-opacity:1;fill-rule:nonzero;stroke:none"
         transform="matrix(1.3333333,0,0,-1.3333333,622.22,205.5504)"
         clip-path="url(#clipPath23)" />
      <path
         id="path24"
         d="m 192.944,711.324 h -7.569 v -3.621 h 7.569 z m -7.778,-4.722 v -18.574 h -7.603 v 31.068 h 23.389 c -0.548,-4.875 1.282,-9.936 -1.577,-14.613 -0.264,-0.476 -0.292,-1.046 -0.077,-1.545 1.966,-2.739 1.452,-5.839 1.676,-8.885 0.318,-4.002 -0.641,-8.002 -2.739,-11.425 -1.791,-3.046 -3.198,-6.321 -5.143,-9.421 v 26.033 c -0.334,0.269 -0.46,0.45 -0.548,0.433 -2.886,-0.547 -4.261,1.014 -5.143,3.484 -0.512,1.225 -1.096,2.419 -1.747,3.577 z"
         style="fill:#000000;fill-opacity:1;fill-rule:nonzero;stroke:none"
         transform="matrix(1.3333333,0,0,-1.3333333,0,1122.52)"
         clip-path="url(#clipPath25)" />
      <path
         id="path26"
         d="m 239.847,695.888 h 7.564 v 3.741 h -7.564 z m 7.526,11.804 v 3.615 h -7.433 v -11.07 c 1.096,2.125 2.158,3.703 2.684,5.478 0.799,2.673 2.969,1.534 4.743,1.977 z m 7.903,11.442 c 0,-3.834 0.762,-7.761 -0.224,-11.179 -0.92,-3.182 -0.783,-5.625 0,-8.764 0.898,-3.473 0.203,-7.361 0.203,-11.195 h -23.213 v 31.138 z"
         style="fill:#000000;fill-opacity:1;fill-rule:nonzero;stroke:none"
         transform="matrix(1.3333333,0,0,-1.3333333,0,1122.52)"
         clip-path="url(#clipPath27)" />
      <path
         id="path28"
         d="m 0,0 h -7.729 v 26.571 c -1.095,-4.678 -4.929,-2.646 -7.811,-3.287 v -23.3 h -7.745 v 23.415 h -7.668 v 7.669 H 0.011 Z"
         style="fill:#000000;fill-opacity:1;fill-rule:nonzero;stroke:none"
         transform="matrix(1.3333333,0,0,-1.3333333,423.70573,205.17093)"
         clip-path="url(#clipPath29)" />
      <path
         id="path30"
         d="m 212.553,695.927 h 7.668 v 15.474 h -7.668 z m 15.452,-7.915 h -23.301 v 31.101 h 23.301 z"
         style="fill:#000000;fill-opacity:1;fill-rule:nonzero;stroke:none"
         transform="matrix(1.3333333,0,0,-1.3333333,0,1122.52)"
         clip-path="url(#clipPath31)" />
      <path
         id="path32"
         d="m 0,0 c -1.161,-2.372 -2.191,-4.645 -3.401,-6.797 -0.275,-0.488 -1.277,-0.773 -1.951,-0.784 -3.927,-0.071 -7.86,-0.038 -11.957,-0.038 v -3.889 H -1.83 v -19.505 h -25.261 c 1.194,2.394 2.279,4.765 3.576,7.011 0.269,0.466 1.342,0.636 2.049,0.647 3.834,0.06 7.706,0.027 11.699,0.027 v 3.927 H -25.103 V 0 Z"
         style="fill:#000000;fill-opacity:1;fill-rule:nonzero;stroke:none"
         transform="matrix(1.3333333,0,0,-1.3333333,504.20827,163.73267)"
         clip-path="url(#clipPath33)" />
      <path
         id="path34"
         d="m 274.995,711.285 h -7.575 v -15.336 h 7.575 z m 7.669,-23.284 h -23.087 v 31.111 h 23.087 z"
         style="fill:#000000;fill-opacity:1;fill-rule:nonzero;stroke:none"
         transform="matrix(1.3333333,0,0,-1.3333333,0,1122.52)"
         clip-path="url(#clipPath35)" />
      <path
         id="path36"
         d="M 0,0 H 13.885 V -9.164 H -16.24 c 0.958,1.934 1.823,3.692 2.7,5.445 4.239,8.506 8.518,16.98 12.69,25.53 0.669,1.369 1.457,1.829 2.948,1.791 3.834,-0.104 7.712,-0.039 11.749,-0.039 v -9.399 c -1.829,0 -3.605,0.061 -5.368,-0.038 C 7.865,14.093 6.95,13.813 6.715,13.365 4.48,9.081 2.355,4.732 0,0"
         style="fill:#000000;fill-opacity:1;fill-rule:nonzero;stroke:none"
         transform="matrix(1.3333333,0,0,-1.3333333,535.01307,193.34667)"
         clip-path="url(#clipPath37)" />
      <path
         id="path38"
         d="m 0,0 v -7.805 h -28.953 c 0.077,0.373 0.187,0.74 0.328,1.095 4.747,9.542 9.494,19.08 14.241,28.614 0.548,1.096 1.167,1.572 2.444,1.545 3.926,-0.088 7.854,-0.033 11.919,-0.033 v -7.784 c -2.121,0 -4.18,0.094 -6.229,-0.049 C -7.034,15.518 -7.752,15.119 -8.222,14.488 -10.664,9.804 -12.981,5.05 -15.49,0.005 Z"
         style="fill:#000000;fill-opacity:1;fill-rule:nonzero;stroke:none"
         transform="matrix(1.3333333,0,0,-1.3333333,465.20187,194.74907)"
         clip-path="url(#clipPath39)" />
      <path
         id="path40"
         d="m 0,0 h 9.125 v -23.372 h 11.722 c -1.567,-3.161 -2.93,-5.965 -4.382,-8.731 -0.233,-0.348 -0.612,-0.57 -1.029,-0.603 -5.138,-0.044 -10.282,-0.027 -15.457,-0.027 z"
         style="fill:#000000;fill-opacity:1;fill-rule:nonzero;stroke:none"
         transform="matrix(1.3333333,0,0,-1.3333333,560.09893,162.07453)"
         clip-path="url(#clipPath41)" />
      <path
         id="path42"
         d="m 0,0 -0.192,0.586 0.049,0.027 0.34,-0.24 z m -12.335,10.456 c 0.611,0.148 1.251,0.127 1.851,-0.06 -0.312,0 -0.619,0.044 -0.926,0.06 -0.306,0.017 -0.618,0 -0.925,0 M -0.132,1.61 C 0,1.396 0.109,1.221 0.213,1.062 0.274,0.976 0.324,0.882 0.361,0.783 c 0,-0.071 0,-0.153 -0.038,-0.257 -0.592,0.361 -0.641,0.476 -0.455,1.073 z m 3.15,1.616 H 3.095 C 3.188,2.771 2.996,2.284 3.286,1.846 c 0.093,-0.142 0,-0.411 0,-0.619 L 3.248,1.199 C 3.177,1.265 3.04,1.325 3.04,1.396 3.012,1.988 3.018,2.602 3.018,3.215 Z M 1.057,1.199 v 0.51 0.279 c 0.307,0.11 0.164,0.362 0.181,0.548 0.016,0.186 0,0.455 0,0.685 H 1.325 V 2.974 1.539 C 1.38,1.292 1.282,1.199 1.057,1.199 m -16.613,8.775 c -0.104,-0.115 -0.17,-0.263 -0.263,-0.285 -0.455,-0.1 -0.931,-0.046 -1.353,0.154 -0.066,0.039 -0.131,0.083 -0.191,0.131 z m -2.651,3.566 c 0,-0.794 -0.055,-1.55 -0.077,-2.306 -0.277,0.622 -0.437,1.291 -0.471,1.972 0.005,0.052 0.033,0.098 0.077,0.126 0.142,0.071 0.29,0.131 0.471,0.208 M -0.274,3.029 C -0.896,4.124 -1.333,5.314 -1.567,6.551 -0.97,5.444 -0.535,4.258 -0.274,3.029 M -18.99,13.195 -18.442,10.9 c -0.484,0.311 -0.836,0.792 -0.986,1.347 -0.247,0.811 -0.296,0.619 0.46,0.942 -0.006,0.006 0.005,0 -0.022,0.006 m 17.1,-4.793 c -0.115,0.072 -0.208,0.104 -0.246,0.164 -0.224,0.318 -0.561,0.538 -0.943,0.614 -0.285,0.062 -0.574,0.104 -0.865,0.126 -0.832,0.077 -1.643,0.132 -2.492,0.225 -0.33,0.06 -0.656,0.143 -0.975,0.246 1.096,0.038 2.191,0.066 3.248,0.027 0.505,-0.021 1.005,-0.104 1.49,-0.246 0.496,-0.161 0.822,-0.635 0.794,-1.156 z M -1.84,5.466 C -1.483,4.329 -1.017,3.229 -0.449,2.18 -0.422,2.116 -0.411,2.046 -0.417,1.977 -0.455,1.725 -0.504,1.479 -0.548,1.227 -1.654,1.928 -2.229,3.801 -1.83,5.466 Z M 6.321,-9.673 c -0.493,0 -0.893,0.399 -0.894,0.892 0,0.011 0.001,0.022 0.001,0.033 -0.015,0.505 0.382,0.927 0.887,0.942 0.009,0 0.018,0.001 0.028,0.001 C 6.846,-7.826 7.244,-8.238 7.247,-8.742 7.25,-9.251 6.841,-9.667 6.332,-9.673 Z m -8.282,0 c -0.499,-0.007 -0.909,0.393 -0.915,0.892 -10e-4,0.016 0,0.033 0,0.05 0,0.496 0.387,0.905 0.882,0.931 0.517,0.009 0.944,-0.403 0.953,-0.92 0.009,-0.517 -0.403,-0.944 -0.92,-0.953 M 0.635,1.375 0.569,1.347 C 0.433,1.599 0.301,1.851 0.153,2.092 0.037,2.288 -0.01,2.518 0.022,2.744 c 0.033,0.299 0.011,0.602 -0.066,0.893 -0.4,1.286 -0.923,2.532 -1.561,3.719 -0.051,0.113 -0.091,0.23 -0.121,0.351 l 1.019,0.235 V 7.055 H 0.389 C 0.404,7.023 0.415,6.99 0.421,6.956 V 4.217 4.091 C 0.071,3.982 0.295,3.692 0.241,3.489 c 0,-0.077 0,-0.241 0.033,-0.241 C 0.526,3.209 0.433,3.013 0.438,2.875 V 2.06 C 0.827,1.922 0.547,1.599 0.646,1.375 Z m 1.572,-3.889 c -0.806,0 -1.462,0.65 -1.468,1.457 0.007,0.798 0.659,1.441 1.457,1.434 C 2.995,0.372 3.637,-0.281 3.631,-1.08 3.625,-1.865 2.993,-2.502 2.207,-2.514 M -14.772,14.159 V 11.7 l -0.247,-0.055 v -0.772 c 0,-0.258 0,-0.302 -0.241,-0.302 -0.156,-0.008 -0.31,-0.031 -0.46,-0.071 -0.689,-0.132 -1.4,-0.104 -2.076,0.082 -0.122,0.02 -0.206,0.135 -0.186,0.257 v 10e-4 c 0.038,0.898 0.065,1.802 0.098,2.705 0,0.06 0,0.159 0.066,0.176 0.328,0.192 0.682,0.334 1.051,0.422 0.647,0.065 1.309,0.016 1.989,0.016 z m -12.916,-0.745 c 0.03,1.27 1.084,2.275 2.355,2.245 1.27,-0.031 2.275,-1.085 2.245,-2.355 -0.03,-1.24 -1.037,-2.233 -2.278,-2.245 -1.289,0.003 -2.331,1.05 -2.328,2.338 v 0.017 z m 32.765,-0.23 v 1.26 c 0.005,0.154 0.048,0.305 0.126,0.438 0.874,1.263 0.988,2.902 0.296,4.272 -0.623,1.424 -2.028,2.346 -3.582,2.35 -0.953,0.038 -1.917,0 -2.875,0 h -0.22 c 1.359,1.123 3.232,1.394 4.853,0.701 1.907,-0.712 3.201,-2.496 3.286,-4.53 C 7.107,15.959 6.401,14.28 5.072,13.184 Z M 4.343,17.281 C 4.307,15.89 3.15,14.792 1.759,14.828 c -1.391,0.037 -2.489,1.194 -2.453,2.585 0.036,1.38 1.176,2.474 2.556,2.453 1.393,-0.041 2.497,-1.191 2.481,-2.585 m -22.336,-7.154 c 0.337,-0.213 0.692,-0.397 1.062,-0.547 0.383,-0.075 0.772,-0.113 1.161,-0.115 -0.085,-0.934 -0.072,-1.874 0.039,-2.805 0.038,-0.788 0.093,-1.577 0.087,-2.366 -0.015,-0.361 -0.085,-0.717 -0.208,-1.057 -0.094,-0.299 -0.323,-0.536 -0.619,-0.641 -0.566,-0.148 -1.157,0.128 -1.407,0.657 -0.216,0.429 -0.311,0.908 -0.274,1.386 0.033,0.899 0.049,1.791 0.076,2.684 0.028,0.893 0.05,1.846 0.083,2.804 M -47.144,-4.524 c -0.064,1.877 1.406,3.451 3.284,3.515 1.877,0.064 3.451,-1.406 3.515,-3.283 0.003,-0.091 0.003,-0.181 -0.002,-0.271 0.064,-1.877 -1.405,-3.451 -3.283,-3.515 -1.877,-0.064 -3.452,1.406 -3.516,3.284 -0.002,0.089 -0.002,0.18 0.002,0.27 m 33.346,14.635 0.214,0.055 c 1.11,0.175 2.239,0.186 3.352,0.033 0.617,-0.075 1.217,-0.247 1.78,-0.51 0.488,-0.197 0.981,-0.377 1.485,-0.547 0.896,-0.219 1.816,-0.329 2.738,-0.329 0.384,0 0.762,-0.071 1.134,-0.109 L -4.486,7.252 C -5.026,6.647 -5.659,6.132 -6.359,5.724 -6.929,5.384 -7.6,5.254 -8.254,5.357 c -0.534,0.127 -1.033,0.368 -1.463,0.706 -0.993,0.763 -1.91,1.62 -2.739,2.558 -0.438,0.499 -0.893,0.992 -1.353,1.484 z M -1.682,8.468 c 0,0.06 -0.038,0.12 -0.049,0.181 -0.045,0.51 -0.394,0.942 -0.882,1.095 -0.343,0.113 -0.698,0.183 -1.057,0.208 -0.805,0.044 -1.605,0.044 -2.41,0.039 -1.096,-0.067 -2.193,0.12 -3.204,0.548 -1.052,0.506 -2.239,0.66 -3.385,0.438 -0.389,-0.077 -0.778,-0.116 -1.194,-0.17 v 0.849 l -0.247,0.066 v 2.453 h 2.388 v 0.444 c 0.198,0.122 0.382,0.265 0.548,0.427 0.071,0.115 0.199,0.182 0.334,0.176 h 2.646 0.257 v -0.548 c -0.022,-0.37 0.2,-0.711 0.548,-0.838 0.356,-0.115 0.548,-0.279 0.432,-0.718 h 1.096 v -0.471 h 0.449 v 0.466 c 0.17,0 0.372,0.06 0.449,0 0.077,-0.06 0.083,-0.296 0.115,-0.449 h 0.433 v 0.46 H -3.9 l 0.027,-0.466 h 0.444 l 0.044,0.466 h 0.608 v -0.466 h 0.465 v 0.46 h 0.51 v -0.46 h 0.449 l 0.033,0.466 h 0.548 V 8.32 c -0.137,0 -0.307,-0.044 -0.351,0 -0.148,0.197 -0.339,0.104 -0.515,0.126 z M 3.938,3.204 4.152,3.27 v 0.772 c -0.192,0 -0.209,0.132 -0.209,0.301 v 2.4 0.312 h 1.123 v 1.051 2.931 c -0.02,0.149 0.06,0.294 0.198,0.356 0.189,0.104 0.372,0.219 0.548,0.345 l -0.247,0.372 0.482,0.428 0.257,-0.334 0.778,0.717 -0.373,0.323 0.362,0.521 0.389,-0.23 0.488,0.892 -0.4,0.219 0.23,0.581 0.427,-0.121 0.252,1.003 -0.444,0.104 0.066,0.597 h 0.433 v 1.024 H 8.084 L 7.991,18.458 8.435,18.584 8.167,19.57 7.75,19.434 7.509,20.02 7.909,20.239 7.411,21.121 7.022,20.901 6.649,21.4 7.022,21.74 6.271,22.441 5.998,22.106 5.494,22.512 5.729,22.901 4.875,23.449 4.656,23.043 4.108,23.306 4.256,23.728 3.281,24.04 3.177,23.591 2.585,23.684 v 0.449 l -1.002,0.055 v -0.465 l -0.625,-0.056 -0.065,0.439 -0.992,-0.203 0.11,-0.449 -0.548,-0.225 -0.197,0.406 -0.888,-0.455 0.209,-0.405 -0.499,-0.367 -0.29,0.356 -0.751,-0.69 0.362,-0.389 c -0.147,-0.075 -0.304,-0.13 -0.466,-0.164 h -3.834 v -0.548 c -0.914,-0.137 -1.062,-0.784 -0.985,-1.577 h -2.953 c -0.077,0 -0.192,0 -0.219,0.076 -0.119,0.244 -0.359,0.406 -0.63,0.427 V 20.37 H -11.974 -25.3 c -1.191,-0.01 -2.315,-0.55 -3.068,-1.473 -1.157,-1.397 -1.974,-3.043 -2.388,-4.809 -0.126,-0.449 -0.219,-0.91 -0.339,-1.359 -0.032,-0.098 -0.091,-0.186 -0.17,-0.251 -1.545,-1.206 -3.111,-2.383 -4.645,-3.61 -1.643,-1.304 -3.248,-2.618 -4.831,-3.977 -1.342,-1.15 -2.64,-2.344 -3.922,-3.56 -0.944,-0.884 -1.752,-1.903 -2.399,-3.023 -0.851,-1.362 -0.985,-3.052 -0.361,-4.53 0.548,-1.379 1.834,-2.325 3.314,-2.438 0.197,-0.026 0.385,-0.099 0.547,-0.214 2.556,-1.825 5.112,-3.666 7.668,-5.521 l 1.644,-1.15 v -0.071 h -3.341 c -0.444,0 -0.663,-0.159 -0.701,-0.504 -0.039,-0.345 0.164,-0.548 0.591,-0.657 v -18.41 h -0.876 c -0.146,0.003 -0.291,-0.029 -0.422,-0.093 -0.214,-0.12 -0.322,-0.369 -0.263,-0.608 0.043,-0.24 0.239,-0.424 0.482,-0.449 0.078,-0.008 0.157,-0.008 0.236,0 h 18.075 c 0.227,-0.031 0.454,0.061 0.597,0.241 0.128,0.164 0.151,0.388 0.06,0.575 -0.098,0.212 -0.313,0.346 -0.547,0.34 h -0.959 -0.268 v 18.426 c 0.104,-0.006 0.208,-0.006 0.312,0 0.302,0 0.547,0.245 0.547,0.547 0,0.303 -0.245,0.548 -0.547,0.548 h -1.364 c 0.066,0.181 0.12,0.323 0.17,0.471 0.624,1.573 0.624,3.324 0,4.897 -0.573,1.505 -1.686,2.744 -3.122,3.473 -0.115,0.046 -0.184,0.162 -0.17,0.284 v 2.958 0.323 h -1.052 c -0.107,0.004 -0.21,0.045 -0.29,0.115 -0.545,0.604 -1.279,1.004 -2.082,1.134 -0.098,0.395 -0.098,0.389 -0.679,0.361 -0.241,0 -0.252,-0.164 -0.257,-0.284 -0.455,-0.192 -0.893,-0.345 -1.298,-0.548 -0.275,-0.17 -0.528,-0.374 -0.751,-0.608 -0.096,-0.109 -0.238,-0.168 -0.383,-0.159 H -33.1 c -0.17,0 -0.208,-0.06 -0.203,-0.219 v -1.095 l -4.59,1.451 0.778,0.871 4.973,5.538 c 1.845,2.055 3.687,4.112 5.527,6.167 0.106,0.156 0.301,0.227 0.482,0.176 1.956,-0.396 3.881,0.807 4.382,2.738 0,0.06 0.039,0.121 0.061,0.181 0.547,0.099 1.095,-0.109 1.643,0.164 0.087,-0.279 0.17,-0.547 0.268,-0.827 0.23,-0.643 0.688,-1.178 1.287,-1.506 0.144,-0.063 0.226,-0.218 0.198,-0.373 -0.061,-1.856 -0.121,-3.713 -0.165,-5.565 -0.035,-0.597 0.161,-1.186 0.548,-1.643 0.323,-0.427 0.858,-0.638 1.386,-0.547 0.529,0.095 0.956,0.488 1.095,1.007 0.159,0.499 0.219,1.024 0.175,1.545 -0.065,1.276 -0.137,2.553 -0.197,3.834 -0.002,0.212 0.007,0.424 0.028,0.636 0,0.262 0.126,0.438 0.438,0.416 0,-0.203 0.12,-0.225 0.296,-0.214 0.175,0.011 0.465,0 0.695,0 0.105,0.02 0.2,0.076 0.268,0.159 0.334,-0.361 0.652,-0.729 1.003,-1.095 0.832,-0.822 1.643,-1.644 2.525,-2.443 0.357,-0.306 0.751,-0.565 1.172,-0.773 0.942,-0.495 2.079,-0.44 2.969,0.143 0.885,0.546 1.671,1.237 2.328,2.043 0.268,0.296 0.547,0.548 0.838,0.843 L -2.827,8.314 V 7.767 h 0.598 c 0.054,-0.334 0.082,-0.658 0.158,-0.97 0.108,-0.78 0.123,-1.571 0.044,-2.355 0.001,-0.528 0.054,-1.055 0.159,-1.572 0.22,-0.674 0.629,-1.271 1.178,-1.72 0.135,-0.123 0.218,-0.294 0.23,-0.477 0.013,-0.21 0.065,-0.416 0.153,-0.608 0.152,-0.287 0.204,-0.616 0.148,-0.936 -0.053,-0.424 0.026,-0.854 0.224,-1.233 0.068,-0.095 0.046,-0.227 -0.049,-0.295 -0.535,-0.514 -0.857,-1.21 -0.904,-1.95 -0.075,-0.542 -0.225,-1.071 -0.443,-1.572 -0.131,-0.389 -0.291,-0.772 -0.422,-1.167 -0.031,-0.17 -0.177,-0.296 -0.351,-0.301 -0.738,-0.111 -1.248,-0.799 -1.138,-1.538 0.015,-0.098 0.04,-0.194 0.076,-0.286 0.329,-0.975 0.685,-1.945 1.024,-2.919 0.104,-0.269 0.142,-0.669 0.329,-0.778 0.38,-0.161 0.783,-0.262 1.194,-0.301 0.166,-0.017 0.332,-0.017 0.498,0 -0.022,0.312 -0.062,0.623 -0.12,0.931 0,0.109 -0.181,0.202 -0.29,0.262 -0.159,0.061 -0.25,0.229 -0.214,0.395 0.066,0.964 0.109,1.928 0.17,2.897 0.012,0.087 0.062,0.163 0.137,0.208 0.509,0.236 1.024,0.461 1.544,0.68 0.104,0.031 0.214,0.031 0.318,0 0.533,-0.113 1.083,-0.113 1.616,0 0.097,0.027 0.199,0.027 0.295,0 0.548,-0.219 1.052,-0.45 1.573,-0.685 0.059,-0.038 0.099,-0.1 0.109,-0.17 0.066,-1.013 0.121,-2.021 0.17,-3.034 -0.004,-0.088 -0.046,-0.17 -0.115,-0.225 -0.291,-0.114 -0.473,-0.405 -0.449,-0.717 -0.01,-0.184 -0.03,-0.367 -0.061,-0.548 0.457,-0.037 0.917,0.015 1.354,0.154 0.266,0.043 0.481,0.241 0.547,0.503 0.372,1.123 0.784,2.229 1.167,3.347 0.272,0.705 -0.079,1.498 -0.784,1.771 -0.117,0.045 -0.241,0.074 -0.367,0.086 -0.093,0.022 -0.171,0.084 -0.213,0.169 -0.29,0.773 -0.575,1.551 -0.844,2.334 -0.043,0.19 -0.067,0.385 -0.071,0.581 -0.073,0.689 -0.376,1.333 -0.86,1.829 C 4.372,-2.339 4.342,-2.165 4.42,-2.027 4.839,-1.086 4.637,0.015 3.911,0.745 3.837,0.837 3.793,0.95 3.785,1.068 v 0.663 c 0,0.131 -0.06,0.29 0.148,0.339 0,0 0.044,0.121 0.044,0.192 C 3.943,2.563 3.938,2.875 3.938,3.204"
         style="fill:#000000;fill-opacity:1;fill-rule:nonzero;stroke:none"
         transform="matrix(1.3333333,0,0,-1.3333333,260.08533,143.1448)"
         clip-path="url(#clipPath43)" />
      <path
         id="path44"
         d="M 0,0 0.065,0.039"
         style="fill:#000000;fill-opacity:1;fill-rule:nonzero;stroke:none"
         transform="matrix(1.3333333,0,0,-1.3333333,264.416,141.54587)"
         clip-path="url(#clipPath45)" />
      <path
         id="path46"
         d="M 0,0 H -0.077"
         style="fill:#000000;fill-opacity:1;fill-rule:nonzero;stroke:none"
         transform="matrix(1.3333333,0,0,-1.3333333,264.2116,138.85773)"
         clip-path="url(#clipPath47)" />
      <path
         id="path48"
         d="m 0,0 c -0.865,0 -1.566,-0.701 -1.566,-1.566 -0.007,-0.867 0.684,-1.577 1.55,-1.595 0.862,0.007 1.556,0.71 1.55,1.573 v 0.005 C 1.558,-0.733 0.889,-0.025 0.039,0 0.026,0 0.013,0 0,0"
         style="fill:#000000;fill-opacity:1;fill-rule:nonzero;stroke:none"
         transform="matrix(1.3333333,0,0,-1.3333333,201.75453,147.06667)"
         clip-path="url(#clipPath49)" />
      <path
         id="path50"
         d="m 0,0 c -0.11,-0.153 -0.236,-0.252 -0.219,-0.318 0.016,-0.065 0.136,-0.181 0.213,-0.263 0.083,0.082 0.203,0.159 0.225,0.258 C 0.241,-0.225 0.115,-0.153 0,0"
         style="fill:#000000;fill-opacity:1;fill-rule:nonzero;stroke:none"
         transform="matrix(1.3333333,0,0,-1.3333333,205.4284,148.71)"
         clip-path="url(#clipPath51)" />
      <path
         id="path52"
         d="M 0,0 C 0.055,0.099 0.164,0.197 0.159,0.291 0.139,0.413 0.024,0.497 -0.098,0.477 -0.194,0.462 -0.27,0.387 -0.285,0.291 c 0,-0.094 0.104,-0.198 0.164,-0.296 z"
         style="fill:#000000;fill-opacity:1;fill-rule:nonzero;stroke:none"
         transform="matrix(1.3333333,0,0,-1.3333333,198.1472,149.57907)"
         clip-path="url(#clipPath53)" />
      <path
         id="path54"
         d="M 0,0 C 0.159,-0.115 0.252,-0.225 0.323,-0.214 0.395,-0.203 0.487,-0.077 0.57,-0.006 0.487,0.077 0.417,0.197 0.318,0.224 0.219,0.252 0.159,0.126 0,0"
         style="fill:#000000;fill-opacity:1;fill-rule:nonzero;stroke:none"
         transform="matrix(1.3333333,0,0,-1.3333333,204.83653,148.11813)"
         clip-path="url(#clipPath55)" />
      <path
         id="path56"
         d="m 0,0 c 0.165,-0.115 0.257,-0.235 0.334,-0.219 0.077,0.016 0.17,0.142 0.252,0.224 C 0.509,0.083 0.433,0.219 0.351,0.225 0.269,0.23 0.148,0.115 0,0"
         style="fill:#000000;fill-opacity:1;fill-rule:nonzero;stroke:none"
         transform="matrix(1.3333333,0,0,-1.3333333,197.75973,150.24373)"
         clip-path="url(#clipPath57)" />
      <path
         id="path58"
         d="m 0,0 c -0.11,-0.148 -0.23,-0.241 -0.225,-0.323 0.006,-0.082 0.126,-0.17 0.198,-0.252 0.082,0.082 0.213,0.148 0.235,0.246 C 0.23,-0.23 0.087,-0.153 0,0"
         style="fill:#000000;fill-opacity:1;fill-rule:nonzero;stroke:none"
         transform="matrix(1.3333333,0,0,-1.3333333,198.68747,150.77693)"
         clip-path="url(#clipPath59)" />
      <path
         id="path60"
         d="M 0,0 C 0.104,0.17 0.213,0.274 0.208,0.362 0.203,0.449 0.071,0.515 -0.006,0.592 -0.088,0.509 -0.208,0.433 -0.23,0.334 -0.252,0.236 -0.121,0.165 0,0"
         style="fill:#000000;fill-opacity:1;fill-rule:nonzero;stroke:none"
         transform="matrix(1.3333333,0,0,-1.3333333,202.27347,145.88373)"
         clip-path="url(#clipPath61)" />
      <path
         id="path62"
         d="m 0,0 c 0.148,-0.12 0.247,-0.252 0.318,-0.241 0.071,0.011 0.164,0.148 0.246,0.23 C 0.487,0.066 0.417,0.192 0.334,0.203 0.252,0.214 0.159,0.099 0,0"
         style="fill:#000000;fill-opacity:1;fill-rule:nonzero;stroke:none"
         transform="matrix(1.3333333,0,0,-1.3333333,199.76827,145.70867)"
         clip-path="url(#clipPath63)" />
      <path
         id="path64"
         d="M 0,0 C 0.115,0.148 0.247,0.252 0.23,0.318 0.214,0.383 0.082,0.493 0,0.575 -0.077,0.493 -0.197,0.417 -0.208,0.329 -0.219,0.241 -0.099,0.131 0,0"
         style="fill:#000000;fill-opacity:1;fill-rule:nonzero;stroke:none"
         transform="matrix(1.3333333,0,0,-1.3333333,198.63613,147.56347)"
         clip-path="url(#clipPath65)" />
      <path
         id="path66"
         d="M 0,0 C 0.12,0.164 0.235,0.252 0.241,0.351 0.246,0.449 0.115,0.553 0.027,0.575 -0.071,0.605 -0.175,0.551 -0.206,0.453 -0.216,0.419 -0.217,0.384 -0.208,0.351 -0.192,0.252 -0.104,0.17 0,0"
         style="fill:#000000;fill-opacity:1;fill-rule:nonzero;stroke:none"
         transform="matrix(1.3333333,0,0,-1.3333333,205.2604,150.68907)"
         clip-path="url(#clipPath67)" />
      <path
         id="path68"
         d="m 0,0 c 0.153,-0.109 0.241,-0.219 0.323,-0.214 0.082,0.006 0.159,0.132 0.241,0.203 C 0.487,0.077 0.416,0.208 0.323,0.235 0.23,0.263 0.169,0.121 0,0"
         style="fill:#000000;fill-opacity:1;fill-rule:nonzero;stroke:none"
         transform="matrix(1.3333333,0,0,-1.3333333,202.84307,152.60253)"
         clip-path="url(#clipPath69)" />
      <path
         id="path70"
         d="m 0,0 c 0.153,-0.093 0.247,-0.203 0.329,-0.192 0.082,0.011 0.153,0.137 0.23,0.214 C 0.471,0.104 0.4,0.235 0.307,0.252 0.214,0.269 0.143,0.126 0,0"
         style="fill:#000000;fill-opacity:1;fill-rule:nonzero;stroke:none"
         transform="matrix(1.3333333,0,0,-1.3333333,200.7832,145.4528)"
         clip-path="url(#clipPath71)" />
      <path
         id="path72"
         d="M 0,0 C 0.104,0.148 0.213,0.241 0.208,0.323 0.203,0.406 0.065,0.559 0.011,0.548 -0.099,0.516 -0.187,0.432 -0.225,0.323 -0.241,0.247 -0.11,0.148 0,0"
         style="fill:#000000;fill-opacity:1;fill-rule:nonzero;stroke:none"
         transform="matrix(1.3333333,0,0,-1.3333333,204.1576,146.74573)"
         clip-path="url(#clipPath73)" />
      <path
         id="path74"
         d="M 0,0 C 0.109,0.153 0.235,0.257 0.219,0.334 0.181,0.441 0.093,0.522 -0.017,0.553 -0.071,0.553 -0.208,0.411 -0.214,0.329 -0.219,0.247 -0.104,0.148 0,0"
         style="fill:#000000;fill-opacity:1;fill-rule:nonzero;stroke:none"
         transform="matrix(1.3333333,0,0,-1.3333333,199.33013,146.76013)"
         clip-path="url(#clipPath75)" />
      <path
         id="path76"
         d="M 0,0 C 0.115,0.153 0.236,0.246 0.241,0.339 0.247,0.433 0.093,0.569 0.027,0.559 -0.086,0.53 -0.177,0.445 -0.213,0.334 -0.23,0.263 -0.109,0.159 0,0"
         style="fill:#000000;fill-opacity:1;fill-rule:nonzero;stroke:none"
         transform="matrix(1.3333333,0,0,-1.3333333,198.19787,148.55627)"
         clip-path="url(#clipPath77)" />
      <path
         id="path78"
         d="m 0,0 c -0.099,-0.153 -0.219,-0.252 -0.208,-0.329 0.011,-0.076 0.148,-0.164 0.23,-0.24 0.071,0.076 0.203,0.158 0.203,0.24 C 0.225,-0.246 0.109,-0.142 0,0"
         style="fill:#000000;fill-opacity:1;fill-rule:nonzero;stroke:none"
         transform="matrix(1.3333333,0,0,-1.3333333,199.33013,151.5804)"
         clip-path="url(#clipPath79)" />
      <path
         id="path80"
         d="M 0,0 C 0.148,-0.11 0.235,-0.23 0.318,-0.225 0.4,-0.219 0.482,-0.093 0.564,-0.017 0.482,0.065 0.411,0.203 0.318,0.219 0.225,0.235 0.148,0.104 0,0"
         style="fill:#000000;fill-opacity:1;fill-rule:nonzero;stroke:none"
         transform="matrix(1.3333333,0,0,-1.3333333,203.72653,152.01067)"
         clip-path="url(#clipPath81)" />
      <path
         id="path82"
         d="m 0,0 c 0.159,-0.099 0.252,-0.208 0.334,-0.192 0.082,0.017 0.153,0.137 0.23,0.214 C 0.482,0.104 0.405,0.23 0.307,0.252 0.208,0.274 0.147,0.104 0,0"
         style="fill:#000000;fill-opacity:1;fill-rule:nonzero;stroke:none"
         transform="matrix(1.3333333,0,0,-1.3333333,199.7904,152.63893)"
         clip-path="url(#clipPath83)" />
      <path
         id="path84"
         d="m 0,0 c 0.148,-0.121 0.241,-0.258 0.307,-0.241 0.066,0.016 0.175,0.142 0.257,0.224 C 0.488,0.06 0.422,0.191 0.334,0.203 0.247,0.213 0.181,0.104 0,0"
         style="fill:#000000;fill-opacity:1;fill-rule:nonzero;stroke:none"
         transform="matrix(1.3333333,0,0,-1.3333333,202.82813,145.7008)"
         clip-path="url(#clipPath85)" />
      <path
         id="path86"
         d="m 0,0 c 0.159,-0.121 0.247,-0.241 0.329,-0.241 0.106,0.022 0.192,0.1 0.224,0.203 0,0.082 -0.115,0.241 -0.186,0.241 C 0.296,0.203 0.17,0.104 0,0"
         style="fill:#000000;fill-opacity:1;fill-rule:nonzero;stroke:none"
         transform="matrix(1.3333333,0,0,-1.3333333,204.37627,147.0888)"
         clip-path="url(#clipPath87)" />
      <path
         id="path88"
         d="m 0,0 c 0.148,-0.126 0.23,-0.258 0.312,-0.252 0.107,0.027 0.192,0.108 0.225,0.213 0,0.077 -0.115,0.22 -0.197,0.236 C 0.257,0.213 0.159,0.099 0,0"
         style="fill:#000000;fill-opacity:1;fill-rule:nonzero;stroke:none"
         transform="matrix(1.3333333,0,0,-1.3333333,204.4056,151.17093)"
         clip-path="url(#clipPath89)" />
      <path
         id="path90"
         d="M 0,0 C 0.109,0.175 0.219,0.269 0.213,0.356 0.208,0.444 0.077,0.575 0.005,0.575 -0.103,0.553 -0.192,0.477 -0.23,0.373 -0.23,0.28 -0.115,0.181 0,0"
         style="fill:#000000;fill-opacity:1;fill-rule:nonzero;stroke:none"
         transform="matrix(1.3333333,0,0,-1.3333333,202.28053,153.3916)"
         clip-path="url(#clipPath91)" />
      <path
         id="path92"
         d="M 0,0 C 0.104,0.143 0.219,0.23 0.219,0.318 0.219,0.405 0.099,0.482 0.033,0.57 -0.055,0.493 -0.191,0.427 -0.213,0.334 -0.235,0.241 -0.104,0.153 0,0"
         style="fill:#000000;fill-opacity:1;fill-rule:nonzero;stroke:none"
         transform="matrix(1.3333333,0,0,-1.3333333,201.22133,153.36227)"
         clip-path="url(#clipPath93)" />
      <path
         id="path94"
         d="M 0,0 C 0.026,0.447 -0.315,0.831 -0.762,0.856 -0.802,0.859 -0.842,0.858 -0.882,0.854 -1.349,0.837 -1.718,0.451 -1.714,-0.016 -1.7,-0.5 -1.311,-0.889 -0.827,-0.904 -0.35,-0.883 0.021,-0.479 0,-0.001 Z"
         style="fill:#000000;fill-opacity:1;fill-rule:nonzero;stroke:none"
         transform="matrix(1.3333333,0,0,-1.3333333,263.64187,120.07453)"
         clip-path="url(#clipPath95)" />
      <path
         id="path96"
         d="m 0,0 c -0.131,0.153 0.071,0.411 -0.213,0.422 -0.044,0 -0.138,-0.159 -0.126,-0.175 0.092,-0.121 -0.105,-0.378 0.164,-0.4 C -0.126,-0.159 -0.049,-0.055 0,0"
         style="fill:#000000;fill-opacity:1;fill-rule:nonzero;stroke:none"
         transform="matrix(1.3333333,0,0,-1.3333333,260.0996,120.4612)"
         clip-path="url(#clipPath97)" />
      <path
         id="path98"
         d="m 0,0 c 0.104,-0.071 0.169,-0.142 0.23,-0.142 0.06,0 0.137,0.109 0.131,0.148 C 0.331,0.074 0.273,0.128 0.203,0.154 0.159,0.148 0.093,0.066 0,0"
         style="fill:#000000;fill-opacity:1;fill-rule:nonzero;stroke:none"
         transform="matrix(1.3333333,0,0,-1.3333333,263.40827,122.5576)"
         clip-path="url(#clipPath99)" />
      <path
         id="path100"
         d="M 0,0 C 0.11,-0.082 0.17,-0.159 0.236,-0.164 0.301,-0.169 0.373,-0.082 0.373,-0.027 0.365,0.042 0.321,0.103 0.258,0.132 0.192,0.132 0.121,0.066 0,0"
         style="fill:#000000;fill-opacity:1;fill-rule:nonzero;stroke:none"
         transform="matrix(1.3333333,0,0,-1.3333333,262.1588,122.82773)"
         clip-path="url(#clipPath101)" />
      <path
         id="path102"
         d="M 0,0 C 0.077,0.104 0.153,0.165 0.159,0.23 0.164,0.296 0.071,0.378 0.033,0.378 -0.044,0.366 -0.109,0.316 -0.143,0.247 -0.148,0.181 -0.061,0.115 0,0"
         style="fill:#000000;fill-opacity:1;fill-rule:nonzero;stroke:none"
         transform="matrix(1.3333333,0,0,-1.3333333,260.11453,119.1468)"
         clip-path="url(#clipPath103)" />
      <path
         id="path104"
         d="M 0,0 C 0.093,-0.071 0.153,-0.153 0.197,-0.143 0.241,-0.131 0.312,-0.049 0.373,0 0.312,0.055 0.263,0.137 0.197,0.153 0.131,0.17 0.093,0.082 0,0"
         style="fill:#000000;fill-opacity:1;fill-rule:nonzero;stroke:none"
         transform="matrix(1.3333333,0,0,-1.3333333,259.7344,121.09667)"
         clip-path="url(#clipPath105)" />
      <path
         id="path106"
         d="m 0,0 c -0.06,-0.104 -0.131,-0.17 -0.126,-0.225 0.006,-0.054 0.088,-0.104 0.137,-0.153 0.055,0.06 0.132,0.109 0.148,0.181 C 0.175,-0.126 0.104,-0.093 0,0"
         style="fill:#000000;fill-opacity:1;fill-rule:nonzero;stroke:none"
         transform="matrix(1.3333333,0,0,-1.3333333,262.086,117.07973)"
         clip-path="url(#clipPath107)" />
      <path
         id="path108"
         d="M 0,0 C 0.071,0.121 0.143,0.192 0.137,0.258 0.132,0.323 0.039,0.384 -0.016,0.378 -0.083,0.361 -0.136,0.308 -0.153,0.241 -0.148,0.17 -0.077,0.115 0,0"
         style="fill:#000000;fill-opacity:1;fill-rule:nonzero;stroke:none"
         transform="matrix(1.3333333,0,0,-1.3333333,264.6712,122.05373)"
         clip-path="url(#clipPath109)" />
      <path
         id="path110"
         d="m 0,0 c -0.066,-0.099 -0.137,-0.159 -0.143,-0.23 -0.005,-0.071 0.11,-0.137 0.148,-0.126 0.073,0.025 0.129,0.085 0.148,0.159 C 0.164,-0.17 0.077,-0.104 0,0"
         style="fill:#000000;fill-opacity:1;fill-rule:nonzero;stroke:none"
         transform="matrix(1.3333333,0,0,-1.3333333,263.91933,117.44493)"
         clip-path="url(#clipPath111)" />
      <path
         id="path112"
         d="m 0,0 c -0.077,-0.11 -0.159,-0.175 -0.153,-0.236 0.024,-0.072 0.085,-0.125 0.158,-0.142 0.033,0 0.132,0.087 0.132,0.137 C 0.137,-0.192 0.066,-0.115 0,0"
         style="fill:#000000;fill-opacity:1;fill-rule:nonzero;stroke:none"
         transform="matrix(1.3333333,0,0,-1.3333333,264.82493,118.35773)"
         clip-path="url(#clipPath113)" />
      <path
         id="path114"
         d="m 0,0 c 0.099,-0.066 0.164,-0.148 0.208,-0.137 0.069,0.032 0.12,0.092 0.143,0.164 0,0.038 -0.099,0.142 -0.138,0.137 C 0.175,0.159 0.093,0.077 0,0"
         style="fill:#000000;fill-opacity:1;fill-rule:nonzero;stroke:none"
         transform="matrix(1.3333333,0,0,-1.3333333,259.62493,119.46053)"
         clip-path="url(#clipPath115)" />
      <path
         id="path116"
         d="m 0,0 c 0.104,-0.066 0.175,-0.137 0.219,-0.126 0.07,0.03 0.122,0.091 0.142,0.164 0,0.039 -0.098,0.143 -0.142,0.137 C 0.175,0.169 0.099,0.082 0,0"
         style="fill:#000000;fill-opacity:1;fill-rule:nonzero;stroke:none"
         transform="matrix(1.3333333,0,0,-1.3333333,260.4356,122.17733)"
         clip-path="url(#clipPath117)" />
      <path
         id="path118"
         d="m 0,0 c -0.077,-0.115 -0.148,-0.175 -0.148,-0.235 0,-0.06 0.077,-0.104 0.12,-0.159 0.055,0.055 0.132,0.099 0.154,0.164 C 0.147,-0.164 0.065,-0.12 0,0"
         style="fill:#000000;fill-opacity:1;fill-rule:nonzero;stroke:none"
         transform="matrix(1.3333333,0,0,-1.3333333,261.86,122.45533)"
         clip-path="url(#clipPath119)" />
      <path
         id="path120"
         d="m 0,0 c -0.077,-0.11 -0.154,-0.175 -0.154,-0.241 0,-0.066 0.105,-0.142 0.143,-0.132 0.07,0.026 0.125,0.082 0.148,0.154 C 0.142,-0.17 0.065,-0.104 0,0"
         style="fill:#000000;fill-opacity:1;fill-rule:nonzero;stroke:none"
         transform="matrix(1.3333333,0,0,-1.3333333,263.1016,122.47693)"
         clip-path="url(#clipPath121)" />
      <path
         id="path122"
         d="m 0,0 c 0.088,-0.071 0.159,-0.159 0.197,-0.148 0.039,0.011 0.11,0.11 0.165,0.165 C 0.301,0.066 0.252,0.148 0.187,0.159 0.121,0.17 0.083,0.071 0,0"
         style="fill:#000000;fill-opacity:1;fill-rule:nonzero;stroke:none"
         transform="matrix(1.3333333,0,0,-1.3333333,264.70773,121.19173)"
         clip-path="url(#clipPath123)" />
      <path
         id="path124"
         d="M 0,0 C 0.06,0.104 0.137,0.17 0.126,0.219 0.107,0.284 0.061,0.338 0,0.367 -0.039,0.367 -0.137,0.274 -0.132,0.23 -0.126,0.187 -0.055,0.099 0,0"
         style="fill:#000000;fill-opacity:1;fill-rule:nonzero;stroke:none"
         transform="matrix(1.3333333,0,0,-1.3333333,265.14653,120.85573)"
         clip-path="url(#clipPath125)" />
      <path
         id="path126"
         d="M 0,0 C 0.11,-0.087 0.17,-0.164 0.236,-0.175 0.301,-0.186 0.367,-0.087 0.373,-0.033 0.378,0.022 0.296,0.121 0.252,0.121 0.208,0.121 0.121,0.061 0,0"
         style="fill:#000000;fill-opacity:1;fill-rule:nonzero;stroke:none"
         transform="matrix(1.3333333,0,0,-1.3333333,260.64,117.8324)"
         clip-path="url(#clipPath127)" />
      <path
         id="path128"
         d="m 0,0 c -0.066,-0.104 -0.132,-0.17 -0.137,-0.241 -0.006,-0.071 0.11,-0.126 0.153,-0.115 0.068,0.028 0.119,0.087 0.137,0.159 C 0.148,-0.148 0.06,-0.093 0,0"
         style="fill:#000000;fill-opacity:1;fill-rule:nonzero;stroke:none"
         transform="matrix(1.3333333,0,0,-1.3333333,261.4948,117.24773)"
         clip-path="url(#clipPath129)" />
      <path
         id="path130"
         d="m 0,0 c -0.065,-0.087 -0.153,-0.153 -0.142,-0.197 0.03,-0.07 0.087,-0.123 0.159,-0.148 0.027,0 0.12,0.093 0.126,0.142 C 0.148,-0.153 0.066,-0.087 0,0"
         style="fill:#000000;fill-opacity:1;fill-rule:nonzero;stroke:none"
         transform="matrix(1.3333333,0,0,-1.3333333,260.3112,121.38893)"
         clip-path="url(#clipPath131)" />
      <path
         id="path132"
         d="M 0,0 C 0.104,-0.066 0.159,-0.137 0.219,-0.132 0.28,-0.126 0.323,-0.055 0.373,-0.006 0.318,0.049 0.274,0.131 0.214,0.148 0.154,0.164 0.104,0.071 0,0"
         style="fill:#000000;fill-opacity:1;fill-rule:nonzero;stroke:none"
         transform="matrix(1.3333333,0,0,-1.3333333,263.0644,117.48147)"
         clip-path="url(#clipPath133)" />
      <path
         id="path134"
         d="m 0,0 c 0.088,-0.077 0.143,-0.153 0.197,-0.153 0.055,0 0.104,0.076 0.159,0.115 C 0.312,0.022 0.269,0.109 0.214,0.131 0.159,0.153 0.099,0.066 0,0"
         style="fill:#000000;fill-opacity:1;fill-rule:nonzero;stroke:none"
         transform="matrix(1.3333333,0,0,-1.3333333,262.45827,117.3356)"
         clip-path="url(#clipPath135)" />
      <path
         id="path136"
         d="m 0,0 c -0.06,-0.082 -0.137,-0.142 -0.131,-0.186 0.005,-0.044 0.076,-0.115 0.12,-0.17 0.06,0.049 0.137,0.099 0.159,0.165 C 0.17,-0.126 0.061,-0.087 0,0"
         style="fill:#000000;fill-opacity:1;fill-rule:nonzero;stroke:none"
         transform="matrix(1.3333333,0,0,-1.3333333,265.06573,119.00813)"
         clip-path="url(#clipPath137)" />
      <path
         id="path138"
         d="m 0,0 c -0.066,-0.104 -0.131,-0.164 -0.131,-0.219 0,-0.055 0.082,-0.11 0.126,-0.159 0.048,0.049 0.131,0.099 0.147,0.165 C 0.159,-0.147 0.077,-0.104 0,0"
         style="fill:#000000;fill-opacity:1;fill-rule:nonzero;stroke:none"
         transform="matrix(1.3333333,0,0,-1.3333333,264.416,117.8616)"
         clip-path="url(#clipPath139)" />
      <path
         id="path140"
         d="m 0,0 c 0.088,-0.077 0.143,-0.153 0.192,-0.148 0.049,0.005 0.104,0.082 0.153,0.126 C 0.296,0.038 0.252,0.121 0.192,0.142 0.131,0.164 0.088,0.071 0,0"
         style="fill:#000000;fill-opacity:1;fill-rule:nonzero;stroke:none"
         transform="matrix(1.3333333,0,0,-1.3333333,263.95573,122.20667)"
         clip-path="url(#clipPath141)" />
      <path
         id="path142"
         d="m 0,0 c 0.093,-0.066 0.153,-0.143 0.203,-0.131 0.078,0 0.142,0.063 0.142,0.142 0,0.078 -0.064,0.142 -0.142,0.142 C 0.142,0.159 0.087,0.077 0,0"
         style="fill:#000000;fill-opacity:1;fill-rule:nonzero;stroke:none"
         transform="matrix(1.3333333,0,0,-1.3333333,260.2168,118.31413)"
         clip-path="url(#clipPath143)" />
      <path
         id="path144"
         d="m 0,0 c -0.071,-0.099 -0.148,-0.153 -0.143,-0.203 0.006,-0.049 0.082,-0.142 0.132,-0.142 0.049,0 0.137,0.076 0.148,0.126 C 0.148,-0.17 0.071,-0.104 0,0"
         style="fill:#000000;fill-opacity:1;fill-rule:nonzero;stroke:none"
         transform="matrix(1.3333333,0,0,-1.3333333,261.26107,122.2432)"
         clip-path="url(#clipPath145)" />
      <path
         id="path146"
         d="m 0,0 c -0.061,-0.104 -0.132,-0.164 -0.121,-0.213 0.019,-0.065 0.072,-0.115 0.137,-0.132 0.068,0.02 0.12,0.074 0.137,0.142 C 0.175,-0.147 0.098,-0.093 0,0"
         style="fill:#000000;fill-opacity:1;fill-rule:nonzero;stroke:none"
         transform="matrix(1.3333333,0,0,-1.3333333,265.14653,119.6364)"
         clip-path="url(#clipPath147)" />
      <path
         id="path148"
         d="m 0,0 c -0.006,-0.469 0.369,-0.854 0.838,-0.86 0.009,0 0.018,0 0.027,0 0.488,0 0.882,0.395 0.882,0.882 0,0.487 -0.394,0.882 -0.882,0.882 C 0.394,0.911 0.005,0.534 -0.001,0.062 -0.002,0.041 -0.001,0.021 0,0"
         style="fill:#000000;fill-opacity:1;fill-rule:nonzero;stroke:none"
         transform="matrix(1.3333333,0,0,-1.3333333,225.09573,125.25227)"
         clip-path="url(#clipPath149)" />
      <path
         id="path150"
         d="m 0,0 c 0.109,-0.077 0.17,-0.148 0.235,-0.148 0.066,0 0.143,0.093 0.138,0.131 C 0.355,0.058 0.305,0.121 0.235,0.153 0.181,0.159 0.115,0.077 0,0"
         style="fill:#000000;fill-opacity:1;fill-rule:nonzero;stroke:none"
         transform="matrix(1.3333333,0,0,-1.3333333,224.46027,127.40653)"
         clip-path="url(#clipPath151)" />
      <path
         id="path152"
         d="M 0,0 C 0.115,-0.055 0.187,-0.121 0.247,-0.11 0.307,-0.099 0.384,0.005 0.373,0.033 0.362,0.06 0.274,0.186 0.214,0.186 0.153,0.186 0.099,0.093 0,0"
         style="fill:#000000;fill-opacity:1;fill-rule:nonzero;stroke:none"
         transform="matrix(1.3333333,0,0,-1.3333333,226.85547,127.7496)"
         clip-path="url(#clipPath153)" />
      <path
         id="path154"
         d="M 0,0 C 0.066,0.109 0.132,0.175 0.132,0.241 0.132,0.307 0.033,0.395 0.006,0.383 -0.022,0.373 -0.153,0.296 -0.159,0.235 -0.164,0.175 -0.082,0.109 0,0"
         style="fill:#000000;fill-opacity:1;fill-rule:nonzero;stroke:none"
         transform="matrix(1.3333333,0,0,-1.3333333,224.30667,123.77693)"
         clip-path="url(#clipPath155)" />
      <path
         id="path156"
         d="m 0,0 c 0.093,-0.071 0.159,-0.153 0.203,-0.148 0.072,0.029 0.13,0.086 0.158,0.159 0,0.033 -0.093,0.148 -0.136,0.142 C 0.181,0.148 0.099,0.077 0,0"
         style="fill:#000000;fill-opacity:1;fill-rule:nonzero;stroke:none"
         transform="matrix(1.3333333,0,0,-1.3333333,228.44787,125.8512)"
         clip-path="url(#clipPath157)" />
      <path
         id="path158"
         d="m 0,0 c -0.071,-0.093 -0.159,-0.153 -0.148,-0.203 0.011,-0.049 0.083,-0.126 0.126,-0.192 0.055,0.05 0.153,0.099 0.153,0.148 C 0.131,-0.197 0.066,-0.11 0,0"
         style="fill:#000000;fill-opacity:1;fill-rule:nonzero;stroke:none"
         transform="matrix(1.3333333,0,0,-1.3333333,223.664,124.93067)"
         clip-path="url(#clipPath159)" />
      <path
         id="path160"
         d="m 0,0 c 0.115,-0.066 0.175,-0.137 0.235,-0.132 0.06,0.006 0.148,0.104 0.137,0.137 C 0.352,0.08 0.297,0.141 0.225,0.169 0.175,0.175 0.087,0.087 0,0"
         style="fill:#000000;fill-opacity:1;fill-rule:nonzero;stroke:none"
         transform="matrix(1.3333333,0,0,-1.3333333,228.51373,125.23733)"
         clip-path="url(#clipPath161)" />
      <path
         id="path162"
         d="M 0,0 C 0.077,0.087 0.159,0.148 0.148,0.186 0.137,0.225 0.065,0.307 0.022,0.367 -0.033,0.312 -0.115,0.269 -0.137,0.197 -0.159,0.126 -0.066,0.093 0,0"
         style="fill:#000000;fill-opacity:1;fill-rule:nonzero;stroke:none"
         transform="matrix(1.3333333,0,0,-1.3333333,224.2852,127.26787)"
         clip-path="url(#clipPath163)" />
      <path
         id="path164"
         d="m 0,0 c -0.065,-0.087 -0.148,-0.159 -0.142,-0.203 0.005,-0.044 0.099,-0.114 0.153,-0.175 0.044,0.061 0.126,0.115 0.132,0.181 C 0.148,-0.131 0.071,-0.087 0,0"
         style="fill:#000000;fill-opacity:1;fill-rule:nonzero;stroke:none"
         transform="matrix(1.3333333,0,0,-1.3333333,225.3144,127.42867)"
         clip-path="url(#clipPath165)" />
      <path
         id="path166"
         d="m 0,0 c 0.099,-0.077 0.153,-0.159 0.219,-0.159 0.066,0 0.142,0.099 0.132,0.137 C 0.332,0.054 0.276,0.116 0.203,0.143 0.164,0.131 0.099,0.071 0,0"
         style="fill:#000000;fill-opacity:1;fill-rule:nonzero;stroke:none"
         transform="matrix(1.3333333,0,0,-1.3333333,225.03,122.73267)"
         clip-path="url(#clipPath167)" />
      <path
         id="path168"
         d="M 0,0 C 0.11,-0.06 0.175,-0.131 0.225,-0.12 0.274,-0.109 0.329,-0.027 0.378,0.028 0.329,0.077 0.274,0.17 0.23,0.165 0.187,0.159 0.104,0.083 0,0"
         style="fill:#000000;fill-opacity:1;fill-rule:nonzero;stroke:none"
         transform="matrix(1.3333333,0,0,-1.3333333,228.43293,124.60253)"
         clip-path="url(#clipPath169)" />
      <path
         id="path170"
         d="m 0,0 c -0.071,-0.115 -0.153,-0.192 -0.142,-0.247 0.011,-0.054 0.109,-0.126 0.181,-0.136 0.071,-0.012 0.126,0.104 0.12,0.153 C 0.153,-0.181 0.077,-0.093 0,0"
         style="fill:#000000;fill-opacity:1;fill-rule:nonzero;stroke:none"
         transform="matrix(1.3333333,0,0,-1.3333333,227.1256,122.4332)"
         clip-path="url(#clipPath171)" />
      <path
         id="path172"
         d="m 0,0 c -0.077,-0.099 -0.153,-0.159 -0.159,-0.225 -0.006,-0.065 0.082,-0.104 0.132,-0.158 0.054,0.054 0.136,0.098 0.153,0.164 C 0.142,-0.153 0.065,-0.093 0,0"
         style="fill:#000000;fill-opacity:1;fill-rule:nonzero;stroke:none"
         transform="matrix(1.3333333,0,0,-1.3333333,228.17773,123.16373)"
         clip-path="url(#clipPath173)" />
      <path
         id="path174"
         d="M 0,0 C 0.087,-0.066 0.159,-0.148 0.197,-0.131 0.235,-0.115 0.296,-0.022 0.345,0.038 0.29,0.082 0.235,0.159 0.181,0.159 0.126,0.159 0.077,0.082 0,0"
         style="fill:#000000;fill-opacity:1;fill-rule:nonzero;stroke:none"
         transform="matrix(1.3333333,0,0,-1.3333333,228.25067,124.01787)"
         clip-path="url(#clipPath175)" />
      <path
         id="path176"
         d="M 0,0 C 0.093,-0.071 0.159,-0.153 0.203,-0.143 0.247,-0.131 0.312,-0.044 0.367,0.011 0.312,0.06 0.258,0.137 0.192,0.148 0.126,0.159 0.088,0.071 0,0"
         style="fill:#000000;fill-opacity:1;fill-rule:nonzero;stroke:none"
         transform="matrix(1.3333333,0,0,-1.3333333,224.47467,123.04653)"
         clip-path="url(#clipPath177)" />
      <path
         id="path178"
         d="M 0,0 C 0.06,0.104 0.137,0.181 0.126,0.219 0.115,0.257 0.017,0.317 -0.039,0.367 -0.077,0.312 -0.148,0.257 -0.148,0.203 -0.148,0.148 -0.077,0.099 0,0"
         style="fill:#000000;fill-opacity:1;fill-rule:nonzero;stroke:none"
         transform="matrix(1.3333333,0,0,-1.3333333,225.9356,122.87853)"
         clip-path="url(#clipPath179)" />
      <path
         id="path180"
         d="m 0,0 c 0.099,-0.066 0.165,-0.143 0.208,-0.131 0.044,0.01 0.11,0.098 0.165,0.148 C 0.312,0.066 0.258,0.143 0.192,0.159 0.126,0.175 0.093,0.077 0,0"
         style="fill:#000000;fill-opacity:1;fill-rule:nonzero;stroke:none"
         transform="matrix(1.3333333,0,0,-1.3333333,226.25653,122.6012)"
         clip-path="url(#clipPath181)" />
      <path
         id="path182"
         d="M 0,0 C 0.071,0.088 0.159,0.153 0.148,0.197 0.137,0.241 0.049,0.312 -0.006,0.367 -0.049,0.318 -0.132,0.263 -0.137,0.208 -0.143,0.153 -0.066,0.093 0,0"
         style="fill:#000000;fill-opacity:1;fill-rule:nonzero;stroke:none"
         transform="matrix(1.3333333,0,0,-1.3333333,223.71547,126.15067)"
         clip-path="url(#clipPath183)" />
      <path
         id="path184"
         d="m 0,0 c 0.11,-0.065 0.175,-0.137 0.241,-0.137 0.066,0 0.126,0.094 0.126,0.143 0,0.049 -0.082,0.153 -0.126,0.148 C 0.197,0.148 0.088,0.077 0,0"
         style="fill:#000000;fill-opacity:1;fill-rule:nonzero;stroke:none"
         transform="matrix(1.3333333,0,0,-1.3333333,227.89973,126.98333)"
         clip-path="url(#clipPath185)" />
      <path
         id="path186"
         d="M 0,0 C -0.077,-0.093 -0.159,-0.165 -0.148,-0.203 -0.137,-0.241 -0.049,-0.312 0,-0.373 0.049,-0.318 0.121,-0.269 0.126,-0.208 0.131,-0.148 0.077,-0.071 0,0"
         style="fill:#000000;fill-opacity:1;fill-rule:nonzero;stroke:none"
         transform="matrix(1.3333333,0,0,-1.3333333,228.528,126.20867)"
         clip-path="url(#clipPath187)" />
      <path
         id="path188"
         d="m 0,0 c -0.077,-0.093 -0.165,-0.159 -0.153,-0.203 0.01,-0.044 0.098,-0.115 0.153,-0.17 0.044,0.05 0.121,0.099 0.131,0.159 C 0.143,-0.154 0.065,-0.077 0,0"
         style="fill:#000000;fill-opacity:1;fill-rule:nonzero;stroke:none"
         transform="matrix(1.3333333,0,0,-1.3333333,223.9564,126.20867)"
         clip-path="url(#clipPath189)" />
      <path
         id="path190"
         d="m 0,0 c 0.088,-0.066 0.148,-0.143 0.197,-0.143 0.05,0 0.11,0.088 0.159,0.132 C 0.307,0.049 0.257,0.137 0.197,0.148 0.137,0.159 0.088,0.087 0,0"
         style="fill:#000000;fill-opacity:1;fill-rule:nonzero;stroke:none"
         transform="matrix(1.3333333,0,0,-1.3333333,223.664,124.01787)"
         clip-path="url(#clipPath191)" />
      <path
         id="path192"
         d="M 0,0 C 0.06,0.104 0.126,0.169 0.115,0.219 0.104,0.268 0.022,0.356 -0.027,0.35 -0.093,0.328 -0.141,0.271 -0.153,0.203 -0.159,0.153 -0.077,0.098 0,0"
         style="fill:#000000;fill-opacity:1;fill-rule:nonzero;stroke:none"
         transform="matrix(1.3333333,0,0,-1.3333333,227.71747,123.32387)"
         clip-path="url(#clipPath193)" />
      <path
         id="path194"
         d="m 0,0 c 0.104,-0.071 0.159,-0.143 0.214,-0.137 0.055,0.005 0.104,0.082 0.159,0.131 C 0.318,0.049 0.269,0.131 0.208,0.148 0.148,0.164 0.099,0.077 0,0"
         style="fill:#000000;fill-opacity:1;fill-rule:nonzero;stroke:none"
         transform="matrix(1.3333333,0,0,-1.3333333,223.4304,124.59467)"
         clip-path="url(#clipPath195)" />
      <path
         id="path196"
         d="m 0,0 c -0.088,0.065 -0.159,0.147 -0.197,0.137 -0.039,-0.011 -0.104,-0.11 -0.154,-0.17 0.055,-0.044 0.11,-0.126 0.164,-0.126 0.055,0 0.132,0.082 0.187,0.159"
         style="fill:#000000;fill-opacity:1;fill-rule:nonzero;stroke:none"
         transform="matrix(1.3333333,0,0,-1.3333333,227.97333,127.3844)"
         clip-path="url(#clipPath197)" />
      <path
         id="path198"
         d="M 0,0 C 0.109,-0.066 0.17,-0.131 0.225,-0.126 0.279,-0.121 0.323,-0.033 0.373,0.017 0.318,0.066 0.269,0.148 0.208,0.153 0.148,0.159 0.099,0.077 0,0"
         style="fill:#000000;fill-opacity:1;fill-rule:nonzero;stroke:none"
         transform="matrix(1.3333333,0,0,-1.3333333,225.63613,127.874)"
         clip-path="url(#clipPath199)" />
      <path
         id="path200"
         d="M 0,0 C 0.065,0 0.131,-0.088 0.186,-0.077 0.241,-0.066 0.279,0.022 0.323,0.071 0.263,0.115 0.203,0.192 0.137,0.197 0.071,0.203 0,0.153 -0.071,0.126 Z"
         style="fill:#000000;fill-opacity:1;fill-rule:nonzero;stroke:none"
         transform="matrix(1.3333333,0,0,-1.3333333,226.33013,127.93973)"
         clip-path="url(#clipPath201)" />
      <path
         id="path202"
         d="m 0,0 0.077,-0.044 0.63,1.945 -0.099,0.033 z m -3.286,-7.592 c 0,0.4 0.41,0.718 0.126,1.189 L -3.643,-7.499 Z M -9.788,8.019 c 0.684,-0.11 0.991,0.027 1.211,0.548 C -9.038,8.501 -9.503,8.496 -9.788,8.019 m 7.915,0.904 C -0.818,8.533 0.043,7.747 0.526,6.732 0.22,7.839 -0.524,8.774 -1.533,9.323 Z m -8.621,-15.2 c 0.45,-0.01 0.823,0.348 0.832,0.799 0.001,0.015 0.001,0.03 0,0.044 -0.003,0.454 -0.363,0.824 -0.817,0.838 -0.468,0.01 -0.855,-0.363 -0.865,-0.832 v -0.016 c 0.009,-0.461 0.389,-0.828 0.85,-0.822 z m 6.572,-1.977 c -0.399,-1.038 -0.599,-2.142 -0.586,-3.254 -0.021,-0.65 0.171,-1.288 0.548,-1.819 0.185,-0.25 0.506,-0.359 0.805,-0.273 0.444,0.21 0.764,0.615 0.866,1.095 -0.038,-0.043 -0.072,-0.089 -0.105,-0.137 -0.176,-0.367 -0.571,-0.577 -0.974,-0.52 -0.434,0.074 -0.761,0.433 -0.795,0.871 -0.09,0.629 -0.053,1.27 0.11,1.884 0.142,0.674 0.318,1.342 0.482,2.032 z m -3.462,16.98 c 0.309,-0.002 0.615,0.018 0.921,0.06 0.964,0.254 1.955,0.386 2.952,0.394 0.068,0.003 0.132,0.03 0.181,0.077 0.132,0.164 0.252,0.339 0.411,0.548 -1.622,0.153 -3.106,-0.034 -4.47,-1.079 z M -8.145,7.98 c 1.304,0 2.602,0.028 3.906,0 0.323,0 0.614,0.198 0.733,0.499 0.077,0.126 0.033,0.334 0.044,0.548 C -4.01,8.983 -4.497,8.961 -4.974,8.901 -5.74,8.808 -6.469,8.474 -7.258,8.556 -7.712,8.6 -7.926,8.304 -8.15,7.98 Z m 5.127,-16.541 c -0.087,-0.323 -0.17,-0.603 -0.241,-0.882 -0.261,-0.803 -0.396,-1.642 -0.4,-2.487 0,-0.274 0.044,-0.586 0.367,-0.657 0.323,-0.071 0.422,0.208 0.548,0.416 0.386,0.866 0.612,1.794 0.668,2.739 10e-4,0.223 -0.088,0.435 -0.246,0.592 -0.214,0.137 -0.452,0.232 -0.701,0.279 z M -7.882,3.971 c 0.009,1.352 -1.08,2.456 -2.431,2.465 h -0.023 c -1.361,0.091 -2.538,-0.939 -2.629,-2.3 -0.091,-1.362 0.94,-2.539 2.3,-2.63 0.11,-0.007 0.22,-0.007 0.329,0 1.354,0.013 2.445,1.112 2.448,2.465 z M -19.259,0.86 c 0.381,0.185 0.747,0.4 1.096,0.641 0.687,0.434 1.087,1.204 1.046,2.016 -0.035,0.291 -0.035,0.585 0,0.876 0.058,0.579 -0.142,1.154 -0.547,1.572 -0.412,0.523 -0.993,0.887 -1.644,1.03 V 6.617 l 0.257,-0.077 c 0,-0.4 0,-0.4 0.351,-0.63 1.08,-0.715 1.375,-2.169 0.66,-3.249 -0.176,-0.265 -0.404,-0.493 -0.671,-0.667 -0.219,-0.142 -0.355,-0.274 -0.307,-0.548 0.008,-0.027 0.008,-0.055 0,-0.082 l -0.235,-0.066 z m 13.584,-3.889 c -0.065,-0.384 -0.115,-0.701 -0.17,-1.019 0,0 -0.059,-0.033 -0.065,-0.055 -0.014,-0.052 -0.026,-0.105 -0.033,-0.158 -0.038,-0.285 -0.055,-0.548 -0.115,-0.849 -0.06,-0.302 -0.197,-0.674 -0.301,-1.014 l 0.827,-0.306 -0.088,-0.367 1.786,-0.63 c 0.159,0.35 0.328,0.674 0.454,1.008 0.065,0.148 0.065,0.316 0,0.465 -0.416,0.641 -0.849,1.276 -1.308,1.879 -0.33,0.372 -0.658,0.696 -0.987,1.046 m 7,-9.268 c 0.025,-1.246 1.055,-2.236 2.301,-2.212 1.246,0.024 2.236,1.054 2.212,2.301 -0.025,1.239 -1.043,2.227 -2.283,2.212 -1.244,-0.015 -2.242,-1.034 -2.23,-2.279 z m -3.609,-21.909 0.05,-0.033 c 0.208,0.236 0.422,0.471 0.624,0.712 0.76,0.828 1.323,1.819 1.643,2.898 0.372,1.429 0.745,2.859 1.151,4.277 0.103,0.362 -0.05,0.51 -0.319,0.674 -0.015,-0.041 -0.028,-0.083 -0.038,-0.126 -0.181,-0.706 -0.356,-1.419 -0.548,-2.131 0,-0.076 -0.132,-0.197 -0.159,-0.191 -0.213,0.076 -0.301,-0.061 -0.421,-0.181 -0.114,-0.127 -0.255,-0.228 -0.411,-0.296 -0.155,-0.045 -0.267,-0.179 -0.285,-0.339 -0.235,-0.964 -0.477,-1.929 -0.712,-2.898 -0.197,-0.789 -0.389,-1.577 -0.569,-2.366 z m 0.849,-9.312 c 1.836,-0.021 3.341,1.451 3.363,3.287 0.02,1.836 -1.45,3.341 -3.286,3.362 -1.837,0.021 -3.342,-1.45 -3.364,-3.286 v -0.076 c 0.024,-1.806 1.482,-3.263 3.287,-3.287 m -0.925,43.491 1.205,-1.348 c 0.038,0.039 0.059,0.049 0.065,0.066 0.639,1.714 1.175,3.464 1.605,5.242 C 0.792,4.801 0.747,5.74 0.389,6.579 -0.057,7.607 -0.913,8.402 -1.972,8.77 -2.037,8.687 -2.093,8.627 -2.136,8.567 -2.316,8.326 -2.476,8.068 -2.849,8.205 c -0.043,0 -0.136,-0.093 -0.208,-0.142 l 0.034,-0.071 h 1.249 V 7.039 c 0.75,-0.192 1.056,-0.521 1.056,-1.151 V 2.257 c 0,-0.86 -0.202,-1.096 -1.052,-1.364 v -0.915 z m -4.47,-5.949 0.12,0.548 c 0.082,0.372 0.17,0.74 0.252,1.095 l 0.214,1.052 c 0.009,0.049 0.023,0.097 0.044,0.142 0.143,0.228 0.076,0.529 -0.152,0.673 -10e-4,0.001 -0.002,0.001 -0.002,0.001 -1.057,0.751 -2.109,1.507 -3.182,2.24 -0.181,0.12 -0.392,0.182 -0.609,0.181 -0.685,-0.021 -1.367,0.113 -1.993,0.395 -0.246,0.095 -0.501,0.165 -0.761,0.208 l -0.049,-0.082 1.035,-2.433 0.088,0.066 c 0.076,-0.071 0.191,-0.131 0.229,-0.219 0.263,-0.597 0.515,-1.199 0.767,-1.786 1.096,0.044 1.49,-0.24 1.89,-1.281 0.049,-0.082 0.127,-0.142 0.219,-0.17 0.603,-0.197 1.205,-0.394 1.89,-0.63 m -0.548,-1.501 -1.604,0.548 c -0.101,0.045 -0.206,0.078 -0.313,0.099 -0.172,0.027 -0.348,0.018 -0.515,-0.027 -0.623,-0.286 -1.359,-0.143 -1.83,0.356 -0.483,0.52 -0.545,1.305 -0.147,1.895 0.104,0.136 0.117,0.321 0.032,0.471 -0.273,0.618 -0.547,1.238 -0.794,1.857 0.082,0.092 0.149,0.208 0.115,0.279 -0.321,0.789 -0.655,1.574 -1.002,2.355 -0.048,0.081 -0.131,0.136 -0.224,0.148 -0.321,0.022 -0.644,0.022 -0.965,0 -0.11,-0.031 -0.199,-0.115 -0.235,-0.225 -0.011,-0.205 0.006,-0.412 0.049,-0.613 0.044,-0.269 0.121,-0.548 0.165,-0.8 0.054,-0.356 0.092,-0.712 0.131,-1.068 0,-0.11 -0.044,-0.236 0,-0.34 0.06,-0.279 0.154,-0.547 0.219,-0.821 v -0.28 c 0.066,-0.284 0.164,-0.547 0.231,-0.843 0.065,-0.296 0.065,-0.504 0.141,-0.745 0.077,-0.241 0.241,-0.487 0.313,-0.75 0.057,-0.338 0.188,-0.66 0.383,-0.942 0.039,-0.055 0,-0.148 0.044,-0.22 0.015,-0.051 0.038,-0.101 0.066,-0.148 0.164,-0.24 0.328,-0.476 0.498,-0.706 0.138,-0.192 0.288,-0.375 0.449,-0.547 0.114,-0.12 0.25,-0.217 0.4,-0.286 0.241,-0.104 0.504,-0.175 0.756,-0.268 0.087,-0.033 0.17,-0.115 0.257,-0.137 0.275,-0.06 0.548,-0.109 0.833,-0.142 0.284,-0.033 0.504,-0.104 0.657,0 0.154,0.104 0.548,0.038 0.652,0.323 0,0.027 0.077,0 0.11,0.049 0.183,0.118 0.35,0.257 0.498,0.417 0.156,0.229 0.298,0.469 0.422,0.717 0.049,0.132 0.126,0.252 0.208,0.394 m 4.743,-19.981 c 0.252,1.03 0.504,2.032 0.751,3.04 0.12,0.487 0.246,0.975 0.356,1.462 0.037,0.112 0.037,0.233 0,0.346 -0.399,0.79 -0.484,1.702 -0.236,2.552 0.548,2.317 1.096,4.639 1.644,6.962 0.005,0.027 0.005,0.054 0,0.082 -0.806,0.367 -1.189,1.095 -1.49,1.977 -0.077,-0.361 -0.132,-0.641 -0.192,-0.915 -0.112,-0.524 -0.351,-1.013 -0.696,-1.423 -0.323,-0.442 -0.943,-0.538 -1.386,-0.214 -0.102,0.076 -0.19,0.171 -0.257,0.279 -0.333,0.535 -0.5,1.156 -0.482,1.786 -0.025,0.999 0.126,1.995 0.449,2.941 l 0.121,0.395 -1.759,0.618 -0.159,-0.345 -0.848,0.274 c -0.067,-0.175 -0.15,-0.344 -0.246,-0.504 -0.176,-0.246 -0.39,-0.471 -0.548,-0.712 -0.067,-0.087 -0.088,-0.257 -0.164,-0.285 -0.291,-0.109 -0.401,-0.547 -0.785,-0.454 -0.158,-0.335 -0.508,-0.203 -0.76,-0.274 -0.311,-0.029 -0.623,-0.007 -0.926,0.065 l -0.187,0.034 c -0.088,-0.009 -0.178,-0.009 -0.268,0 -0.139,0.035 -0.275,0.083 -0.405,0.142 -0.274,0.137 -0.548,0.285 -0.8,0.438 -0.252,0.153 -0.465,0.29 -0.696,0.433 -0.016,0.009 -0.032,0.023 -0.043,0.038 l -0.488,0.745 c -0.142,0.214 -0.285,0.422 -0.422,0.635 -0.033,0.051 -0.062,0.104 -0.088,0.159 -0.082,0.258 -0.141,0.548 -0.24,0.778 -0.098,0.23 -0.236,0.46 -0.318,0.701 -0.082,0.241 -0.131,0.548 -0.202,0.849 -0.072,0.301 -0.137,0.493 -0.208,0.74 -0.029,0.063 -0.05,0.129 -0.067,0.196 -0.054,0.45 -0.092,0.899 -0.164,1.348 -0.038,0.252 -0.136,0.493 -0.175,0.745 -0.039,0.252 0,0.575 -0.049,0.866 -0.049,0.29 -0.082,0.487 -0.116,0.733 -0.018,0.107 -0.018,0.217 0,0.324 0.055,0.16 -0.031,0.334 -0.191,0.389 -0.03,0.01 -0.062,0.015 -0.093,0.016 h -0.06 c -0.66,0.085 -1.326,-0.114 -1.829,-0.548 -0.464,-0.297 -0.97,-0.522 -1.501,-0.668 -0.231,-0.082 -0.384,-0.142 -0.329,-0.427 h -1.424 l -0.05,0.263 c -0.036,0.003 -0.072,0.003 -0.11,0 h -1.303 c -0.453,0 -0.822,0.368 -0.822,0.821 0,0.454 0.369,0.822 0.822,0.822 h 1.331 c 0.025,-0.003 0.052,-0.003 0.077,0 v 0.416 c -0.099,0.104 -0.17,0.192 -0.252,0.263 -0.047,0.043 -0.106,0.07 -0.17,0.077 h -3.451 c 0,0 -0.038,0 -0.076,-0.033 -0.009,-0.086 -0.009,-0.172 0,-0.258 0.079,-0.714 -0.08,-1.435 -0.455,-2.048 -0.049,-0.082 -0.148,-0.181 -0.225,-0.181 h -1.686 v 0.581 h -0.318 l -0.033,-0.575 h -2.191 v 1.128 h -1.002 -3.287 c -0.139,-0.001 -0.277,0.027 -0.405,0.082 -0.898,0.389 -1.786,0.794 -2.679,1.183 -0.126,0.039 -0.206,0.165 -0.186,0.296 v 1.123 c 10e-4,0.141 0.062,0.275 0.17,0.367 0.109,0.055 0.279,0 0.482,-0.061 0.11,0.142 0.312,0.167 0.453,0.058 0.04,-0.031 0.073,-0.072 0.094,-0.118 0.197,0.176 0.395,0.258 0.609,0 0.191,0.154 0.388,0.252 0.602,0 0.187,0.138 0.422,0.291 0.548,0 0.066,-0.222 0.098,-0.453 0.093,-0.684 h 4.469 V 5.33 h -4.469 c 0.005,-0.229 -0.029,-0.456 -0.099,-0.674 -0.137,-0.274 -0.361,-0.164 -0.548,0 -0.095,-0.165 -0.306,-0.221 -0.471,-0.126 -0.052,0.031 -0.095,0.074 -0.125,0.126 -0.098,-0.171 -0.315,-0.231 -0.486,-0.134 -0.055,0.032 -0.101,0.078 -0.134,0.134 -0.191,-0.28 -0.394,-0.225 -0.547,-0.077 -0.198,-0.033 -0.378,-0.115 -0.471,-0.06 -0.113,0.102 -0.179,0.247 -0.181,0.4 -0.019,0.365 -0.019,0.73 0,1.095 0.013,0.11 0.075,0.206 0.17,0.263 0.836,0.394 1.68,0.776 2.53,1.145 0.212,0.087 0.44,0.132 0.668,0.131 h 3.758 c 0.416,0 0.416,0 0.416,0.433 v 0.745 h 2.236 l 0.027,-0.548 h 0.29 V 8.78 h 1.769 c 0.06,0 0.148,-0.114 0.181,-0.192 0.179,-0.35 0.323,-0.717 0.433,-1.095 0.035,-0.401 0.035,-0.804 0,-1.205 h 3.642 l 0.328,0.351 v 0.416 h -1.369 c -0.454,-0.053 -0.864,0.273 -0.917,0.727 -0.051,0.453 0.274,0.864 0.727,0.916 0.063,0.008 0.127,0.008 0.19,0 h 1.304 c 0,0 0.033,0 0.055,0.028 0.082,0.509 0.082,0.509 0.624,0.509 h 0.214 c 0.596,0 0.596,0 0.679,-0.591 0.746,-0.123 1.449,-0.436 2.037,-0.91 0.34,-0.295 0.786,-0.437 1.233,-0.394 h 3.33 c 0.148,0.009 0.293,0.046 0.428,0.109 0.608,0.301 1.276,0.458 1.955,0.46 0.128,0.013 0.245,0.079 0.323,0.181 0.321,0.384 0.81,0.588 1.31,0.548 0.248,0.003 0.486,0.094 0.672,0.258 1.421,1.174 3.286,1.667 5.1,1.347 0.23,-0.028 0.411,0 0.548,0.208 0.09,0.185 0.313,0.262 0.498,0.172 0.017,-0.009 0.034,-0.019 0.05,-0.03 0.356,-0.17 0.679,-0.366 0.646,-0.843 0,-0.055 0.088,-0.126 0.148,-0.165 C 0.819,8.509 1.685,6.526 1.331,4.562 1.161,3.714 1.084,2.848 0.97,1.994 0.767,0.853 0.366,-0.245 -0.214,-1.249 c -0.367,-0.695 -0.361,-0.685 0.203,-1.254 1.643,-1.643 3.286,-3.287 4.93,-5.001 1.04,-1.036 1.82,-2.302 2.278,-3.697 0.436,-1.307 0.1,-2.747 -0.871,-3.725 C 6.229,-15.05 6.15,-15.188 6.097,-15.336 5.604,-16.64 5.614,-18.015 5.549,-19.379 5.482,-20.743 5.362,-22.118 5.264,-23.454 5.165,-24.791 5.061,-26.193 4.935,-27.557 4.837,-28.652 4.711,-29.748 4.596,-30.843 4.497,-31.78 4.393,-32.722 4.283,-33.702 l 2.098,1.178 c 1.096,0.624 2.191,1.237 3.286,1.867 0.267,0.157 0.516,0.341 0.745,0.548 1.084,0.986 2.476,1.567 3.939,1.643 0.044,-0.004 0.087,-0.004 0.131,0 v 2.257 h -0.274 c -0.301,0.034 -0.517,0.305 -0.482,0.605 0.024,0.217 0.174,0.399 0.383,0.463 0.08,0.011 0.162,0.011 0.242,0 h 15.687 c 0.274,0 0.548,-0.06 0.613,-0.334 0.017,-0.186 -0.007,-0.373 -0.071,-0.548 -0.021,-0.058 -0.071,-0.101 -0.131,-0.115 -0.394,-0.038 -0.323,-0.334 -0.323,-0.581 v -18.25 H 14.351 v 3.779 c -0.614,0.126 -1.183,0.291 -1.764,0.351 -0.332,-0.004 -0.661,-0.061 -0.975,-0.17 l -8.545,-1.742 c -0.504,-0.104 -1.007,-0.197 -1.505,-0.317 -0.132,-0.045 -0.25,-0.12 -0.346,-0.22 -1.63,-1.466 -4.142,-1.334 -5.609,0.297 -0.01,0.012 -0.022,0.025 -0.033,0.037 -1.152,1.344 -1.29,3.284 -0.34,4.777 0.097,0.177 0.181,0.36 0.252,0.548 0.187,0.416 0.384,0.837 0.548,1.254 0.134,0.243 0.246,0.498 0.334,0.761 0.548,2.262 1.096,4.53 1.688,6.792 0.049,0.143 0.011,0.301 -0.099,0.405 -0.101,0.112 -0.176,0.245 -0.219,0.389 -0.016,0.362 -0.066,0.565 -0.373,0.57"
         style="fill:#000000;fill-opacity:1;fill-rule:nonzero;stroke:none"
         transform="matrix(1.3333333,0,0,-1.3333333,709.2956,171.956)"
         clip-path="url(#clipPath203)" />
      <path
         id="path204"
         d="M 0,0 C 0.466,-0.024 0.862,0.333 0.887,0.799 0.888,0.81 0.888,0.821 0.888,0.833 0.885,1.297 0.514,1.675 0.05,1.687 -0.414,1.685 -0.795,1.318 -0.815,0.854 -0.819,0.396 -0.458,0.018 0,0 m -1.232,3.319 0.323,-0.635 0.35,0.121 -0.197,0.69 C 0.015,3.762 0.866,3.648 1.54,3.188 2.379,2.672 2.871,1.74 2.821,0.756 H 2.12 L 2.044,0.422 2.739,0.241 C 2.433,-1.577 0.099,-2.58 -1.38,-1.528 l 0.351,0.613 -0.285,0.22 -0.493,-0.548 c -0.668,0.563 -1.014,1.42 -0.925,2.289 0.06,0.971 0.631,1.836 1.5,2.273"
         style="fill:#000000;fill-opacity:1;fill-rule:nonzero;stroke:none"
         transform="matrix(1.3333333,0,0,-1.3333333,707.34507,226.67147)"
         clip-path="url(#clipPath205)" />
      <path
         id="path206"
         d="m 0,0 c -0.089,-0.451 0.204,-0.889 0.655,-0.978 0.451,-0.089 0.89,0.204 0.979,0.655 0.016,0.087 0.02,0.175 0.01,0.262 C 1.588,0.396 1.172,0.721 0.716,0.665 0.358,0.621 0.069,0.353 0,0 M 2.152,-1.046 1.89,-0.86 C 1.665,-0.992 1.528,-1.134 1.78,-1.358 c -0.548,-0.62 -2.092,-0.444 -2.492,0.69 l 0.296,0.147 -0.077,0.329 H -0.794 C -0.908,0.678 -0.296,1.476 0.573,1.59 0.716,1.609 0.86,1.608 1.002,1.588 V 1.254 L 1.325,1.161 1.49,1.451 C 2.323,1.092 2.708,0.125 2.35,-0.708 2.298,-0.828 2.231,-0.942 2.152,-1.046"
         style="fill:#000000;fill-opacity:1;fill-rule:nonzero;stroke:none"
         transform="matrix(1.3333333,0,0,-1.3333333,712.9544,188.21253)"
         clip-path="url(#clipPath207)" />
      <path
         id="path208"
         d="M 0,0 C 0.464,0.02 0.832,0.396 0.844,0.86 0.826,1.324 0.447,1.692 -0.017,1.698 -0.481,1.689 -0.853,1.308 -0.85,0.844 -0.838,0.38 -0.463,0.009 0,0 m -1.293,-0.893 0.231,0.378 -0.258,0.208 -0.345,-0.246 c -0.782,0.895 -0.691,2.255 0.204,3.037 0.141,0.123 0.297,0.227 0.464,0.309 l 0.219,-0.372 0.329,0.104 -0.082,0.449 C 0.107,3.146 0.79,3.006 1.309,2.596 1.971,2.103 2.299,1.279 2.158,0.466 L 1.73,0.509 C 1.566,0.219 1.566,0.219 1.978,-0.005 1.604,-1.26 -0.285,-1.78 -1.293,-0.893"
         style="fill:#000000;fill-opacity:1;fill-rule:nonzero;stroke:none"
         transform="matrix(1.3333333,0,0,-1.3333333,695.52213,167.79333)"
         clip-path="url(#clipPath209)" />
    </g>
  </g>
</svg>
